<svg xmlns="http://www.w3.org/2000/svg" xmlns:xlink="http://www.w3.org/1999/xlink" viewBox="0 0 115 101" version="1.1"><script xmlns=""/><title>5-icon</title><defs><polygon id="path-1" points="0 0 22.8260446 0 22.8260446 33.825456 0 33.825456"/></defs><g id="Page-1" stroke="none" stroke-width="1" fill="none" fill-rule="evenodd"><g id="5-icon" transform="translate(1.918495, 1.204970)"><path d="M18.1772442,62.7327836 L0.121668733,62.7327836 C-0.185509543,61.1334636 0.0891327166,59.9579113 0.943681629,59.2061266 C1.79918748,58.4533939 2.86617745,58.3244623 4.1465654,58.8145918 C4.53508372,55.9818899 5.98867812,54.3977384 8.50830554,54.0621372 C11.026976,53.7265359 12.7360738,54.7504041 13.6336851,57.1327936 C14.6815363,56.674897 15.6002003,56.674897 16.3896771,57.1327936 C17.573414,57.8182164 18.2758092,58.4040965 18.5322695,59.7559817 C18.7035621,60.6585025 18.5849013,61.6491898 18.1772442,62.7327836 Z" id="Stroke-1" stroke="#3A3A3A" stroke-width="2" stroke-linecap="round" stroke-linejoin="round"/><path d="M110.814949,10 L90.1393241,10 C89.7875711,8.1686023 90.1020668,6.82246528 91.0806195,5.96158894 C92.060268,5.09962702 93.2820892,4.95198618 94.7482746,5.51323847 C95.1931709,2.26948249 96.8576967,0.455454302 99.7429479,0.0711538952 C102.627103,-0.313146512 104.584209,0.859295408 105.612073,3.58739406 C106.811978,3.06305198 107.863949,3.06305198 108.767987,3.58739406 C110.123497,4.37227879 110.927817,5.04317611 111.221492,6.59123368 C111.417641,7.62471952 111.281761,8.75916564 110.814949,10 Z" id="Stroke-1" stroke="#3A3A3A" stroke-width="2" stroke-linecap="round" stroke-linejoin="round" transform="translate(100.654214, 5.000000) scale(-1, 1) translate(-100.654214, -5.000000) "/><g id="Group-7" transform="translate(85.173955, 37.087446)"><mask id="mask-2" fill="white"><use xlink:href="#path-1"/></mask><g id="Clip-6"/><path d="M0.911601828,30.0031289 C0.911601828,30.0031289 -1.22429198,23.858972 1.04270284,18.6400885 C5.60922849,8.12363536 14.5173985,6.9793679 15.5642927,0 C15.5642927,0 26.9748652,11.8370535 21.1891958,24.4628646 C15.1958702,37.5408842 3.71735481,33.098434 3.71735481,33.098434 C3.71735481,33.098434 13.6829454,27.0832086 12.8283965,19.2828502 C12.8283965,19.2828502 8.09153519,27.7847479 0.911601828,30.0031289" id="Fill-5" fill="#F5B884" mask="url(#mask-2)"/></g><path d="M97.5613932,57.568696 C98.187233,56.4348568 98.7058954,55.1607098 99.0283847,53.7462549" id="Stroke-8" stroke="#3A3A3A" stroke-width="2" stroke-linecap="round" stroke-linejoin="round"/><path d="M87.5686255,66.9054255 C87.5686255,66.9054255 90.5016517,65.4018561 93.0107527,62.3311997" id="Stroke-10" stroke="#3A3A3A" stroke-width="2" stroke-linecap="round" stroke-linejoin="round"/><path d="M27.1056057,36.3945338 C27.1056057,36.3945338 32.4596943,32.6270782 30.9362432,26.2933161 C27.8654174,13.5309892 18.0357125,10.5029939 18.2395411,2.41917565 C18.2395411,2.41917565 3.00502968,13.562274 7.03184024,28.944945 C11.2050629,44.877471 25.0472241,42.0978586 25.0472241,42.0978586 C25.0472241,42.0978586 14.9888102,33.3646425 17.4998252,24.7233849 C17.4998252,24.7233849 19.4395459,32.4924585 27.1056057,36.3945338" id="Fill-12" fill="#F5B884"/><path d="M34.4677407,38.9497516 C27.7193881,38.9554366 20.0294048,31.3456314 17.500208,24.7236693" id="Stroke-14" stroke="#3A3A3A" stroke-width="2" stroke-linecap="round" stroke-linejoin="round"/><path d="M30.6203567,78.1039834 C33.684484,90.3496361 45.3534307,99.2307443 58.9046817,98.0855288 C71.7477959,97.0000389 82.1124311,86.708268 83.1822919,73.9829141 C84.1535877,62.4122559 77.6090636,52.2342481 67.8568711,47.7187999 C67.8568711,47.7187999 54.6060997,41.756664 39.966806,47.7187999 L39.966806,14.3103614 L74.2597678,14.3103614" id="Stroke-16" stroke="#3A3A3A" stroke-width="2" stroke-linecap="round" stroke-linejoin="round"/><path d="M31.1594977,86.507476 L26.1374678,83.9117807 C22.9278854,82.252735 18.9910274,82.9827151 16.6053718,85.6779532 L15.0445999,87.4403337 C15.0445999,87.4403337 25.2609092,93.8433017 31.1594977,86.507476" id="Fill-18" fill="#F5B884"/><line x1="17.2296805" y1="85.4807638" x2="15.6698656" y2="87.2431443" id="Stroke-20" stroke="#3A3A3A" stroke-width="1.375" stroke-linecap="round" stroke-linejoin="round"/><path d="M27.1869457,82.3534154 L26.9678061,80.9455967 C26.673068,79.0533367 25.0529658,77.6417259 23.1199436,77.5943246 L21.5122816,77.5554555 L21.6759186,78.9471578 C21.9256804,81.0707361 23.8261666,82.6179147 25.9783284,82.449166 L27.1869457,82.3534154 Z" id="Fill-22" fill="#F5B884"/><path d="M27.5148896,87.1065337 C27.5148896,87.1065337 30.3885855,86.7396476 34.9024793,88.1304019" id="Stroke-24" stroke="#3A3A3A" stroke-width="2" stroke-linecap="round" stroke-linejoin="round"/><path d="M89.8395047,85.0470303 L96.4195047,75.4990303 L95.4255047,74.9390303 L88.8175047,84.4870303 L89.8395047,85.0470303 Z M89.8675047,79.9510303 C91.4355047,79.9510303 92.3595047,78.8310303 92.3595047,77.5710303 C92.3595047,76.3110303 91.4355047,75.1910303 89.8675047,75.1910303 C88.2995047,75.1910303 87.3755047,76.3110303 87.3755047,77.5710303 C87.3755047,78.8310303 88.2995047,79.9510303 89.8675047,79.9510303 Z M89.8675047,78.7750303 C89.1115047,78.7750303 88.7055047,78.2430303 88.7055047,77.5710303 C88.7055047,76.8990303 89.1115047,76.3670303 89.8675047,76.3670303 C90.6235047,76.3670303 91.0295047,76.8990303 91.0295047,77.5710303 C91.0295047,78.2430303 90.6235047,78.7750303 89.8675047,78.7750303 Z M95.4115047,84.8650303 C96.9795047,84.8650303 97.9035047,83.7450303 97.9035047,82.4850303 C97.9035047,81.2250303 96.9795047,80.1050303 95.4115047,80.1050303 C93.8435047,80.1050303 92.9195047,81.2250303 92.9195047,82.4850303 C92.9195047,83.7450303 93.8435047,84.8650303 95.4115047,84.8650303 Z M95.4115047,83.6890303 C94.6555047,83.6890303 94.2495047,83.1570303 94.2495047,82.4850303 C94.2495047,81.8130303 94.6555047,81.2810303 95.4115047,81.2810303 C96.1675047,81.2810303 96.5735047,81.8130303 96.5735047,82.4850303 C96.5735047,83.1570303 96.1675047,83.6890303 95.4115047,83.6890303 Z" id="%" fill="#3A3A3A" fill-rule="nonzero"/><path d="M88.6215047,96.7950303 L88.9185047,95.8160303 L91.8775047,95.8160303 L92.1745047,96.7950303 L93.5495047,96.7950303 L90.9535047,89.0950303 L89.8425047,89.0950303 L87.2465047,96.7950303 L88.6215047,96.7950303 Z M91.5365047,94.6830303 L89.2485047,94.6830303 L90.3925047,90.8660303 L91.5365047,94.6830303 Z M95.8045047,96.7950303 L95.8045047,94.4850303 L97.3775047,94.4850303 C98.9175047,94.4850303 100.017505,93.3630303 100.017505,91.7900303 C100.017505,90.2170303 98.9175047,89.0950303 97.3775047,89.0950303 L94.5395047,89.0950303 L94.5395047,96.7950303 L95.8045047,96.7950303 Z M97.3005047,93.3520303 L95.8045047,93.3520303 L95.8045047,90.2280303 L97.3005047,90.2280303 C98.1365047,90.2280303 98.7525047,90.8880303 98.7525047,91.7900303 C98.7525047,92.6920303 98.1365047,93.3520303 97.3005047,93.3520303 Z M102.701505,96.7950303 L106.518505,89.0950303 L105.132505,89.0950303 L103.493505,92.4060303 L101.425505,89.0950303 L99.9625047,89.0950303 L102.844505,93.7040303 L101.315505,96.7950303 L102.701505,96.7950303 Z" id="APY" fill="#3A3A3A" fill-rule="nonzero"/></g></g></svg>