<svg xmlns="http://www.w3.org/2000/svg" xmlns:xlink="http://www.w3.org/1999/xlink" version="1.1" id="Layer_1" x="0px" y="0px" viewBox="0 0 151 88" style="enable-background:new 0 0 151 88;" xml:space="preserve" width="151"  height="88" ><script xmlns=""/>
<style type="text/css">
	.st0{fill-rule:evenodd;clip-rule:evenodd;fill:#F5B884;}
	.st1{fill:none;stroke:#3A3A3A;stroke-width:2.5;stroke-linecap:round;stroke-linejoin:round;}
	.st2{fill:none;stroke:#F5B884;stroke-width:2.5;stroke-linecap:round;stroke-linejoin:round;}
	.st3{fill:none;stroke:#F5B884;stroke-width:2;stroke-linecap:round;stroke-linejoin:round;}
	.st4{fill-rule:evenodd;clip-rule:evenodd;fill:#3A3A3A;}
	.st5{filter:url(#Adobe_OpacityMaskFilter);}
	.st6{fill-rule:evenodd;clip-rule:evenodd;fill:#FFFFFF;}
	.st7{mask:url(#mask-2_1_);fill-rule:evenodd;clip-rule:evenodd;fill:#F5B884;}
	.st8{filter:url(#Adobe_OpacityMaskFilter_1_);}
	.st9{mask:url(#mask-4_1_);fill-rule:evenodd;clip-rule:evenodd;fill:#3A3A3A;}
	.st10{filter:url(#Adobe_OpacityMaskFilter_2_);}
	.st11{mask:url(#mask-6_1_);fill-rule:evenodd;clip-rule:evenodd;fill:#3A3A3A;}
</style>
<g id="Homepage">
	<g id="Homepage-LG-New-Icons" transform="translate(-244.000000, -959.000000)">
		<g id="Group-24" transform="translate(188.000000, 852.000000)">
			<g id="Group-21" transform="translate(0.000000, 106.000000)">
				<g id="Early-bird-illustration" transform="translate(56.000000, 1.181818)">
					<path id="Fill-1" class="st0" d="M62.7,2.7c-2.3,1.5-6.2,4.9-7.6,10.7c-2.2,9.4,7.7,15.1-1.7,31.7C45.1,59.9,24,57.9,11.8,57.7       C4.2,71.7,0,82.8,0,82.8s6.8-8.8,25.6-9.7c12.8-0.6,37.6-1.1,46.5-15.3c10-15.9,3.9-24.2,6.4-34.9C80.7,13.4,89,9.7,89,9.7       S81.5-2.8,65.3,1.9C64.4,2.1,63.6,2.4,62.7,2.7z"/>
					<path id="Stroke-3" class="st1" d="M73,7.3c0,0-1.8-2.1-3.2-1.3c-1.4,0.9-0.5,2.8-0.5,2.8"/>
					<line id="Stroke-5" class="st2" x1="32.5" y1="73.8" x2="32.5" y2="83.8"/>
					<line id="Stroke-7" class="st3" x1="26" y1="83.3" x2="40" y2="83.3"/>
					<line id="Stroke-9" class="st2" x1="44" y1="83.3" x2="74" y2="83.3"/>
					<line id="Stroke-11" class="st2" x1="8" y1="83.3" x2="40" y2="83.3"/>
					<line id="Stroke-13" class="st2" x1="80" y1="83.3" x2="83" y2="83.3"/>
					<path id="Fill-15" class="st4" d="M57.8,37.9c0.6-0.1,1.1,0.2,1.2,0.7c0.1,0.5-0.2,1.1-0.7,1.2c-0.6,0.1-1.1-0.2-1.2-0.7       C56.9,38.5,57.2,38,57.8,37.9"/>
					<path id="Fill-17" class="st4" d="M48,12c-0.1-0.6,0.2-1.1,0.8-1.2c0.5-0.1,1.1,0.2,1.2,0.8c0.1,0.5-0.2,1.1-0.7,1.2       C48.7,12.9,48.2,12.6,48,12"/>
					<path id="Fill-19" class="st4" d="M53,11c-0.1-0.6,0.2-1.1,0.8-1.2c0.5-0.1,1.1,0.2,1.2,0.7c0.1,0.5-0.2,1.1-0.7,1.2       C53.7,11.9,53.2,11.6,53,11"/>
					<path id="Fill-21" class="st4" d="M46.8,13.8c0.6-0.1,1.1,0.2,1.2,0.7c0.1,0.5-0.2,1.1-0.8,1.2c-0.6,0.1-1-0.2-1.2-0.7       C45.9,14.5,46.2,14,46.8,13.8"/>
					<path id="Fill-23" class="st4" d="M51.8,12.8c0.6-0.1,1.1,0.2,1.2,0.7c0.1,0.5-0.2,1.1-0.7,1.2c-0.5,0.1-1.1-0.2-1.2-0.7       C50.9,13.5,51.2,13,51.8,12.8"/>
					<path id="Fill-25" class="st4" d="M56,13c-0.1-0.6,0.2-1.1,0.8-1.2c0.6-0.1,1.1,0.2,1.2,0.7c0.1,0.5-0.2,1.1-0.7,1.2       C56.7,13.9,56.2,13.6,56,13"/>
					<path id="Fill-27" class="st4" d="M58.8,62.8c0.6-0.1,1.1,0.2,1.2,0.7c0.1,0.5-0.2,1.1-0.8,1.2c-0.6,0.1-1-0.2-1.2-0.7       C57.9,63.5,58.2,63,58.8,62.8"/>
					<path id="Fill-29" class="st4" d="M49,17c-0.1-0.6,0.2-1.1,0.8-1.2c0.5-0.1,1.1,0.2,1.2,0.7c0.1,0.5-0.2,1.1-0.7,1.2       C49.7,17.9,49.2,17.6,49,17"/>
					<path id="Fill-31" class="st4" d="M54.8,14.8c0.6-0.1,1.1,0.2,1.2,0.7c0.1,0.5-0.2,1.1-0.8,1.2c-0.6,0.1-1.1-0.2-1.2-0.7       C53.9,15.5,54.2,15,54.8,14.8"/>
					<path id="Fill-33" class="st4" d="M59.8,13.8c0.6-0.1,1.1,0.2,1.2,0.7c0.1,0.5-0.2,1.1-0.8,1.2c-0.6,0.1-1-0.2-1.2-0.8       C58.9,14.5,59.2,14,59.8,13.8"/>
					<path id="Fill-35" class="st4" d="M53,65c-0.1-0.6,0.2-1.1,0.8-1.2c0.5-0.1,1.1,0.2,1.2,0.8c0.1,0.5-0.2,1.1-0.7,1.2       C53.7,65.9,53.2,65.6,53,65"/>
					<path id="Fill-37" class="st4" d="M33,24c-0.1-0.6,0.2-1.1,0.7-1.2c0.6-0.1,1.1,0.2,1.2,0.7c0.1,0.5-0.2,1.1-0.7,1.2       C33.7,24.9,33.2,24.6,33,24"/>
					<path id="Fill-39" class="st4" d="M37.8,21.8c0.6-0.1,1.1,0.2,1.2,0.7c0.1,0.5-0.2,1.1-0.8,1.2c-0.5,0.1-1-0.2-1.2-0.7       C36.9,22.5,37.2,22,37.8,21.8"/>
					<path id="Fill-41" class="st4" d="M42,21c-0.1-0.6,0.2-1.1,0.8-1.2c0.5-0.1,1.1,0.2,1.2,0.8c0.1,0.5-0.2,1.1-0.8,1.2       C42.7,21.9,42.2,21.6,42,21"/>
					<path id="Fill-43" class="st4" d="M47,20c-0.1-0.6,0.2-1.1,0.8-1.2c0.5-0.1,1.1,0.2,1.2,0.7c0.1,0.5-0.2,1.1-0.7,1.2       C47.7,20.9,47.2,20.6,47,20"/>
					<path id="Fill-45" class="st4" d="M52,19c-0.1-0.6,0.2-1,0.8-1.2c0.5-0.1,1.1,0.2,1.2,0.8c0.1,0.5-0.2,1.1-0.8,1.2       C52.7,19.9,52.2,19.6,52,19"/>
					<path id="Fill-47" class="st4" d="M57,18c-0.1-0.6,0.2-1.1,0.8-1.2c0.5-0.1,1.1,0.2,1.2,0.8c0.1,0.5-0.2,1.1-0.7,1.2       C57.7,18.9,57.2,18.6,57,18"/>
					<path id="Fill-49" class="st4" d="M62,17c-0.1-0.6,0.2-1,0.8-1.2c0.5-0.1,1,0.2,1.2,0.8c0.1,0.5-0.2,1.1-0.8,1.2       C62.7,17.9,62.2,17.6,62,17"/>
					<path id="Fill-51" class="st4" d="M31.8,25.8c0.6-0.1,1.1,0.2,1.2,0.7c0.1,0.5-0.2,1.1-0.8,1.2c-0.5,0.1-1.1-0.2-1.2-0.7       C30.9,26.5,31.2,26,31.8,25.8"/>
					<path id="Fill-53" class="st4" d="M36,26c-0.1-0.6,0.2-1,0.8-1.2c0.5-0.1,1.1,0.2,1.2,0.8c0.1,0.5-0.2,1.1-0.7,1.2       C36.7,26.9,36.2,26.6,36,26"/>
					<path id="Fill-55" class="st4" d="M40.8,22.8c0.6-0.1,1.1,0.2,1.2,0.7c0.1,0.5-0.2,1.1-0.8,1.2c-0.6,0.1-1.1-0.2-1.2-0.7       C39.9,23.5,40.2,23,40.8,22.8"/>
					<path id="Fill-57" class="st4" d="M45,23c-0.1-0.6,0.2-1.1,0.8-1.2c0.5-0.1,1.1,0.2,1.2,0.7c0.1,0.5-0.2,1.1-0.7,1.2       C45.7,23.9,45.2,23.6,45,23"/>
					<path id="Fill-59" class="st4" d="M50.8,20.8c0.6-0.1,1.1,0.2,1.2,0.7c0.1,0.5-0.2,1.1-0.8,1.2c-0.6,0.1-1-0.2-1.2-0.7       C49.9,21.5,50.2,21,50.8,20.8"/>
					<path id="Fill-61" class="st4" d="M55.8,19.8c0.6-0.1,1.1,0.2,1.2,0.7c0.1,0.5-0.2,1.1-0.8,1.2c-0.6,0.1-1-0.2-1.2-0.7       C54.9,20.5,55.2,20,55.8,19.8"/>
					<path id="Fill-63" class="st4" d="M60.8,18.8c0.6-0.1,1.1,0.2,1.2,0.7c0.1,0.5-0.2,1.1-0.8,1.2c-0.6,0.1-1-0.2-1.2-0.7       C59.9,19.5,60.2,19,60.8,18.8"/>
					<path id="Fill-65" class="st4" d="M65,60c-0.1-0.6,0.2-1.1,0.8-1.2c0.5-0.1,1.1,0.2,1.2,0.8c0.1,0.5-0.2,1.1-0.7,1.2       C65.7,60.9,65.2,60.6,65,60"/>
					<path id="Fill-67" class="st4" d="M60.8,59.8c0.6-0.1,1.1,0.2,1.2,0.7c0.1,0.5-0.2,1.1-0.8,1.2c-0.6,0.1-1.1-0.2-1.2-0.7       C59.9,60.5,60.2,60,60.8,59.8"/>
					<path id="Fill-69" class="st4" d="M55.8,60.8c0.6-0.1,1.1,0.2,1.2,0.7c0.1,0.5-0.2,1.1-0.8,1.2c-0.6,0.1-1-0.2-1.2-0.7       C54.9,61.5,55.2,61,55.8,60.8"/>
					<path id="Fill-71" class="st4" d="M29.8,28.9c0.6-0.1,1.1,0.2,1.2,0.7c0.1,0.5-0.2,1.1-0.7,1.2c-0.6,0.1-1.1-0.2-1.2-0.7       C28.9,29.5,29.2,29,29.8,28.9"/>
					<path id="Fill-73" class="st4" d="M34.8,27.8c0.6-0.1,1.1,0.2,1.2,0.7c0.1,0.5-0.2,1.1-0.8,1.2c-0.6,0.1-1-0.2-1.2-0.7       C33.9,28.5,34.2,28,34.8,27.8"/>
					<path id="Fill-75" class="st4" d="M39.8,25.8c0.6-0.1,1.1,0.2,1.2,0.7c0.1,0.5-0.2,1.1-0.8,1.2c-0.6,0.1-1-0.2-1.2-0.7       C38.9,26.5,39.2,26,39.8,25.8"/>
					<path id="Fill-77" class="st4" d="M44,26c-0.1-0.6,0.2-1.1,0.8-1.2c0.5-0.1,1.1,0.2,1.2,0.7c0.1,0.5-0.2,1.1-0.7,1.2       C44.7,26.9,44.2,26.6,44,26"/>
					<path id="Fill-79" class="st4" d="M48,25c-0.1-0.6,0.2-1.1,0.8-1.2c0.5-0.1,1.1,0.2,1.2,0.7c0.1,0.5-0.2,1.1-0.7,1.2       C48.7,25.9,48.2,25.6,48,25"/>
					<path id="Fill-81" class="st4" d="M53,24c-0.1-0.6,0.2-1,0.8-1.2c0.5-0.1,1.1,0.2,1.2,0.8c0.1,0.5-0.2,1.1-0.8,1.2       C53.7,24.9,53.2,24.6,53,24"/>
					<path id="Fill-83" class="st4" d="M58,23c-0.1-0.6,0.2-1.1,0.8-1.2c0.5-0.1,1.1,0.2,1.2,0.7c0.1,0.5-0.2,1.1-0.7,1.2       C58.7,23.9,58.2,23.6,58,23"/>
					<path id="Fill-85" class="st4" d="M63.8,20.8c0.6-0.1,1.1,0.2,1.2,0.7c0.1,0.5-0.2,1.1-0.8,1.2c-0.6,0.1-1-0.2-1.2-0.8       C62.9,21.5,63.2,21,63.8,20.8"/>
					<path id="Fill-87" class="st4" d="M22,34c-0.1-0.6,0.2-1.1,0.8-1.2c0.5-0.1,1.1,0.2,1.2,0.8c0.1,0.5-0.2,1.1-0.7,1.2       C22.7,34.9,22.2,34.6,22,34"/>
					<path id="Fill-89" class="st4" d="M27,33c-0.1-0.6,0.2-1,0.8-1.2c0.5-0.1,1,0.2,1.2,0.8c0.1,0.5-0.2,1.1-0.8,1.2       C27.7,33.9,27.2,33.6,27,33"/>
					<path id="Fill-91" class="st4" d="M32,32c-0.1-0.6,0.2-1.1,0.7-1.2c0.5-0.1,1.1,0.2,1.2,0.7c0.1,0.5-0.2,1.1-0.7,1.2       C32.7,32.9,32.2,32.6,32,32"/>
					<path id="Fill-93" class="st4" d="M37,30c-0.1-0.6,0.2-1.1,0.7-1.2c0.6-0.1,1.1,0.2,1.2,0.7c0.1,0.5-0.2,1.1-0.7,1.2       C37.7,30.9,37.2,30.6,37,30"/>
					<path id="Fill-95" class="st4" d="M42.8,27.8c0.6-0.1,1.1,0.2,1.2,0.7c0.1,0.5-0.2,1.1-0.8,1.2c-0.6,0.1-1-0.2-1.2-0.7       C41.9,28.5,42.2,28,42.8,27.8"/>
					<path id="Fill-97" class="st4" d="M47,28c-0.1-0.6,0.2-1,0.8-1.2c0.5-0.1,1.1,0.2,1.2,0.8c0.1,0.5-0.2,1.1-0.8,1.2       C47.7,28.9,47.2,28.6,47,28"/>
					<path id="Fill-99" class="st4" d="M51.8,25.8c0.6-0.1,1.1,0.2,1.2,0.7c0.1,0.5-0.2,1.1-0.8,1.2c-0.6,0.1-1-0.2-1.2-0.7       C50.9,26.5,51.2,26,51.8,25.8"/>
					<path id="Fill-101" class="st4" d="M56,26c-0.1-0.6,0.2-1.1,0.8-1.2c0.5-0.1,1.1,0.2,1.2,0.7c0.1,0.5-0.2,1.1-0.7,1.2       C56.7,26.9,56.2,26.6,56,26"/>
					<path id="Fill-103" class="st4" d="M61,25c-0.1-0.6,0.2-1.1,0.8-1.2c0.5-0.1,1.1,0.2,1.2,0.8c0.1,0.5-0.2,1.1-0.8,1.2       C61.7,25.9,61.2,25.6,61,25"/>
					<path id="Fill-105" class="st4" d="M66,23c-0.1-0.6,0.2-1.1,0.8-1.2c0.5-0.1,1.1,0.2,1.2,0.8c0.1,0.5-0.2,1.1-0.8,1.2       C66.7,23.9,66.2,23.6,66,23"/>
					<path id="Fill-107" class="st4" d="M20,37c-0.1-0.6,0.2-1.1,0.7-1.2c0.6-0.1,1.1,0.2,1.2,0.7c0.1,0.5-0.2,1.1-0.7,1.2       C20.7,37.9,20.2,37.6,20,37"/>
					<path id="Fill-109" class="st4" d="M25.8,34.8c0.6-0.1,1.1,0.2,1.2,0.7c0.1,0.5-0.2,1.1-0.8,1.2c-0.6,0.1-1-0.2-1.2-0.7       C24.9,35.5,25.2,35,25.8,34.8"/>
					<path id="Fill-111" class="st4" d="M30.8,33.8c0.6-0.1,1.1,0.2,1.2,0.7c0.1,0.5-0.2,1.1-0.8,1.2c-0.6,0.1-1-0.2-1.2-0.7       C29.9,34.5,30.2,34,30.8,33.8"/>
					<path id="Fill-113" class="st4" d="M35,33c-0.1-0.6,0.2-1,0.8-1.2c0.5-0.1,1,0.2,1.2,0.8c0.1,0.5-0.2,1.1-0.8,1.2       C35.7,33.9,35.2,33.6,35,33"/>
					<path id="Fill-115" class="st4" d="M40,32c-0.1-0.6,0.2-1.1,0.8-1.2c0.5-0.1,1.1,0.2,1.2,0.7c0.1,0.5-0.2,1.1-0.7,1.2       C40.7,32.9,40.2,32.6,40,32"/>
					<path id="Fill-117" class="st4" d="M45,31c-0.1-0.6,0.2-1.1,0.7-1.2c0.6-0.1,1.1,0.2,1.2,0.7c0.1,0.5-0.2,1.1-0.7,1.2       C45.7,31.9,45.2,31.6,45,31"/>
					<path id="Fill-119" class="st4" d="M50,30c-0.1-0.6,0.2-1.1,0.8-1.2c0.5-0.1,1.1,0.2,1.2,0.8c0.1,0.5-0.2,1.1-0.8,1.2       C50.7,30.9,50.2,30.6,50,30"/>
					<path id="Fill-121" class="st4" d="M54,29c-0.1-0.6,0.2-1.1,0.8-1.2c0.5-0.1,1.1,0.2,1.2,0.7c0.1,0.5-0.2,1.1-0.7,1.2       C54.7,29.9,54.2,29.6,54,29"/>
					<path id="Fill-123" class="st4" d="M59,28c-0.1-0.6,0.2-1,0.8-1.2c0.5-0.1,1.1,0.2,1.2,0.8c0.1,0.5-0.2,1.1-0.8,1.2       C59.7,28.9,59.2,28.6,59,28"/>
					<path id="Fill-125" class="st4" d="M64.8,24.8c0.6-0.1,1.1,0.2,1.2,0.7c0.1,0.5-0.2,1.1-0.8,1.2c-0.6,0.1-1-0.2-1.2-0.7       C63.9,25.5,64.2,25,64.8,24.8"/>
					<path id="Fill-127" class="st4" d="M50,63c-0.1-0.6,0.2-1.1,0.8-1.2c0.5-0.1,1.1,0.2,1.2,0.7c0.1,0.5-0.2,1.1-0.7,1.2       C50.7,63.9,50.2,63.6,50,63"/>
					<path id="Fill-129" class="st4" d="M18,40c-0.1-0.6,0.2-1.1,0.8-1.2c0.5-0.1,1.1,0.2,1.2,0.7c0.1,0.5-0.2,1.1-0.7,1.2       C18.7,40.9,18.2,40.6,18,40"/>
					<path id="Fill-131" class="st4" d="M23,39c-0.1-0.6,0.2-1,0.8-1.2c0.5-0.1,1.1,0.2,1.2,0.8c0.1,0.5-0.2,1.1-0.8,1.2       C23.7,39.9,23.2,39.6,23,39"/>
					<path id="Fill-133" class="st4" d="M28.8,36.9c0.6-0.1,1.1,0.2,1.2,0.7c0.1,0.5-0.2,1.1-0.7,1.2c-0.6,0.1-1.1-0.2-1.2-0.7       C27.9,37.5,28.2,37,28.8,36.9"/>
					<path id="Fill-135" class="st4" d="M33.8,35.8c0.6-0.1,1.1,0.2,1.2,0.7c0.1,0.5-0.2,1.1-0.8,1.2c-0.6,0.1-1-0.2-1.2-0.7       C32.9,36.5,33.2,36,33.8,35.8"/>
					<path id="Fill-137" class="st4" d="M38,35c-0.1-0.6,0.2-1,0.8-1.2c0.5-0.1,1.1,0.2,1.2,0.8c0.1,0.5-0.2,1.1-0.8,1.2       C38.7,35.9,38.2,35.6,38,35"/>
					<path id="Fill-139" class="st4" d="M43.8,32.8c0.6-0.1,1.1,0.2,1.2,0.7c0.1,0.5-0.2,1.1-0.8,1.2c-0.5,0.1-1-0.2-1.2-0.7       C42.9,33.5,43.2,33,43.8,32.8"/>
					<path id="Fill-141" class="st4" d="M48.8,31.9c0.6-0.1,1.1,0.2,1.2,0.7c0.1,0.5-0.2,1.1-0.7,1.2c-0.6,0.1-1.1-0.2-1.2-0.7       C47.9,32.5,48.2,32,48.8,31.9"/>
					<path id="Fill-143" class="st4" d="M53,32c-0.1-0.6,0.2-1.1,0.7-1.2c0.6-0.1,1.1,0.2,1.2,0.7c0.1,0.5-0.2,1.1-0.7,1.2       C53.7,32.9,53.2,32.6,53,32"/>
					<path id="Fill-145" class="st4" d="M57,31c-0.1-0.6,0.2-1,0.8-1.2c0.5-0.1,1,0.2,1.2,0.8c0.1,0.5-0.2,1.1-0.8,1.2       C57.7,31.9,57.2,31.6,57,31"/>
					<path id="Fill-147" class="st4" d="M62,29c-0.1-0.6,0.2-1.1,0.8-1.2c0.5-0.1,1.1,0.2,1.2,0.8c0.1,0.5-0.2,1.1-0.7,1.2       C62.7,29.9,62.2,29.6,62,29"/>
					<path id="Fill-149" class="st4" d="M67,28c-0.1-0.6,0.2-1.1,0.8-1.2c0.5-0.1,1.1,0.2,1.2,0.7c0.1,0.5-0.2,1.1-0.7,1.2       C67.7,28.9,67.2,28.6,67,28"/>
					<path id="Fill-151" class="st4" d="M45,65c-0.1-0.6,0.2-1.1,0.7-1.2c0.6-0.1,1.1,0.2,1.2,0.7c0.1,0.5-0.2,1.1-0.7,1.2       C45.7,65.9,45.2,65.6,45,65"/>
					<path id="Fill-153" class="st4" d="M17,43c-0.1-0.6,0.2-1.1,0.8-1.2c0.5-0.1,1.1,0.2,1.2,0.8c0.1,0.5-0.2,1.1-0.7,1.2       C17.7,43.9,17.2,43.6,17,43"/>
					<path id="Fill-155" class="st4" d="M21.8,40.8c0.6-0.1,1.1,0.2,1.2,0.7c0.1,0.5-0.2,1.1-0.8,1.2c-0.5,0.1-1-0.2-1.2-0.7       C20.9,41.5,21.2,41,21.8,40.8"/>
					<path id="Fill-157" class="st4" d="M26.8,39.9c0.6-0.1,1.1,0.2,1.2,0.7c0.1,0.5-0.2,1.1-0.7,1.2c-0.6,0.1-1.1-0.2-1.2-0.7       C25.9,40.5,26.2,40,26.8,39.9"/>
					<path id="Fill-159" class="st4" d="M31,40c-0.1-0.6,0.2-1.1,0.8-1.2c0.5-0.1,1.1,0.2,1.2,0.7c0.1,0.5-0.2,1.1-0.7,1.2       C31.7,40.9,31.2,40.6,31,40"/>
					<path id="Fill-161" class="st4" d="M36,38c-0.1-0.6,0.2-1.1,0.8-1.2c0.5-0.1,1.1,0.2,1.2,0.8c0.1,0.5-0.2,1.1-0.8,1.2       C36.7,38.9,36.2,38.6,36,38"/>
					<path id="Fill-163" class="st4" d="M41,37c-0.1-0.6,0.2-1.1,0.8-1.2c0.5-0.1,1.1,0.2,1.2,0.8c0.1,0.5-0.2,1.1-0.7,1.2       C41.7,37.9,41.2,37.6,41,37"/>
					<path id="Fill-165" class="st4" d="M46,36c-0.1-0.6,0.2-1.1,0.8-1.2c0.5-0.1,1.1,0.2,1.2,0.7c0.1,0.5-0.2,1.1-0.7,1.2       C46.7,36.9,46.2,36.6,46,36"/>
					<path id="Fill-167" class="st4" d="M51,35c-0.1-0.6,0.2-1,0.8-1.2c0.5-0.1,1,0.2,1.2,0.8c0.1,0.5-0.2,1.1-0.8,1.2       C51.7,35.9,51.2,35.6,51,35"/>
					<path id="Fill-169" class="st4" d="M56,34c-0.1-0.6,0.2-1.1,0.8-1.2c0.5-0.1,1.1,0.2,1.2,0.7c0.1,0.5-0.2,1.1-0.7,1.2       C56.7,34.9,56.2,34.6,56,34"/>
					<path id="Fill-171" class="st4" d="M61.8,30.9c0.6-0.1,1.1,0.2,1.2,0.7c0.1,0.5-0.2,1.1-0.7,1.2c-0.5,0.1-1.1-0.2-1.2-0.7       C60.9,31.5,61.2,31,61.8,30.9"/>
					<path id="Fill-173" class="st4" d="M65,31c-0.1-0.6,0.2-1.1,0.8-1.2c0.5-0.1,1.1,0.2,1.2,0.7c0.1,0.5-0.2,1.1-0.7,1.2       C65.7,31.9,65.2,31.6,65,31"/>
					<path id="Fill-175" class="st4" d="M70,30c-0.1-0.6,0.2-1.1,0.8-1.2c0.5-0.1,1.1,0.2,1.2,0.7c0.1,0.5-0.2,1.1-0.7,1.2       C70.7,30.9,70.2,30.6,70,30"/>
					<path id="Fill-177" class="st4" d="M66.8,55.9c0.6-0.1,1.1,0.2,1.2,0.7c0.1,0.5-0.2,1.1-0.7,1.2c-0.5,0.1-1.1-0.2-1.2-0.7       C65.9,56.5,66.2,56,66.8,55.9"/>
					<path id="Fill-179" class="st4" d="M10,47c-0.1-0.6,0.2-1,0.8-1.2c0.5-0.1,1.1,0.2,1.2,0.8c0.1,0.5-0.2,1.1-0.8,1.2       C10.7,47.9,10.2,47.6,10,47"/>
					<path id="Fill-181" class="st4" d="M15.8,44.8c0.6-0.1,1.1,0.2,1.2,0.7c0.1,0.5-0.2,1.1-0.8,1.2c-0.6,0.1-1-0.2-1.2-0.7       C14.9,45.5,15.2,45,15.8,44.8"/>
					<path id="Fill-183" class="st4" d="M20,45c-0.1-0.6,0.2-1,0.8-1.2c0.5-0.1,1,0.2,1.2,0.8c0.1,0.5-0.2,1.1-0.8,1.2       C20.7,45.9,20.2,45.6,20,45"/>
					<path id="Fill-185" class="st4" d="M24,44c-0.1-0.6,0.2-1.1,0.8-1.2c0.5-0.1,1.1,0.2,1.2,0.7c0.1,0.5-0.2,1.1-0.7,1.2       C24.7,44.9,24.2,44.6,24,44"/>
					<path id="Fill-187" class="st4" d="M29,43c-0.1-0.6,0.2-1.1,0.8-1.2c0.5-0.1,1.1,0.2,1.2,0.8c0.1,0.5-0.2,1.1-0.8,1.2       C29.7,43.9,29.2,43.6,29,43"/>
					<path id="Fill-189" class="st4" d="M34,41c-0.1-0.6,0.2-1.1,0.8-1.2c0.5-0.1,1.1,0.2,1.2,0.7c0.1,0.5-0.2,1.1-0.7,1.2       C34.7,41.9,34.2,41.6,34,41"/>
					<path id="Fill-191" class="st4" d="M39,40c-0.1-0.6,0.2-1,0.8-1.2c0.5-0.1,1,0.2,1.2,0.8c0.1,0.5-0.2,1.1-0.8,1.2       C39.7,40.9,39.2,40.6,39,40"/>
					<path id="Fill-193" class="st4" d="M44,39c-0.1-0.6,0.2-1,0.8-1.2c0.5-0.1,1.1,0.2,1.2,0.8c0.1,0.5-0.2,1.1-0.8,1.2       C44.7,39.9,44.2,39.6,44,39"/>
					<path id="Fill-195" class="st4" d="M49,38c-0.1-0.6,0.2-1.1,0.8-1.2c0.5-0.1,1.1,0.2,1.2,0.7c0.1,0.5-0.2,1.1-0.7,1.2       C49.7,38.9,49.2,38.6,49,38"/>
					<path id="Fill-197" class="st4" d="M54,37c-0.1-0.6,0.2-1,0.8-1.2c0.5-0.1,1.1,0.2,1.2,0.8c0.1,0.5-0.2,1.1-0.7,1.2       C54.7,37.9,54.2,37.6,54,37"/>
					<path id="Fill-199" class="st4" d="M59,36c-0.1-0.6,0.2-1.1,0.8-1.2c0.5-0.1,1.1,0.2,1.2,0.7c0.1,0.5-0.2,1.1-0.7,1.2       C59.7,36.9,59.2,36.6,59,36"/>
					<path id="Fill-201" class="st4" d="M64,34c-0.1-0.6,0.2-1,0.8-1.2c0.5-0.1,1.1,0.2,1.2,0.8c0.1,0.5-0.2,1.1-0.7,1.2       C64.7,34.9,64.2,34.6,64,34"/>
					<path id="Fill-203" class="st4" d="M68,33c-0.1-0.6,0.2-1,0.8-1.2c0.5-0.1,1.1,0.2,1.2,0.8c0.1,0.5-0.2,1.1-0.8,1.2       C68.7,33.9,68.2,33.6,68,33"/>
					<path id="Fill-205" class="st4" d="M8,50c-0.1-0.6,0.2-1.1,0.8-1.2c0.5-0.1,1.1,0.2,1.2,0.7c0.1,0.5-0.2,1.1-0.7,1.2       C8.7,50.9,8.2,50.6,8,50"/>
					<path id="Fill-207" class="st4" d="M13.8,47.9c0.6-0.1,1.1,0.2,1.2,0.7c0.1,0.5-0.2,1.1-0.7,1.2c-0.6,0.1-1.1-0.2-1.2-0.7       C12.9,48.5,13.2,48,13.8,47.9"/>
					<path id="Fill-209" class="st4" d="M18,48c-0.1-0.6,0.2-1.1,0.8-1.2c0.5-0.1,1.1,0.2,1.2,0.8c0.1,0.5-0.2,1.1-0.8,1.2       C18.7,48.9,18.2,48.6,18,48"/>
					<path id="Fill-211" class="st4" d="M23,47c-0.1-0.6,0.2-1.1,0.8-1.2c0.5-0.1,1.1,0.2,1.2,0.8c0.1,0.5-0.2,1.1-0.7,1.2       C23.7,47.9,23.2,47.6,23,47"/>
					<path id="Fill-213" class="st4" d="M28,46c-0.1-0.6,0.2-1.1,0.7-1.2c0.6-0.1,1.1,0.2,1.2,0.7c0.1,0.5-0.2,1.1-0.7,1.2       C28.7,46.9,28.2,46.6,28,46"/>
					<path id="Fill-215" class="st4" d="M32.8,42.8c0.6-0.1,1.1,0.2,1.2,0.7c0.1,0.5-0.2,1.1-0.8,1.2c-0.5,0.1-1-0.2-1.2-0.7       C31.9,43.5,32.2,43,32.8,42.8"/>
					<path id="Fill-217" class="st4" d="M37,43c-0.1-0.6,0.2-1,0.8-1.2c0.5-0.1,1,0.2,1.2,0.8c0.1,0.5-0.2,1.1-0.8,1.2       C37.7,43.9,37.2,43.6,37,43"/>
					<path id="Fill-219" class="st4" d="M42,42c-0.1-0.6,0.2-1.1,0.8-1.2c0.5-0.1,1.1,0.2,1.2,0.7c0.1,0.5-0.2,1.1-0.7,1.2       C42.7,42.9,42.2,42.6,42,42"/>
					<path id="Fill-221" class="st4" d="M47.8,39.9c0.6-0.1,1.1,0.2,1.2,0.7c0.1,0.5-0.2,1.1-0.7,1.2c-0.5,0.1-1.1-0.2-1.2-0.7       C46.9,40.5,47.2,40,47.8,39.9"/>
					<path id="Fill-223" class="st4" d="M52.8,38.9c0.6-0.1,1.1,0.2,1.2,0.7c0.1,0.5-0.2,1.1-0.7,1.2c-0.6,0.1-1.1-0.2-1.2-0.7       C51.9,39.5,52.2,39,52.8,38.9"/>
					<path id="Fill-225" class="st4" d="M61,58c-0.1-0.6,0.2-1,0.8-1.2c0.5-0.1,1.1,0.2,1.2,0.8c0.1,0.5-0.2,1.1-0.8,1.2       C61.7,58.9,61.2,58.6,61,58"/>
					<path id="Fill-227" class="st4" d="M62,37c-0.1-0.6,0.2-1,0.8-1.2c0.5-0.1,1.1,0.2,1.2,0.8c0.1,0.5-0.2,1.1-0.8,1.2       C62.7,37.9,62.2,37.6,62,37"/>
					<path id="Fill-229" class="st4" d="M67,36c-0.1-0.6,0.2-1.1,0.8-1.2c0.5-0.1,1.1,0.2,1.2,0.8c0.1,0.5-0.2,1.1-0.8,1.2       C67.7,36.9,67.2,36.6,67,36"/>
					<path id="Fill-231" class="st4" d="M71,35c-0.1-0.6,0.2-1,0.8-1.2c0.5-0.1,1.1,0.2,1.2,0.8c0.1,0.5-0.2,1.1-0.8,1.2       C71.7,35.9,71.2,35.6,71,35"/>
					<path id="Fill-233" class="st4" d="M6,53c-0.1-0.6,0.2-1.1,0.8-1.2C7.3,51.7,7.8,52,8,52.6c0.1,0.5-0.2,1.1-0.7,1.2       C6.7,53.9,6.2,53.6,6,53"/>
					<path id="Fill-235" class="st4" d="M11,52c-0.1-0.6,0.2-1,0.8-1.2c0.5-0.1,1,0.2,1.2,0.8c0.1,0.5-0.2,1.1-0.8,1.2       C11.7,52.9,11.2,52.6,11,52"/>
					<path id="Fill-237" class="st4" d="M16,51c-0.1-0.6,0.2-1,0.8-1.2c0.5-0.1,1.1,0.2,1.2,0.8c0.1,0.5-0.2,1.1-0.7,1.2       C16.7,51.9,16.2,51.6,16,51"/>
					<path id="Fill-239" class="st4" d="M21,50c-0.1-0.6,0.2-1,0.8-1.2c0.5-0.1,1.1,0.2,1.2,0.8c0.1,0.5-0.2,1.1-0.8,1.2       C21.7,50.9,21.2,50.6,21,50"/>
					<path id="Fill-241" class="st4" d="M26.8,47.8c0.6-0.1,1.1,0.2,1.2,0.7c0.1,0.5-0.2,1.1-0.8,1.2c-0.6,0.1-1-0.2-1.2-0.7       C25.9,48.5,26.2,48,26.8,47.8"/>
					<path id="Fill-243" class="st4" d="M31.8,45.8c0.6-0.1,1.1,0.2,1.2,0.7c0.1,0.5-0.2,1.1-0.8,1.2c-0.6,0.1-1-0.2-1.2-0.7       C30.9,46.5,31.2,46,31.8,45.8"/>
					<path id="Fill-245" class="st4" d="M35,46c-0.1-0.6,0.2-1,0.8-1.2c0.5-0.1,1.1,0.2,1.2,0.8c0.1,0.5-0.2,1.1-0.8,1.2       C35.7,46.9,35.2,46.6,35,46"/>
					<path id="Fill-247" class="st4" d="M40.8,43.9c0.6-0.1,1.1,0.2,1.2,0.7c0.1,0.5-0.2,1.1-0.7,1.2c-0.5,0.1-1.1-0.2-1.2-0.7       C39.9,44.5,40.2,44,40.8,43.9"/>
					<path id="Fill-249" class="st4" d="M45,44c-0.1-0.6,0.2-1.1,0.7-1.2c0.6-0.1,1.1,0.2,1.2,0.7c0.1,0.5-0.2,1.1-0.7,1.2       C45.7,44.9,45.2,44.6,45,44"/>
					<path id="Fill-251" class="st4" d="M50.8,41.8c0.6-0.1,1.1,0.2,1.2,0.7c0.1,0.5-0.2,1.1-0.8,1.2c-0.6,0.1-1-0.2-1.2-0.8       C49.9,42.5,50.2,42,50.8,41.8"/>
					<path id="Fill-253" class="st4" d="M55,42c-0.1-0.6,0.2-1,0.8-1.2c0.5-0.1,1,0.2,1.2,0.8c0.1,0.5-0.2,1.1-0.8,1.2       C55.7,42.9,55.2,42.6,55,42"/>
					<path id="Fill-255" class="st4" d="M60,40c-0.1-0.6,0.2-1.1,0.8-1.2c0.5-0.1,1.1,0.2,1.2,0.7c0.1,0.5-0.2,1.1-0.7,1.2       C60.7,40.9,60.2,40.6,60,40"/>
					<path id="Fill-257" class="st4" d="M65,39c-0.1-0.6,0.2-1.1,0.8-1.2c0.5-0.1,1.1,0.2,1.2,0.8c0.1,0.5-0.2,1.1-0.7,1.2       C65.7,39.9,65.2,39.6,65,39"/>
					<path id="Fill-259" class="st4" d="M70,38c-0.1-0.6,0.2-1.1,0.7-1.2c0.6-0.1,1.1,0.2,1.2,0.7c0.1,0.5-0.2,1.1-0.7,1.2       C70.7,38.9,70.2,38.6,70,38"/>
					<path id="Fill-261" class="st4" d="M4,56c-0.1-0.6,0.2-1.1,0.8-1.2C5.3,54.7,5.9,55,6,55.6c0.1,0.5-0.2,1.1-0.7,1.2       C4.7,56.9,4.2,56.6,4,56"/>
					<path id="Fill-263" class="st4" d="M9,55c-0.1-0.6,0.2-1.1,0.8-1.2c0.5-0.1,1.1,0.2,1.2,0.7c0.1,0.5-0.2,1.1-0.7,1.2       C9.7,55.9,9.2,55.6,9,55"/>
					<path id="Fill-265" class="st4" d="M14.8,52.8c0.6-0.1,1.1,0.2,1.2,0.7c0.1,0.5-0.2,1.1-0.8,1.2c-0.6,0.1-1-0.2-1.2-0.7       C13.9,53.5,14.2,53,14.8,52.8"/>
					<path id="Fill-267" class="st4" d="M19,53c-0.1-0.6,0.2-1,0.8-1.2c0.5-0.1,1.1,0.2,1.2,0.8c0.1,0.5-0.2,1.1-0.8,1.2       C19.7,53.9,19.2,53.6,19,53"/>
					<path id="Fill-269" class="st4" d="M24,52c-0.1-0.6,0.2-1.1,0.8-1.2c0.5-0.1,1.1,0.2,1.2,0.8c0.1,0.5-0.2,1.1-0.7,1.2       C24.7,52.9,24.2,52.6,24,52"/>
					<path id="Fill-271" class="st4" d="M29.8,48.9c0.6-0.1,1.1,0.2,1.2,0.7c0.1,0.5-0.2,1.1-0.7,1.2c-0.6,0.1-1.1-0.2-1.2-0.7       C28.9,49.5,29.2,49,29.8,48.9"/>
					<path id="Fill-273" class="st4" d="M34.8,47.8c0.6-0.1,1.1,0.2,1.2,0.7c0.1,0.5-0.2,1.1-0.8,1.2c-0.6,0.1-1-0.2-1.2-0.8       C33.9,48.5,34.2,48,34.8,47.8"/>
					<path id="Fill-275" class="st4" d="M38.8,46.8c0.6-0.1,1.1,0.2,1.2,0.7c0.1,0.5-0.2,1.1-0.8,1.2c-0.6,0.1-1-0.2-1.2-0.7       C37.9,47.5,38.2,47,38.8,46.8"/>
					<path id="Fill-277" class="st4" d="M43.8,45.8c0.6-0.1,1.1,0.2,1.2,0.7c0.1,0.5-0.2,1.1-0.8,1.2c-0.6,0.1-1-0.2-1.2-0.8       C42.9,46.5,43.2,46,43.8,45.8"/>
					<path id="Fill-279" class="st4" d="M48,46c-0.1-0.6,0.2-1.1,0.8-1.2c0.5-0.1,1.1,0.2,1.2,0.8c0.1,0.5-0.2,1.1-0.7,1.2       C48.7,46.9,48.2,46.6,48,46"/>
					<path id="Fill-281" class="st4" d="M53,45c-0.1-0.6,0.2-1.1,0.8-1.2c0.5-0.1,1.1,0.2,1.2,0.7c0.1,0.5-0.2,1.1-0.7,1.2       C53.7,45.9,53.2,45.6,53,45"/>
					<path id="Fill-283" class="st4" d="M58.8,41.9c0.6-0.1,1.1,0.2,1.2,0.7c0.1,0.5-0.2,1.1-0.7,1.2c-0.5,0.1-1.1-0.2-1.2-0.7       C57.9,42.5,58.2,42,58.8,41.9"/>
					<path id="Fill-285" class="st4" d="M63.8,40.8c0.6-0.1,1.1,0.2,1.2,0.7c0.1,0.5-0.2,1.1-0.8,1.2c-0.6,0.1-1-0.2-1.2-0.7       C62.9,41.5,63.2,41,63.8,40.8"/>
					<path id="Fill-287" class="st4" d="M68.8,39.9c0.6-0.1,1.1,0.2,1.2,0.7c0.1,0.5-0.2,1.1-0.7,1.2c-0.5,0.1-1.1-0.2-1.2-0.7       C67.9,40.5,68.2,40,68.8,39.9"/>
					<path id="Fill-289" class="st4" d="M57,59c-0.1-0.6,0.2-1.1,0.8-1.2c0.5-0.1,1.1,0.2,1.2,0.7c0.1,0.5-0.2,1.1-0.7,1.2       C57.7,59.9,57.2,59.6,57,59"/>
					<path id="Fill-291" class="st4" d="M2,59c-0.1-0.6,0.2-1,0.8-1.2c0.5-0.1,1.1,0.2,1.2,0.8c0.1,0.5-0.2,1.1-0.8,1.2       C2.7,59.9,2.2,59.6,2,59"/>
					<path id="Fill-293" class="st4" d="M7,58c-0.1-0.6,0.2-1,0.8-1.2c0.5-0.1,1.1,0.2,1.2,0.8c0.1,0.5-0.2,1.1-0.8,1.2       C7.7,58.9,7.2,58.6,7,58"/>
					<path id="Fill-295" class="st4" d="M12,57c-0.1-0.6,0.2-1.1,0.8-1.2c0.5-0.1,1.1,0.2,1.2,0.8c0.1,0.5-0.2,1.1-0.7,1.2       C12.7,57.9,12.2,57.6,12,57"/>
					<path id="Fill-297" class="st4" d="M17,56c-0.1-0.6,0.2-1,0.8-1.2c0.5-0.1,1.1,0.2,1.2,0.8c0.1,0.5-0.2,1.1-0.8,1.2       C17.7,56.9,17.2,56.6,17,56"/>
					<path id="Fill-299" class="st4" d="M22,55c-0.1-0.6,0.2-1.1,0.7-1.2c0.6-0.1,1.1,0.2,1.2,0.7c0.1,0.5-0.2,1.1-0.7,1.2       C22.7,55.9,22.2,55.6,22,55"/>
					<path id="Fill-301" class="st4" d="M27,54c-0.1-0.6,0.2-1.1,0.8-1.2c0.5-0.1,1.1,0.2,1.2,0.8c0.1,0.5-0.2,1.1-0.8,1.2       C27.7,54.9,27.2,54.6,27,54"/>
					<path id="Fill-303" class="st4" d="M32,52c-0.1-0.6,0.2-1.1,0.8-1.2c0.5-0.1,1.1,0.2,1.2,0.8c0.1,0.5-0.2,1.1-0.7,1.2       C32.7,52.9,32.2,52.6,32,52"/>
					<path id="Fill-305" class="st4" d="M37,51c-0.1-0.6,0.2-1.1,0.8-1.2c0.5-0.1,1.1,0.2,1.2,0.7c0.1,0.5-0.2,1.1-0.7,1.2       C37.7,51.9,37.2,51.6,37,51"/>
					<path id="Fill-307" class="st4" d="M41,50c-0.1-0.6,0.2-1.1,0.8-1.2c0.5-0.1,1.1,0.2,1.2,0.8c0.1,0.5-0.2,1.1-0.8,1.2       C41.7,50.9,41.2,50.6,41,50"/>
					<path id="Fill-309" class="st4" d="M46,49c-0.1-0.6,0.2-1.1,0.8-1.2c0.5-0.1,1.1,0.2,1.2,0.7c0.1,0.5-0.2,1.1-0.7,1.2       C46.7,49.9,46.2,49.6,46,49"/>
					<path id="Fill-311" class="st4" d="M51,48c-0.1-0.6,0.2-1.1,0.7-1.2c0.6-0.1,1.1,0.2,1.2,0.7c0.1,0.5-0.2,1.1-0.7,1.2       C51.7,48.9,51.2,48.6,51,48"/>
					<path id="Fill-313" class="st4" d="M56.8,44.8c0.6-0.1,1.1,0.2,1.2,0.7c0.1,0.5-0.2,1.1-0.8,1.2c-0.5,0.1-1-0.2-1.2-0.7       C55.9,45.5,56.2,45,56.8,44.8"/>
					<path id="Fill-315" class="st4" d="M61,45c-0.1-0.6,0.2-1,0.8-1.2c0.5-0.1,1.1,0.2,1.2,0.8c0.1,0.5-0.2,1.1-0.8,1.2       C61.7,45.9,61.2,45.6,61,45"/>
					<path id="Fill-317" class="st4" d="M66,44c-0.1-0.6,0.2-1,0.8-1.2c0.5-0.1,1.1,0.2,1.2,0.8c0.1,0.5-0.2,1.1-0.8,1.2       C66.7,44.9,66.2,44.6,66,44"/>
					<path id="Fill-319" class="st4" d="M71,43c-0.1-0.6,0.2-1,0.8-1.2c0.5-0.1,1.1,0.2,1.2,0.8c0.1,0.5-0.2,1.1-0.8,1.2       C71.7,43.9,71.2,43.6,71,43"/>
					<path id="Fill-321" class="st4" d="M52,60c-0.1-0.6,0.2-1.1,0.8-1.2c0.5-0.1,1.1,0.2,1.2,0.7c0.1,0.5-0.2,1.1-0.7,1.2       C52.7,60.9,52.2,60.6,52,60"/>
					<path id="Fill-323" class="st4" d="M47,62c-0.1-0.6,0.2-1.1,0.8-1.2c0.5-0.1,1.1,0.2,1.2,0.8c0.1,0.5-0.2,1.1-0.7,1.2       C47.7,62.9,47.2,62.6,47,62"/>
					<path id="Fill-325" class="st4" d="M42,63c-0.1-0.6,0.2-1.1,0.8-1.2c0.5-0.1,1.1,0.2,1.2,0.7c0.1,0.5-0.2,1.1-0.7,1.2       C42.7,63.9,42.2,63.6,42,63"/>
					<path id="Fill-327" class="st4" d="M15.8,57.8c0.6-0.1,1.1,0.2,1.2,0.7c0.1,0.5-0.2,1.1-0.8,1.2c-0.6,0.1-1-0.2-1.2-0.7       C14.9,58.5,15.2,58,15.8,57.8"/>
					<path id="Fill-329" class="st4" d="M20,58c-0.1-0.6,0.2-1,0.8-1.2c0.5-0.1,1,0.2,1.2,0.8c0.1,0.5-0.2,1.1-0.8,1.2       C20.7,58.9,20.2,58.6,20,58"/>
					<path id="Fill-331" class="st4" d="M25,57c-0.1-0.6,0.2-1,0.8-1.2c0.5-0.1,1,0.2,1.2,0.8c0.1,0.5-0.2,1.1-0.8,1.2       C25.7,57.9,25.2,57.6,25,57"/>
					<path id="Fill-333" class="st4" d="M30.8,53.8c0.6-0.1,1.1,0.2,1.2,0.7c0.1,0.5-0.2,1.1-0.8,1.2c-0.6,0.1-1-0.2-1.2-0.7       C29.9,54.5,30.2,54,30.8,53.8"/>
					<path id="Fill-335" class="st4" d="M35,54c-0.1-0.6,0.2-1,0.8-1.2c0.5-0.1,1.1,0.2,1.2,0.8c0.1,0.5-0.2,1.1-0.8,1.2       C35.7,54.9,35.2,54.6,35,54"/>
					<path id="Fill-337" class="st4" d="M40.8,51.8c0.6-0.1,1.1,0.2,1.2,0.7c0.1,0.5-0.2,1.1-0.8,1.2c-0.6,0.1-1.1-0.2-1.2-0.7       C39.9,52.5,40.2,52,40.8,51.8"/>
					<path id="Fill-339" class="st4" d="M45,52c-0.1-0.6,0.2-1,0.8-1.2c0.5-0.1,1.1,0.2,1.2,0.8c0.1,0.5-0.2,1.1-0.8,1.2       C45.7,52.9,45.2,52.6,45,52"/>
					<path id="Fill-341" class="st4" d="M49.8,49.8c0.6-0.1,1.1,0.2,1.2,0.7c0.1,0.5-0.2,1.1-0.8,1.2c-0.6,0.1-1-0.2-1.2-0.7       C48.9,50.5,49.2,50,49.8,49.8"/>
					<path id="Fill-343" class="st4" d="M54,49c-0.1-0.6,0.2-1.1,0.8-1.2c0.5-0.1,1.1,0.2,1.2,0.7c0.1,0.5-0.2,1.1-0.7,1.2       C54.7,49.9,54.2,49.6,54,49"/>
					<path id="Fill-345" class="st4" d="M59.8,46.9c0.6-0.1,1.1,0.2,1.2,0.7c0.1,0.5-0.2,1.1-0.7,1.2c-0.5,0.1-1.1-0.2-1.2-0.7       C58.9,47.5,59.2,47,59.8,46.9"/>
					<path id="Fill-347" class="st4" d="M64,47c-0.1-0.6,0.2-1,0.8-1.2c0.5-0.1,1,0.2,1.2,0.8c0.1,0.5-0.2,1.1-0.8,1.2       C64.7,47.9,64.2,47.6,64,47"/>
					<path id="Fill-349" class="st4" d="M69,46c-0.1-0.6,0.2-1.1,0.8-1.2c0.5-0.1,1.1,0.2,1.2,0.7c0.1,0.5-0.2,1.1-0.7,1.2       C69.7,46.9,69.2,46.6,69,46"/>
					<path id="Fill-351" class="st4" d="M68,54c-0.1-0.6,0.2-1.1,0.8-1.2c0.5-0.1,1.1,0.2,1.2,0.7c0.1,0.5-0.2,1.1-0.7,1.2       C68.7,54.9,68.2,54.6,68,54"/>
					<path id="Fill-353" class="st4" d="M28,58c-0.1-0.6,0.2-1,0.8-1.2c0.5-0.1,1.1,0.2,1.2,0.8c0.1,0.5-0.2,1.1-0.7,1.2       C28.7,58.9,28.2,58.6,28,58"/>
					<path id="Fill-355" class="st4" d="M33,57c-0.1-0.6,0.2-1.1,0.8-1.2c0.5-0.1,1.1,0.2,1.2,0.8c0.1,0.5-0.2,1.1-0.7,1.2       C33.7,57.9,33.2,57.6,33,57"/>
					<path id="Fill-357" class="st4" d="M38,56c-0.1-0.6,0.2-1.1,0.8-1.2c0.5-0.1,1.1,0.2,1.2,0.7c0.1,0.5-0.2,1.1-0.7,1.2       C38.7,56.9,38.2,56.6,38,56"/>
					<path id="Fill-359" class="st4" d="M43,55c-0.1-0.6,0.2-1.1,0.7-1.2c0.6-0.1,1.1,0.2,1.2,0.7c0.1,0.5-0.2,1.1-0.7,1.2       C43.7,55.9,43.2,55.6,43,55"/>
					<path id="Fill-361" class="st4" d="M48,54c-0.1-0.6,0.2-1.1,0.8-1.2c0.5-0.1,1.1,0.2,1.2,0.7c0.1,0.5-0.2,1.1-0.7,1.2       C48.7,54.9,48.2,54.6,48,54"/>
					<path id="Fill-363" class="st4" d="M52,53c-0.1-0.6,0.2-1,0.8-1.2c0.5-0.1,1.1,0.2,1.2,0.8c0.1,0.5-0.2,1.1-0.8,1.2       C52.7,53.9,52.2,53.6,52,53"/>
					<path id="Fill-365" class="st4" d="M57.8,49.8c0.6-0.1,1.1,0.2,1.2,0.7c0.1,0.5-0.2,1.1-0.8,1.2c-0.5,0.1-1.1-0.2-1.2-0.7       C56.9,50.5,57.2,50,57.8,49.8"/>
					<path id="Fill-367" class="st4" d="M62,50c-0.1-0.6,0.2-1.1,0.8-1.2c0.5-0.1,1.1,0.2,1.2,0.7c0.1,0.5-0.2,1.1-0.7,1.2       C62.7,50.9,62.2,50.6,62,50"/>
					<path id="Fill-369" class="st4" d="M67,49c-0.1-0.6,0.2-1,0.8-1.2c0.5-0.1,1.1,0.2,1.2,0.8c0.1,0.5-0.2,1.1-0.8,1.2       C67.7,49.9,67.2,49.6,67,49"/>
					<path id="Fill-371" class="st4" d="M63,55c-0.1-0.6,0.2-1.1,0.8-1.2c0.5-0.1,1.1,0.2,1.2,0.7c0.1,0.5-0.2,1.1-0.7,1.2       C63.7,55.9,63.2,55.6,63,55"/>
					<path id="Fill-373" class="st4" d="M31,60c-0.1-0.6,0.2-1.1,0.8-1.2c0.5-0.1,1.1,0.2,1.2,0.8c0.1,0.5-0.2,1.1-0.7,1.2       C31.7,60.9,31.2,60.6,31,60"/>
					<path id="Fill-375" class="st4" d="M36,59c-0.1-0.6,0.2-1.1,0.8-1.2c0.5-0.1,1.1,0.2,1.2,0.8c0.1,0.5-0.2,1.1-0.7,1.2       C36.7,59.9,36.2,59.6,36,59"/>
					<path id="Fill-377" class="st4" d="M41.8,56.9c0.6-0.1,1.1,0.2,1.2,0.7c0.1,0.5-0.2,1.1-0.7,1.2c-0.6,0.1-1.1-0.2-1.2-0.7       C40.9,57.5,41.2,57,41.8,56.9"/>
					<path id="Fill-379" class="st4" d="M46.8,55.9c0.6-0.1,1.1,0.2,1.2,0.7c0.1,0.5-0.2,1.1-0.7,1.2c-0.5,0.1-1.1-0.2-1.2-0.7       C45.9,56.5,46.2,56,46.8,55.9"/>
					<path id="Fill-381" class="st4" d="M51.8,54.8c0.6-0.1,1.1,0.2,1.2,0.7c0.1,0.5-0.2,1.1-0.8,1.2c-0.6,0.1-1.1-0.2-1.2-0.7       C50.9,55.5,51.2,55,51.8,54.8"/>
					<path id="Fill-383" class="st4" d="M55,54c-0.1-0.6,0.2-1.1,0.8-1.2c0.5-0.1,1.1,0.2,1.2,0.7c0.1,0.5-0.2,1.1-0.7,1.2       C55.7,54.9,55.2,54.6,55,54"/>
					<path id="Fill-385" class="st4" d="M60,53c-0.1-0.6,0.2-1,0.8-1.2c0.5-0.1,1.1,0.2,1.2,0.8c0.1,0.5-0.2,1.1-0.8,1.2       C60.7,53.9,60.2,53.6,60,53"/>
					<path id="Fill-387" class="st4" d="M65.8,50.9c0.6-0.1,1.1,0.2,1.2,0.7c0.1,0.5-0.2,1.1-0.7,1.2c-0.5,0.1-1.1-0.2-1.2-0.7       C64.9,51.5,65.2,51,65.8,50.9"/>
					<path id="Fill-389" class="st4" d="M70,51c-0.1-0.6,0.2-1.1,0.8-1.2c0.5-0.1,1.1,0.2,1.2,0.7c0.1,0.5-0.2,1.1-0.7,1.2       C70.7,51.9,70.2,51.6,70,51"/>
					<path id="Fill-391" class="st4" d="M58,56c-0.1-0.6,0.2-1.1,0.7-1.2c0.6-0.1,1.1,0.2,1.2,0.7c0.1,0.5-0.2,1.1-0.7,1.2       C58.7,56.9,58.2,56.6,58,56"/>
					<path id="Fill-393" class="st4" d="M39.8,59.8c0.6-0.1,1.1,0.2,1.2,0.7c0.1,0.5-0.2,1.1-0.8,1.2c-0.6,0.1-1-0.2-1.2-0.7       C38.9,60.5,39.2,60,39.8,59.8"/>
					<path id="Fill-395" class="st4" d="M44.8,58.8c0.6-0.1,1.1,0.2,1.2,0.7c0.1,0.5-0.2,1.1-0.8,1.2c-0.6,0.1-1-0.2-1.2-0.8       C43.9,59.5,44.2,59,44.8,58.8"/>
					<path id="Fill-397" class="st4" d="M49,59c-0.1-0.6,0.2-1,0.8-1.2c0.5-0.1,1.1,0.2,1.2,0.8c0.1,0.5-0.2,1.1-0.8,1.2       C49.7,59.9,49.2,59.6,49,59"/>
					<path id="Fill-399" class="st4" d="M54,57c-0.1-0.6,0.2-1.1,0.8-1.2c0.5-0.1,1.1,0.2,1.2,0.7c0.1,0.5-0.2,1.1-0.7,1.2       C54.7,57.9,54.2,57.6,54,57"/>
					<path id="Fill-401" class="st4" d="M24.8,29.8c0.6-0.1,1.1,0.2,1.2,0.7c0.1,0.5-0.2,1.1-0.7,1.2c-0.5,0.1-1.1-0.2-1.2-0.7       C23.9,30.5,24.2,30,24.8,29.8"/>
					<path id="Fill-403" class="st4" d="M72,48c-0.1-0.6,0.1-1,0.4-1.2c0.3-0.1,0.6,0.2,0.6,0.7c0,0.5-0.1,1.1-0.4,1.2       C72.3,48.9,72.1,48.6,72,48"/>
					<path id="Fill-405" class="st4" d="M34,62c-0.1-0.6,0.2-1.1,0.8-1.2c0.5-0.1,1.1,0.2,1.2,0.8c0.1,0.5-0.2,1.1-0.7,1.2       C34.8,62.9,34.1,62.5,34,62"/>
					<path id="Fill-407" class="st4" d="M73.4,38.8c0.3-0.1,0.5,0.1,0.6,0.6c0.1,0.7,0,1.2-0.3,1.4c-0.3,0.1-0.6-0.2-0.6-0.7       C72.9,39.5,73.1,39,73.4,38.8"/>
					<path id="Fill-409" class="st4" d="M44.8,16.9c0.6-0.1,1.1,0.2,1.2,0.7c0.1,0.5-0.2,1.1-0.8,1.2c-0.6,0.1-1.1-0.2-1.2-0.8       c0-0.1,0-0.2,0.1-0.3c0.1,0,0.1-0.1,0.1-0.2C44.3,17,44.3,17,44.8,16.9"/>
					<path id="Fill-411" class="st4" d="M11.3,59.8c-0.1,0-0.3,0-0.4,0c-0.6,0-1-0.3-0.8-0.6c0.2-0.3,0.7-0.5,1.2-0.4       c0.5,0.1,0.8,0.4,0.7,0.7C11.9,59.8,11.6,59.7,11.3,59.8"/>
					<path id="Fill-413" class="st4" d="M65,19c-0.1-0.5,0.1-1.1,0.4-1.1c0.1,0,0.1,0,0.2,0.2c0.1,0.3,0.2,0.7,0.3,1       c0.1,0.2,0,0.3,0,0.4c-0.1,0.3-0.3,0.5-0.6,0.4C65.2,19.7,65.1,19.4,65,19"/>
					<path id="Fill-415" class="st4" d="M13,44.2c0.1,0.2-0.1,0.5-0.3,0.6c-0.2,0.1-0.5,0-0.6-0.2c-0.1-0.1-0.1-0.2,0-0.2       c0.1-0.1,0.2-0.3,0.3-0.4c0.1-0.2,0.3-0.2,0.4,0C12.9,44,13,44.1,13,44.2"/>
					<path id="Fill-417" class="st4" d="M63.4,61.8c0.2,0,0.3,0,0.4,0.1c0.2,0.2,0.2,0.4,0,0.6c-0.2,0.1-0.3,0.2-0.5,0.3       c-0.1,0.1-0.2,0-0.3-0.1C62.9,62.4,63,61.9,63.4,61.8"/>
					<path id="Fill-419" class="st4" d="M40.7,18.8c0.2-0.1,0.3,0,0.3,0.2c0,0.3-0.1,0.7-0.4,0.7c-0.3,0.1-0.5-0.2-0.6-0.5       c0-0.1,0-0.2,0.1-0.2c0.1,0,0.2-0.1,0.3-0.1C40.5,18.9,40.6,18.9,40.7,18.8"/>
					<path id="Fill-421" class="st4" d="M6.4,61.7c-0.4,0-0.7,0.1-1.1,0.1c-0.2,0-0.3,0-0.3-0.1c-0.2-0.3,0.1-0.7,0.7-0.8       C6.3,60.8,6.9,61,7,61.3c0.1,0.2,0,0.3-0.3,0.3C6.6,61.6,6.5,61.7,6.4,61.7"/>
					<path id="Fill-423" class="st4" d="M48.7,66c0.6-0.1,1.1,0.1,1.2,0.5c0,0.1,0,0.2-0.3,0.2c-0.5,0-1,0-1.5-0.1       c-0.3,0-0.3-0.1-0.2-0.2C48.2,66.2,48.4,66,48.7,66"/>
					<path id="Fill-425" class="st4" d="M39,63.4C39,63.4,39,63.4,39,63.4c0,0.3,0,0.4-0.2,0.3c-0.2-0.1-0.4-0.2-0.7-0.3       c-0.1,0-0.1-0.1-0.1-0.2c0.1-0.2,0.3-0.3,0.5-0.3C38.8,62.9,38.9,63.1,39,63.4"/>
					<path id="Fill-427" class="st4" d="M1.6,62.6c-0.1,0-0.3,0.1-0.4,0.1c-0.1,0-0.1,0-0.1-0.2C1,62.3,1.2,62,1.4,62       c0.2-0.1,0.5,0.1,0.6,0.4c0,0.1,0,0.2-0.1,0.2C1.8,62.5,1.7,62.6,1.6,62.6"/>
					<path id="Fill-429" class="st4" d="M69.1,25.4c-0.1-0.2,0-0.3,0.1-0.5c0.1-0.1,0.2-0.1,0.2,0c0.1,0.2,0.3,0.5,0.4,0.7       c0.1,0.1,0,0.2-0.2,0.2C69.4,25.8,69.2,25.7,69.1,25.4"/>
					<path id="Fill-431" class="st4" d="M14.5,41.8C14.5,41.8,14.4,41.8,14.5,41.8c-0.2,0-0.3,0-0.4-0.1c-0.1-0.1,0.1-0.2,0.1-0.3       c0.1-0.2,0.3-0.4,0.5-0.5c0.1-0.2,0.2-0.1,0.3,0C15.1,41.3,14.9,41.7,14.5,41.8"/>
					<path id="Fill-433" class="st4" d="M24.3,59c0.3-0.1,0.6,0.1,0.7,0.4c0,0.1,0,0.2-0.1,0.2c-0.3-0.1-0.5-0.1-0.8-0.1       c-0.1,0-0.1-0.1-0.1-0.1C24.1,59.2,24.2,59.1,24.3,59"/>
					<path id="Fill-435" class="st4" d="M27.5,28.7C27.4,28.7,27.4,28.7,27.5,28.7c-0.2,0-0.4,0-0.4-0.1c-0.1-0.1,0.1-0.2,0.2-0.2       c0.2-0.2,0.3-0.3,0.5-0.4c0,0,0.1-0.1,0.2-0.1c0.1,0,0.1,0.1,0.1,0.2C28,28.4,27.8,28.7,27.5,28.7"/>
					<path id="Fill-437" class="st4" d="M50.6,9.5c-0.2,0.1-0.5,0-0.6-0.2C50,9.2,50,9.1,50.1,9.1c0.3,0,0.5,0,0.8,0       C51,9.1,51,9.2,51,9.3C50.9,9.4,50.8,9.5,50.6,9.5"/>
					<path id="Stroke-439" class="st1" d="M58,3.8c-31.8,8.2-55,64-55,64"/>
					<path id="Stroke-441" class="st1" d="M28,26.2c4-6.4,12.4-8.3,18.7-4.2c6.3,4,8.2,12.5,4.2,18.9"/>
					<path id="Stroke-443" class="st1" d="M121.3,45.2c0.7,0.6,1,1.5,0.5,2.1c-0.4,0.6-1.3,0.6-2.1,0c-0.7-0.6-1-1.5-0.5-2.1       C119.6,44.7,120.5,44.7,121.3,45.2z"/>
					<path id="Stroke-445" class="st1" d="M122,20.8c-4.4-2.9-8.4-6.2-12-10"/>
					<path id="Stroke-447" class="st1" d="M132,25.8l-1.3-0.4c-1.1-0.4-0.6-0.2-1.7-0.6"/>
					<path id="Fill-449" class="st0" d="M119,28.2l-4.9-1.4c-5-1.1-9.5-3.7-12.9-7.5L99,16.8l-11,8.3l4.8,4.6       c4.2,4.1,7.5,6.8,12.4,8.2l5.8,1.9L119,28.2z"/>
					<path id="Stroke-451" class="st1" d="M105.7,31.6c-1.4,1.3-3.2,1.6-4.2,0.6c-0.9-1-0.5-2.9,0.8-4.2c1.4-1.3,3.2-1.6,4.2-0.6       C107.4,28.4,107,30.3,105.7,31.6z"/>
					<path id="Fill-453" class="st0" d="M108.4,57.8L95,58.2l0.1,0.9c0.9,7.1-0.2,14.3-3.3,20.8L91,81.8l13,2l1.4-3.1       C108.8,73.6,109.8,65.6,108.4,57.8"/>
					<line id="Stroke-455" class="st1" x1="123.6" y1="75.8" x2="123.4" y2="76.8"/>
					<path id="Stroke-457" class="st1" d="M123,55.8L123,55.8c2,5.2,2.5,10.6,1.6,16"/>
					<g id="Group-461" transform="translate(128.000000, 27.818182)">
						<g id="Clip-460">
						</g>
						<defs>
							<filter id="Adobe_OpacityMaskFilter" filterUnits="userSpaceOnUse" x="0.6" y="0" width="21.8" height="30.8">
								<feColorMatrix type="matrix" values="1 0 0 0 0  0 1 0 0 0  0 0 1 0 0  0 0 0 1 0"/>
							</filter>
						</defs>
						<mask maskUnits="userSpaceOnUse" x="0.6" y="0" width="21.8" height="30.8" id="mask-2_1_">
							<g class="st5">
								<polygon id="path-1_1_" class="st6" points="0.6,0 22.4,0 22.4,30.9 0.6,30.9         "/>
							</g>
						</mask>
						<path id="Fill-459" class="st7" d="M13,0L0.6,4.9c5.2,6.9,8.7,14.9,10.1,23.4l0.4,2.6l11.3-5.1L22,22.9        c-1.2-8.1-4.1-15.7-8.7-22.5L13,0z"/>
					</g>
					<path id="Fill-462" class="st4" d="M90.1,83.6c0.1-0.2,0.2-0.4,0.3-0.6c0.1-0.2,0.2-0.2,0.3-0.1c0.1,0.1,0.2,0.2,0.2,0.4       c0.1,0.3,0,0.4-0.3,0.4C90.4,83.7,90.3,83.7,90.1,83.6C90.1,83.7,90.1,83.6,90.1,83.6"/>
					<path id="Fill-464" class="st4" d="M148.8,44.8c-0.3,0-0.5-0.1-0.6-0.4c-0.1-0.2,0-0.5,0.3-0.6       C148.6,44.2,148.7,44.5,148.8,44.8"/>
					<path id="Fill-466" class="st4" d="M103.7,27.9c0.5-0.2,1,0.1,1.2,0.7c0.2,0.5-0.1,1.1-0.7,1.2c-0.6,0.2-1.1-0.1-1.3-0.7       C102.9,28.5,103.2,28,103.7,27.9"/>
					<path id="Fill-468" class="st4" d="M107.3,39.8c-0.6,0.2-1.1-0.1-1.3-0.6c-0.2-0.5,0.1-1.1,0.7-1.3c0.5-0.2,1.1,0.1,1.2,0.7       C108.1,39.1,107.9,39.6,107.3,39.8"/>
					<path id="Fill-470" class="st4" d="M97.3,79.8c-0.6,0.2-1.1-0.1-1.3-0.6c-0.2-0.5,0.1-1.1,0.7-1.3c0.5-0.2,1.1,0.1,1.2,0.7       C98.1,79.1,97.9,79.6,97.3,79.8"/>
					<path id="Fill-472" class="st4" d="M106.3,71.8c-0.5,0.1-1.1-0.2-1.2-0.7c-0.1-0.6,0.2-1.1,0.7-1.2c0.5-0.1,1,0.2,1.2,0.7       C107.1,71.1,106.8,71.6,106.3,71.8"/>
					<path id="Fill-474" class="st4" d="M104.3,66.8c-0.6,0.2-1.1-0.1-1.3-0.7c-0.2-0.5,0.1-1.1,0.7-1.2c0.5-0.2,1.1,0.1,1.2,0.7       C105.1,66.1,104.8,66.6,104.3,66.8"/>
					<path id="Fill-476" class="st4" d="M103.3,61.8c-0.6,0.2-1.1-0.1-1.3-0.7c-0.2-0.6,0.1-1.1,0.7-1.2c0.5-0.2,1,0.1,1.2,0.7       C104.1,61.1,103.8,61.6,103.3,61.8"/>
					<path id="Fill-478" class="st4" d="M92.3,27.8c-0.6,0.2-1.1-0.1-1.3-0.7c-0.2-0.6,0.1-1.1,0.7-1.2c0.5-0.2,1.1,0.1,1.2,0.7       C93.1,27.1,92.8,27.6,92.3,27.8"/>
					<path id="Fill-480" class="st4" d="M100,83.6c0.2,0.5-0.1,1.1-0.7,1.2c-0.5,0.2-1.1-0.1-1.2-0.7c-0.2-0.6,0.1-1.1,0.7-1.2       C99.3,82.7,99.8,83,100,83.6"/>
					<path id="Fill-482" class="st4" d="M105.3,34.8c-0.6,0.2-1.1-0.1-1.3-0.7c-0.2-0.6,0.1-1.1,0.7-1.2c0.5-0.2,1.1,0.1,1.2,0.7       C106.1,34.1,105.8,34.6,105.3,34.8"/>
					<path id="Fill-484" class="st4" d="M102.3,24.8c-0.6,0.2-1.1-0.1-1.3-0.7c-0.2-0.6,0.1-1.1,0.7-1.2c0.5-0.2,1.1,0.1,1.2,0.7       C103.1,24.1,102.8,24.6,102.3,24.8"/>
					<path id="Fill-486" class="st4" d="M95.7,72.9c0.5-0.2,1.1,0.1,1.2,0.7c0.2,0.5-0.1,1.1-0.7,1.2c-0.6,0.2-1.1-0.1-1.3-0.7       C94.9,73.6,95.2,73,95.7,72.9"/>
					<path id="Fill-488" class="st4" d="M115.3,31.8c-0.6,0.2-1.1-0.1-1.3-0.7c-0.2-0.6,0.1-1.1,0.7-1.2c0.5-0.2,1,0.1,1.2,0.7       C116.1,31.1,115.8,31.6,115.3,31.8"/>
					<path id="Fill-490" class="st4" d="M144.3,54.8c-0.6,0.2-1.1-0.1-1.3-0.6c-0.2-0.5,0.1-1.1,0.7-1.3c0.5-0.2,1.1,0.1,1.2,0.7       C145.1,54.1,144.8,54.6,144.3,54.8"/>
					<path id="Fill-492" class="st4" d="M142.3,50.8c-0.6,0.2-1.1-0.1-1.3-0.7c-0.2-0.6,0.1-1.1,0.7-1.2c0.5-0.2,1.1,0.1,1.2,0.7       C143.1,50.1,142.8,50.6,142.3,50.8"/>
					<path id="Fill-494" class="st4" d="M138.3,35.8c-0.6,0.2-1.1-0.1-1.3-0.7c-0.2-0.5,0.1-1.1,0.7-1.3c0.5-0.2,1.1,0.1,1.2,0.7       C139.1,35.1,138.8,35.6,138.3,35.8"/>
					<path id="Fill-496" class="st4" d="M139.3,40.8c-0.6,0.2-1.1-0.1-1.3-0.7c-0.2-0.6,0.1-1.1,0.7-1.2c0.5-0.2,1,0.1,1.2,0.7       C140.1,40.1,139.8,40.6,139.3,40.8"/>
					<path id="Fill-498" class="st4" d="M141.3,45.8c-0.6,0.2-1.1-0.1-1.3-0.7c-0.2-0.5,0.1-1.1,0.7-1.2c0.5-0.2,1.1,0.1,1.2,0.7       C142.1,45.1,141.8,45.6,141.3,45.8"/>
					<path id="Fill-500" class="st4" d="M148,55.5c0.2,0.5-0.1,1.1-0.6,1.2c-0.6,0.2-1.1-0.1-1.3-0.7c-0.2-0.5,0.1-1.1,0.7-1.2       C147.3,54.7,147.8,55,148,55.5"/>
					<path id="Fill-502" class="st4" d="M147,50.5c0.2,0.5-0.1,1.1-0.7,1.2c-0.6,0.2-1.1-0.1-1.3-0.7c-0.2-0.5,0.1-1.1,0.7-1.2       C146.3,49.7,146.8,50,147,50.5"/>
					<path id="Fill-504" class="st4" d="M134.8,31.9c0.5-0.2,1,0.1,1.2,0.7c0.2,0.5-0.1,1.1-0.7,1.2c-0.6,0.2-1.1-0.1-1.3-0.7       C133.9,32.5,134.2,32,134.8,31.9"/>
					<path id="Fill-506" class="st4" d="M136.3,38.8c-0.6,0.2-1.1-0.1-1.3-0.7c-0.2-0.5,0.1-1.1,0.7-1.2c0.5-0.2,1,0.1,1.2,0.7       C137.1,38.1,136.8,38.6,136.3,38.8"/>
					<path id="Fill-508" class="st4" d="M138.3,43.8c-0.6,0.2-1.1-0.1-1.3-0.7c-0.2-0.5,0.1-1.1,0.7-1.2c0.5-0.2,1,0.1,1.2,0.7       C139.1,43.1,138.8,43.6,138.3,43.8"/>
					<path id="Fill-510" class="st4" d="M140,47.6c0.2,0.5-0.1,1.1-0.7,1.2c-0.6,0.2-1.1-0.1-1.3-0.7c-0.2-0.5,0.2-1.1,0.7-1.2       C139.3,46.7,139.8,47,140,47.6"/>
					<path id="Fill-512" class="st4" d="M141.3,53.8c-0.6,0.2-1.1-0.1-1.3-0.7c-0.2-0.5,0.1-1.1,0.7-1.2c0.5-0.2,1.1,0.1,1.2,0.7       C142.1,53.1,141.8,53.6,141.3,53.8"/>
					<path id="Fill-514" class="st4" d="M142.3,58.8c-0.6,0.2-1.1-0.1-1.3-0.7c-0.2-0.5,0.1-1.1,0.7-1.2c0.5-0.2,1.1,0.1,1.2,0.7       C143.1,58.1,142.8,58.6,142.3,58.8"/>
					<path id="Fill-516" class="st4" d="M132.7,34.9c0.5-0.2,1.1,0.1,1.2,0.7c0.2,0.5-0.1,1.1-0.6,1.2c-0.6,0.2-1.1-0.1-1.3-0.6       S132.2,35,132.7,34.9"/>
					<path id="Fill-518" class="st4" d="M134.3,41.8c-0.6,0.2-1.1-0.1-1.3-0.6s0.1-1.1,0.7-1.3c0.5-0.2,1.1,0.1,1.2,0.7       C135.1,41.1,134.8,41.6,134.3,41.8"/>
					<path id="Fill-520" class="st4" d="M109.7,38.9c0.5-0.2,1.1,0.1,1.2,0.7c0.2,0.5-0.1,1.1-0.6,1.2c-0.6,0.2-1.1-0.1-1.3-0.6       C108.9,39.6,109.2,39,109.7,38.9"/>
					<path id="Fill-522" class="st4" d="M100.7,79.9c0.5-0.2,1.1,0.1,1.2,0.7c0.2,0.5-0.1,1.1-0.6,1.2c-0.6,0.2-1.1-0.1-1.3-0.7       C99.9,80.6,100.2,80,100.7,79.9"/>
					<path id="Fill-524" class="st4" d="M100,75.5c0.2,0.5-0.1,1.1-0.7,1.2c-0.6,0.2-1.1-0.1-1.3-0.7c-0.2-0.5,0.1-1.1,0.7-1.2       C99.3,74.7,99.8,75,100,75.5"/>
					<path id="Fill-526" class="st4" d="M96.3,83.8c-0.6,0.2-1.1-0.1-1.3-0.7c-0.2-0.5,0.1-1.1,0.7-1.3c0.5-0.2,1.1,0.1,1.2,0.7       C97.1,83.1,96.8,83.6,96.3,83.8"/>
					<path id="Fill-528" class="st4" d="M98.3,71.8c-0.6,0.2-1.1-0.1-1.3-0.7c-0.2-0.5,0.2-1.1,0.7-1.2c0.5-0.2,1,0.1,1.2,0.7       C99.1,71.1,98.8,71.6,98.3,71.8"/>
					<path id="Fill-530" class="st4" d="M145,45.5c0.2,0.5-0.1,1.1-0.7,1.2c-0.6,0.2-1.1-0.1-1.3-0.7c-0.2-0.5,0.1-1.1,0.7-1.2       C144.3,44.7,144.8,45,145,45.5"/>
					<path id="Fill-532" class="st4" d="M112.3,29.8c-0.6,0.2-1.1-0.1-1.3-0.6c-0.2-0.5,0.1-1.1,0.7-1.3c0.5-0.2,1.1,0.1,1.2,0.7       C113.1,29.1,112.9,29.6,112.3,29.8"/>
					<path id="Fill-534" class="st4" d="M113.3,34.8c-0.6,0.2-1.1-0.1-1.3-0.7c-0.2-0.5,0.1-1.1,0.7-1.2c0.5-0.2,1.1,0.1,1.2,0.7       C114.1,34.1,113.8,34.6,113.3,34.8"/>
					<path id="Fill-536" class="st4" d="M95.7,64.9c0.5-0.2,1.1,0.1,1.2,0.7c0.2,0.5-0.1,1.1-0.6,1.2c-0.6,0.2-1.1-0.1-1.3-0.6       C94.9,65.6,95.2,65,95.7,64.9"/>
					<path id="Fill-538" class="st4" d="M109.8,30.9c0.5-0.1,1,0.2,1.2,0.7c0.2,0.5-0.1,1.1-0.7,1.2c-0.6,0.2-1.1-0.1-1.2-0.7       C108.9,31.5,109.2,31,109.8,30.9"/>
					<path id="Fill-540" class="st4" d="M111.7,35.9c0.5-0.2,1.1,0.1,1.2,0.7c0.2,0.5-0.1,1.1-0.6,1.2c-0.6,0.2-1.1-0.1-1.3-0.6       C110.9,36.6,111.2,36,111.7,35.9"/>
					<path id="Fill-542" class="st4" d="M105.3,26.8c-0.6,0.2-1.1-0.1-1.3-0.7c-0.2-0.5,0.1-1.1,0.7-1.2c0.5-0.2,1.1,0.1,1.2,0.7       C106.1,26.1,105.8,26.6,105.3,26.8"/>
					<path id="Fill-544" class="st4" d="M107.3,30.8c-0.6,0.2-1.1-0.1-1.3-0.7c-0.2-0.5,0.1-1.1,0.7-1.3c0.5-0.2,1.1,0.1,1.2,0.7       C108.1,30.1,107.8,30.6,107.3,30.8"/>
					<path id="Fill-546" class="st4" d="M107.7,33.9c0.5-0.2,1.1,0.1,1.2,0.7c0.2,0.5-0.1,1.1-0.6,1.2c-0.6,0.2-1.1-0.1-1.3-0.7       C106.9,34.6,107.2,34,107.7,33.9"/>
					<path id="Fill-548" class="st4" d="M142.7,39.9c0.5-0.2,1,0.1,1.2,0.7c0.2,0.5-0.1,1.1-0.7,1.2c-0.6,0.2-1.1-0.1-1.3-0.7       C141.9,40.6,142.2,40,142.7,39.9"/>
					<path id="Fill-550" class="st4" d="M142,35.5c0.2,0.5-0.1,1.1-0.7,1.2c-0.6,0.2-1.1-0.1-1.3-0.7c-0.2-0.5,0.1-1.1,0.7-1.2       C141.3,34.7,141.8,35,142,35.5"/>
					<path id="Fill-552" class="st4" d="M94.3,78.8c-0.5,0.1-1.1-0.2-1.2-0.7c-0.1-0.5,0.2-1.1,0.7-1.2c0.5-0.1,1,0.2,1.2,0.7       C95.1,78.1,94.8,78.6,94.3,78.8"/>
					<path id="Fill-554" class="st4" d="M139.7,29.9c0.5-0.2,1.1,0.1,1.2,0.7c0.2,0.5-0.1,1.1-0.7,1.2c-0.6,0.2-1.1-0.1-1.3-0.7       C138.9,30.6,139.2,30,139.7,29.9"/>
					<path id="Fill-556" class="st4" d="M148.7,51.9c0.5-0.2,1.1,0.1,1.2,0.7c0.2,0.5-0.1,1.1-0.6,1.2c-0.6,0.2-1.1-0.1-1.3-0.7       C147.9,52.6,148.2,52,148.7,51.9"/>
					<path id="Fill-558" class="st4" d="M100,21.5c0.2,0.5-0.1,1.1-0.6,1.2c-0.6,0.2-1.1-0.1-1.3-0.7c-0.2-0.5,0.1-1.1,0.7-1.2       C99.3,20.7,99.8,21,100,21.5"/>
					<path id="Fill-560" class="st4" d="M102,26.5c0.2,0.5-0.1,1.1-0.6,1.2c-0.6,0.2-1.1-0.1-1.3-0.7c-0.2-0.5,0.1-1.1,0.7-1.3       C101.3,25.7,101.8,26,102,26.5"/>
					<path id="Fill-562" class="st4" d="M103,31.5c0.2,0.5-0.1,1.1-0.7,1.2c-0.6,0.2-1.1-0.1-1.3-0.7c-0.2-0.5,0.1-1.1,0.7-1.2       C102.3,30.7,102.8,31,103,31.5"/>
					<path id="Fill-564" class="st4" d="M103.3,37.8c-0.6,0.2-1.1-0.1-1.3-0.7c-0.2-0.5,0.1-1.1,0.7-1.2c0.5-0.2,1.1,0.1,1.2,0.7       C104.1,37.1,103.8,37.6,103.3,37.8"/>
					<path id="Fill-566" class="st4" d="M97.3,25.8c-0.6,0.2-1.1-0.1-1.3-0.6c-0.2-0.5,0.1-1.1,0.7-1.3c0.5-0.2,1.1,0.1,1.2,0.7       C98.1,25.1,97.8,25.6,97.3,25.8"/>
					<path id="Fill-568" class="st4" d="M98.7,28.9c0.5-0.2,1.1,0.1,1.2,0.7c0.2,0.5-0.1,1.1-0.7,1.2c-0.6,0.2-1.1-0.1-1.3-0.7       C97.9,29.6,98.2,29,98.7,28.9"/>
					<path id="Fill-570" class="st4" d="M99.7,33.9c0.5-0.2,1.1,0.1,1.2,0.7c0.2,0.5-0.1,1.1-0.6,1.2c-0.6,0.2-1.1-0.1-1.3-0.7       C98.9,34.6,99.2,34,99.7,33.9"/>
					<path id="Fill-572" class="st4" d="M104.3,83.8c-0.6,0.2-1.1-0.1-1.3-0.6c-0.2-0.5,0.1-1.1,0.7-1.3c0.5-0.2,1.1,0.1,1.2,0.7       C105.1,83.1,104.8,83.6,104.3,83.8"/>
					<path id="Fill-574" class="st4" d="M94.3,24.8c-0.6,0.2-1.1-0.1-1.3-0.7c-0.2-0.5,0.1-1.1,0.7-1.2c0.5-0.2,1,0.1,1.2,0.7       C95.1,24.1,94.8,24.6,94.3,24.8"/>
					<path id="Fill-576" class="st4" d="M96.3,28.8c-0.6,0.2-1.1-0.1-1.3-0.7c-0.2-0.5,0.1-1.1,0.7-1.2c0.5-0.2,1.1,0.1,1.2,0.7       C97.1,28.1,96.8,28.6,96.3,28.8"/>
					<path id="Fill-578" class="st4" d="M96.7,31.9c0.5-0.2,1.1,0.1,1.2,0.7c0.2,0.5-0.1,1.1-0.6,1.2c-0.6,0.2-1.1-0.1-1.3-0.6       S96.2,32,96.7,31.9"/>
					<path id="Fill-580" class="st4" d="M107,62.6c0.2,0.5-0.1,1.1-0.7,1.2c-0.6,0.2-1.1-0.1-1.3-0.7c-0.2-0.5,0.2-1.1,0.7-1.2       C106.3,61.7,106.8,62,107,62.6"/>
					<path id="Fill-582" class="st4" d="M107.7,66.9c0.5-0.2,1.1,0.1,1.2,0.7c0.2,0.5-0.1,1.1-0.7,1.2c-0.6,0.2-1.1-0.1-1.3-0.7       C106.9,67.6,107.2,67,107.7,66.9"/>
					<path id="Fill-584" class="st4" d="M147.3,48.8c-0.6,0.2-1.1-0.1-1.3-0.7c-0.2-0.5,0.1-1.1,0.7-1.2c0.5-0.2,1.1,0.1,1.2,0.7       C148.1,48.1,147.8,48.6,147.3,48.8"/>
					<path id="Fill-586" class="st4" d="M101.7,76.9c0.5-0.2,1.1,0.1,1.2,0.7c0.2,0.5-0.1,1.1-0.7,1.2c-0.6,0.2-1.1-0.1-1.3-0.7       C100.9,77.6,101.2,77,101.7,76.9"/>
					<path id="Fill-588" class="st4" d="M145.7,41.9c0.5-0.2,1.1,0.1,1.2,0.7c0.2,0.5-0.1,1.1-0.6,1.2c-0.6,0.2-1.1-0.1-1.3-0.6       C144.9,42.6,145.2,42,145.7,41.9"/>
					<path id="Fill-590" class="st4" d="M145,37.5c0.2,0.5-0.1,1.1-0.6,1.2c-0.6,0.2-1.1-0.1-1.3-0.7c-0.2-0.5,0.1-1.1,0.7-1.3       C144.3,36.7,144.8,37,145,37.5"/>
					<path id="Fill-592" class="st4" d="M144,32.5c0.2,0.5-0.1,1.1-0.7,1.2c-0.6,0.2-1.1-0.1-1.3-0.7c-0.2-0.5,0.1-1.1,0.7-1.2       C143.3,31.7,143.8,32,144,32.5"/>
					<path id="Fill-594" class="st4" d="M102,72.5c0.2,0.5-0.1,1.1-0.7,1.2c-0.6,0.2-1.1-0.1-1.3-0.7c-0.2-0.5,0.1-1.1,0.7-1.2       C101.3,71.7,101.8,72,102,72.5"/>
					<path id="Fill-596" class="st4" d="M100.7,63.9c0.5-0.2,1.1,0.1,1.2,0.7c0.2,0.5-0.1,1.1-0.7,1.2c-0.6,0.2-1.1-0.1-1.3-0.7       C99.9,64.6,100.2,64,100.7,63.9"/>
					<path id="Fill-598" class="st4" d="M103.3,70.8c-0.6,0.2-1.1-0.1-1.3-0.7c-0.2-0.5,0.1-1.1,0.7-1.3c0.5-0.2,1.1,0.1,1.2,0.7       C104.1,70.1,103.8,70.6,103.3,70.8"/>
					<path id="Fill-600" class="st4" d="M105,74.6c0.2,0.5-0.1,1.1-0.7,1.2c-0.6,0.2-1.1-0.1-1.3-0.7c-0.2-0.5,0.2-1.1,0.7-1.2       C104.3,73.7,104.8,74,105,74.6"/>
					<path id="Fill-602" class="st4" d="M106.3,80.8c-0.6,0.2-1.1-0.1-1.3-0.7c-0.2-0.5,0.2-1.1,0.7-1.2c0.5-0.2,1,0.1,1.2,0.7       C107.1,80.1,106.8,80.6,106.3,80.8"/>
					<path id="Fill-604" class="st4" d="M98.7,66.9c0.5-0.2,1.1,0.1,1.2,0.7c0.2,0.5-0.1,1.1-0.6,1.2c-0.6,0.2-1.1-0.1-1.3-0.7       C97.9,67.6,98.2,67,98.7,66.9"/>
					<path id="Fill-606" class="st4" d="M99,62.5c0.2,0.5-0.1,1.1-0.7,1.2c-0.6,0.2-1.1-0.1-1.3-0.7c-0.2-0.5,0.1-1.1,0.7-1.2       C98.3,61.7,98.8,62,99,62.5"/>
					<path id="Fill-608" class="st4" d="M109.3,27.8c-0.5,0.2-1.1-0.1-1.3-0.7c-0.1-0.5,0.1-1.1,0.6-1.2c0.4-0.1,1.2,0.3,1.3,0.7       C110.1,27.1,109.8,27.6,109.3,27.8"/>
					<path id="Fill-610" class="st4" d="M93.7,30.9c0.5-0.1,1,0.1,1.2,0.5c0.2,0.5,0.1,1.1-0.4,1.3c-0.2,0.1-0.4,0.1-0.6-0.1       c-0.2-0.2-0.5-0.5-0.7-0.7c-0.3-0.2-0.2-0.5-0.1-0.7C93.3,31,93.5,30.9,93.7,30.9"/>
					<path id="Fill-612" class="st4" d="M93,80.4c0.1,0.5,0,0.9-0.2,1.2c-0.2,0.3-0.4,0.3-0.6,0.1C92,81.6,92,81.5,92,81.2       c0.1-0.4,0.2-0.8,0.3-1.2c0-0.2,0.1-0.2,0.2-0.2C92.8,79.9,92.9,80.1,93,80.4"/>
					<path id="Fill-614" class="st4" d="M137,45.5c0.1,0.5-0.1,1.1-0.3,1.2c-0.1,0.1-0.2,0.1-0.3-0.2c-0.1-0.4-0.2-0.9-0.3-1.3       c-0.1-0.2,0-0.3,0.1-0.4C136.5,44.7,136.9,45,137,45.5"/>
					<path id="Fill-616" class="st4" d="M130,34c0.1,0.2,0,0.5-0.2,0.6c-0.2,0.2-0.4,0.2-0.6-0.1c-0.1-0.1-0.1-0.2-0.2-0.3       c-0.1-0.1,0-0.2,0.1-0.2c0.2-0.1,0.4-0.2,0.5-0.2C129.9,33.8,129.9,33.8,130,34"/>
					<path id="Fill-618" class="st4" d="M139.2,56.3c0-0.3-0.1-0.7-0.1-1.1c0-0.3,0.1-0.4,0.2-0.4c0.3,0,0.5,0.3,0.6,0.7       c0.1,0.5,0,0.9-0.3,1.1C139.4,56.9,139.3,56.9,139.2,56.3"/>
					<path id="Fill-620" class="st4" d="M107.6,74.9c0,0,0.1,0,0.1,0c0.2,0,0.3,0.1,0.2,0.5c-0.1,0.4-0.1,0.8-0.2,1.3       c-0.1,0.3-0.1,0.3-0.3,0.2c-0.2-0.2-0.4-0.6-0.4-1C107.1,75.3,107.2,75,107.6,74.9"/>
					<g id="Group-624" transform="translate(101.000000, 84.818182)">
						<g id="Clip-623">
						</g>
						<defs>
							<filter id="Adobe_OpacityMaskFilter_1_" filterUnits="userSpaceOnUse" x="0.2" y="0.2" width="1.7" height="0.8">
								<feColorMatrix type="matrix" values="1 0 0 0 0  0 1 0 0 0  0 0 1 0 0  0 0 0 1 0"/>
							</filter>
						</defs>
						<mask maskUnits="userSpaceOnUse" x="0.2" y="0.2" width="1.7" height="0.8" id="mask-4_1_">
							<g class="st8">
								<polygon id="path-3_1_" class="st6" points="0.2,0.1 1.9,0.1 1.9,1 0.2,1         "/>
							</g>
						</mask>
						<path id="Fill-622" class="st9" d="M1.8,0.7C1.9,1,1.9,1,1.5,1c-0.4,0-0.7-0.1-1.1-0.1c-0.2,0-0.2-0.1-0.2-0.2        C0.3,0.4,0.7,0.2,1,0.2C1.4,0.2,1.7,0.4,1.8,0.7"/>
					</g>
					<path id="Fill-625" class="st4" d="M107.1,60.3c-0.1-0.2,0-0.3,0.2-0.3c0.1,0,0.1,0,0.2,0c0.1,0,0.3-0.1,0.4,0       c0.1,0.2,0.1,0.4,0.1,0.6c0,0.1-0.1,0.1-0.1,0.1C107.5,60.8,107.2,60.6,107.1,60.3"/>
					<path id="Fill-627" class="st4" d="M137.3,50.3c0-0.1-0.1-0.2-0.1-0.4c0-0.1,0-0.1,0.1-0.1c0.3,0,0.5,0.2,0.6,0.4       s0,0.5-0.2,0.6c-0.1,0.1-0.2,0.1-0.2,0C137.4,50.6,137.3,50.5,137.3,50.3L137.3,50.3z"/>
					<path id="Fill-629" class="st4" d="M94.8,61.2c0.1,0.2,0,0.4-0.3,0.5c-0.2,0.1-0.2,0.1-0.3-0.1c0-0.2-0.1-0.5-0.1-0.7       c0-0.1,0-0.1,0.2-0.1C94.6,60.9,94.7,61,94.8,61.2"/>
					<path id="Fill-631" class="st4" d="M99.7,60.5c-0.2,0.1-0.5,0-0.6-0.2c-0.1-0.1-0.1-0.2,0.1-0.2c0.3,0,0.5,0,0.8,0       c0.1,0,0.1,0,0.1,0.1C99.9,60.4,99.8,60.5,99.7,60.5"/>
					<path id="Fill-633" class="st4" d="M147.3,40.3C147.3,40.3,147.3,40.3,147.3,40.3c0-0.2-0.1-0.4,0.1-0.4c0.1,0,0.1,0.2,0.2,0.3       c0.1,0.1,0.1,0.3,0.2,0.5c0,0,0,0.1,0,0.1c0,0-0.1,0-0.1,0C147.5,40.7,147.3,40.5,147.3,40.3"/>
					<path id="Fill-635" class="st4" d="M94.3,69.8c0-0.3,0.1-0.6,0.1-0.9c0,0,0-0.1,0-0.1c0.1,0,0.1,0,0.1,0.1       C94.8,69.2,94.7,69.6,94.3,69.8"/>
					<g id="Group-639" transform="translate(149.000000, 48.818182)">
						<g id="Clip-638">
						</g>
						<defs>
							<filter id="Adobe_OpacityMaskFilter_2_" filterUnits="userSpaceOnUse" x="1" y="0.5" width="0.3" height="0.9">
								<feColorMatrix type="matrix" values="1 0 0 0 0  0 1 0 0 0  0 0 1 0 0  0 0 0 1 0"/>
							</filter>
						</defs>
						<mask maskUnits="userSpaceOnUse" x="1" y="0.5" width="0.3" height="0.9" id="mask-6_1_">
							<g class="st10">
								<polygon id="path-5_1_" class="st6" points="0.7,0.4 1.5,0.4 1.5,1.4 0.7,1.4         "/>
							</g>
						</mask>
						<path id="Fill-637" class="st11" d="M1.4,1.4C1.1,1.2,0.9,0.8,1.1,0.6c0,0,0-0.1,0.1-0.1c0.1,0,0.1,0.1,0.1,0.1        C1.3,0.8,1.4,1.1,1.4,1.4"/>
					</g>
					<path id="Fill-640" class="st4" d="M140.2,60.5C140.2,60.5,140.2,60.6,140.2,60.5c-0.1-0.1-0.1-0.1-0.1-0.1       c0.1-0.2,0.4-0.3,0.6-0.3c0,0,0.1,0,0.1,0.1c0,0,0,0.1-0.1,0.1C140.6,60.3,140.4,60.4,140.2,60.5"/>
					<path id="Stroke-642" class="st1" d="M142.5,45.5c-1.8,0.7-3.8,0.1-4.4-1.4c-0.6-1.5,0.5-3.3,2.3-4c1.8-0.7,3.8-0.1,4.4,1.4       C145.4,43,144.4,44.8,142.5,45.5z"/>
					<path id="Stroke-644" class="st1" d="M101.4,73.8c-1.9-0.1-3.5-1.4-3.4-3.1c0-1.7,1.6-3,3.6-2.9c1.9,0.1,3.5,1.4,3.4,3.1       C105,72.6,103.4,73.9,101.4,73.8z"/>
					<path id="Stroke-646" class="st1" d="M87.8,44.8c-0.4,0.8-1.4,1.2-2.1,0.9c-0.7-0.3-0.9-1.1-0.5-1.9s1.4-1.2,2.1-0.9       C88,43.2,88.2,44.1,87.8,44.8z"/>
				</g>
			</g>
		</g>
	</g>
</g>
</svg>