<svg width="123" height="40" viewBox="0 0 123 40" fill="none" xmlns="http://www.w3.org/2000/svg">
<path d="M38.5693 0.913453C39.5274 0.628056 40.5874 0.628056 41.6679 0.811526C42.8298 0.994995 43.8899 1.30078 44.848 1.9735C44.848 2.85008 44.848 3.70627 44.848 4.68478C44.2772 4.19552 43.5841 3.8082 42.9114 3.5228C41.9533 3.13547 40.9748 2.95201 40.0166 3.03355C39.5274 3.03355 39.0585 3.13547 38.6712 3.42087C38.3858 3.60434 38.1819 3.8082 37.9985 4.09359C37.815 4.48092 37.815 4.86824 37.815 5.25557C37.815 5.54097 37.9985 5.82636 38.3043 6.13215C38.6916 6.41755 39.0789 6.6214 39.5682 6.80487C40.4447 7.09027 41.4029 7.4776 42.2794 7.76299C43.0541 8.04839 43.8287 8.43571 44.3995 9.02689C44.9703 9.51615 45.3577 10.2908 45.5615 11.0451C45.745 11.8197 45.745 12.6963 45.5615 13.4506C45.378 14.1233 44.9907 14.796 44.3995 15.2853C43.8287 15.7745 43.0541 16.1618 42.3814 16.3453C41.3213 16.6307 40.2613 16.6307 39.2012 16.5288C37.8558 16.3453 36.5919 16.0395 35.4299 15.2649C35.4299 14.3883 35.4299 13.4302 35.4299 12.5536C36.7753 13.6136 38.4266 14.2864 40.0574 14.2864C40.7301 14.2864 41.5048 14.1844 42.1775 13.899C42.5648 13.7156 42.8502 13.4098 43.0541 13.0225C43.2579 12.6351 43.2376 12.1459 43.0541 11.677C42.9522 11.2897 42.5648 10.9024 42.1775 10.7189C41.5048 10.3316 40.7301 10.1481 40.0574 9.84231C39.1808 9.55692 38.2227 9.27152 37.4481 8.78227C36.8773 8.39494 36.2861 8.00762 35.8988 7.3349C35.4095 6.56025 35.226 5.5002 35.328 4.54208C35.4299 3.6655 35.8172 2.80931 36.4899 2.21813C37.02 1.50463 37.7946 1.11731 38.5693 0.913453Z" fill="white"/>
<path d="M98.8108 1.58458C99.8708 0.911861 101.135 0.708008 102.276 0.708008C103.826 0.708008 105.375 1.09533 106.618 1.97191C106.618 2.84849 106.618 3.70468 106.618 4.68319C106.048 4.29586 105.456 3.90853 104.886 3.62314C103.826 3.13388 102.562 2.95042 101.42 3.13389C100.747 3.23581 100.075 3.52121 99.7689 4.09201C99.4835 4.76473 99.5854 5.64131 100.054 6.11017C100.544 6.4975 101.012 6.68097 101.604 6.88482C102.48 7.17022 103.336 7.55755 104.213 7.84295C104.988 8.12834 105.762 8.6176 106.333 9.18839C106.904 9.75919 107.21 10.4523 107.291 11.2066C107.393 12.0831 107.393 12.9393 107.006 13.714C106.72 14.3867 106.231 14.9779 105.66 15.3652C104.988 15.8545 104.111 16.1399 103.255 16.3233C102.093 16.5068 100.849 16.4253 99.6873 16.2214C98.7292 16.0379 97.7507 15.6506 96.9761 15.0594C96.9761 14.1828 96.9761 13.2247 96.9761 12.3482C98.0361 13.2247 99.1981 13.7955 100.544 13.9994C101.114 14.1013 101.706 14.1013 102.276 14.1013C102.847 14.1013 103.438 13.9178 103.928 13.612C104.315 13.3267 104.6 12.9393 104.702 12.552C104.804 12.0628 104.702 11.39 104.315 11.0027C104.029 10.6154 103.54 10.4319 103.153 10.228C102.48 9.94265 101.706 9.65726 100.931 9.4534C100.258 9.168 99.4835 8.96415 98.9127 8.57683C98.3419 8.1895 97.7507 7.80217 97.4653 7.12945C97.078 6.55866 96.8945 5.86555 96.8945 5.19283C96.8945 4.62203 96.8945 3.92892 97.1799 3.35813C97.5469 2.64463 98.1177 2.07384 98.8108 1.58458Z" fill="white"/>
<path d="M115.3 1.11877C115.972 0.833375 116.747 0.731445 117.522 0.731445C119.071 0.731445 120.702 1.11877 122.068 1.89342C122.17 1.89342 122.17 1.99535 122.17 1.99535C122.17 2.87193 122.17 3.72812 122.17 4.6047C121.599 4.11544 120.906 3.72812 120.151 3.44272C119.275 3.0554 118.317 2.95347 117.257 2.95347C116.767 2.95347 116.299 3.0554 115.809 3.34079C115.524 3.52426 115.238 3.83005 115.137 4.11545C114.851 4.78817 115.035 5.56282 115.626 6.05207C116.197 6.54132 116.971 6.72479 117.746 7.01019C118.623 7.29559 119.479 7.58099 120.253 7.96831C121.028 8.35564 121.701 8.84489 122.19 9.51761C122.679 10.2923 122.965 11.1688 122.965 12.025C122.965 12.7997 122.781 13.6763 122.292 14.2471C121.803 14.9198 121.13 15.409 120.457 15.7964C119.683 16.1837 118.806 16.2856 117.95 16.3671C116.992 16.3671 116.013 16.3672 115.055 16.0818C114.178 15.8983 113.322 15.511 112.65 15.0217C112.65 14.1451 112.65 13.187 112.65 12.3104C113.995 13.3705 115.646 14.0432 117.379 14.0432C118.154 14.0432 118.928 13.9413 119.499 13.6559C119.886 13.4724 120.172 13.1666 120.274 12.7793C120.457 12.29 120.457 11.8212 120.274 11.4339C120.09 11.0465 119.784 10.6592 119.397 10.4757C118.724 10.0884 117.95 9.80301 117.175 9.59916C116.299 9.31376 115.442 9.02836 114.566 8.53911C113.893 8.15178 113.302 7.66253 112.915 6.9898C112.527 6.31708 112.344 5.4405 112.425 4.66585C112.425 3.8912 112.711 3.11655 113.098 2.54576C113.771 1.89342 114.545 1.40417 115.3 1.11877Z" fill="white"/>
<path d="M62.1141 0.731445C65.5797 4.01352 69.0656 7.39752 72.5311 10.6796C72.5311 7.39752 72.5311 4.21737 72.5311 0.935301C73.4077 0.935301 74.1824 0.935301 75.0386 0.935301C75.0386 6.05207 75.0386 11.2708 75.0386 16.3875C72.7146 14.0636 70.3091 11.8416 67.9852 9.538C66.8232 8.47795 65.7632 7.31597 64.6012 6.25593C64.6012 9.538 64.6012 12.8201 64.6012 16.1021C63.7246 16.1021 62.9499 16.1021 62.0938 16.1021C62.1141 11.0465 62.1141 5.92976 62.1141 0.731445Z" fill="white"/>
<path d="M0.632812 1.0166C1.97826 1.0166 3.34409 1.0166 4.58761 1.0166C5.54573 1.0166 6.4223 1.0166 7.38042 1.11853C8.33854 1.22046 9.21512 1.60778 9.88784 2.17858C10.4586 2.66783 10.846 3.34055 10.9479 4.01328C11.1314 4.78793 11.1314 5.6645 10.846 6.41877C10.5606 7.29535 9.96939 7.96807 9.11319 8.3554C9.29666 8.45732 9.50052 8.45732 9.60245 8.53886C10.3771 8.92619 10.9479 9.59891 11.2537 10.3736C11.5391 10.9444 11.5391 11.6375 11.5391 12.3102C11.4371 13.1868 11.2537 13.9614 10.6625 14.6341C10.0917 15.4088 9.21512 15.7961 8.257 16.0815C7.58428 16.1834 6.7077 16.265 5.93305 16.1834C4.20028 16.1834 2.36558 16.1834 0.632812 16.1834C0.632812 11.1482 0.632812 6.03144 0.632812 1.0166ZM3.14023 3.23862C3.14023 4.58407 3.14023 6.03144 3.14023 7.39727C4.20028 7.39727 5.1584 7.39727 6.23883 7.39727C6.91156 7.39727 7.58428 7.21381 8.07353 6.82648C8.46086 6.54108 8.64433 6.05183 8.64433 5.56257C8.64433 5.07332 8.5424 4.50253 8.257 4.01328C7.86968 3.62595 7.48235 3.44248 6.9931 3.34055C6.4223 3.23862 5.93305 3.23862 5.34187 3.23862C4.66915 3.23862 3.91488 3.23862 3.14023 3.23862ZM3.14023 9.51737C3.14023 10.9647 3.14023 12.514 3.14023 13.9614C4.20028 13.9614 5.26033 13.9614 6.4223 13.9614C6.9931 13.9614 7.68621 13.8595 8.15507 13.4722C8.64433 13.1868 8.92972 12.6975 9.03165 12.2083C9.13358 11.6375 9.03165 11.0463 8.74625 10.557C8.56279 10.1697 8.07353 9.88431 7.68621 9.68046C7.29888 9.57853 6.80963 9.49699 6.4223 9.49699C5.26033 9.51737 4.20028 9.51737 3.14023 9.51737Z" fill="white"/>
<path d="M17.1245 1.0166C18.0011 1.0166 18.8573 1.0166 19.7338 1.0166C19.7338 3.62595 19.7338 6.2353 19.7338 8.84465C19.7338 9.80277 19.7338 10.6793 19.9173 11.6375C20.1008 12.4121 20.4881 13.0848 21.0793 13.5741C21.6705 14.0633 22.4247 14.1449 23.1994 14.1449C23.974 14.1449 24.7487 13.9614 25.4214 13.4722C25.9107 13.0848 26.298 12.514 26.4814 11.9229C26.6649 11.2501 26.6649 10.4755 26.6649 9.70084C26.6649 6.80609 26.6649 3.91135 26.6649 1.0166C27.5415 1.0166 28.3977 1.0166 29.2743 1.0166C29.2743 4.01327 29.2743 7.09149 29.2743 10.0882C29.2743 11.3521 29.0908 12.5956 28.4996 13.7576C28.0104 14.7157 27.1542 15.4903 26.0941 15.9796C24.9321 16.4688 23.6886 16.6523 22.4247 16.5504C21.5481 16.4484 20.692 16.265 19.9173 15.8777C19.3465 15.5923 18.8573 15.2049 18.4699 14.7157C17.9807 14.1449 17.5934 13.4518 17.4099 12.6975C17.1245 11.8209 17.0226 11.0463 17.1245 10.1901C17.1245 7.00995 17.1245 4.01327 17.1245 1.0166Z" fill="white"/>
<path d="M52.2695 1.0166C53.1461 1.0166 54.0023 1.0166 54.8789 1.0166C54.8789 6.13337 54.8789 11.1482 54.8789 16.265C54.0023 16.265 53.1461 16.265 52.2695 16.265C52.2695 11.1482 52.2695 6.03144 52.2695 1.0166Z" fill="white"/>
<path d="M81.9102 1.0166C85.0088 1.0166 88.087 1.0166 91.0836 1.0166C91.0836 1.79125 91.0836 2.5659 91.0836 3.34055C88.8616 3.34055 86.6396 3.34055 84.4176 3.34055C84.4176 4.60445 84.4176 5.74604 84.4176 7.00995C86.4357 7.00995 88.3724 7.00995 90.4109 7.00995C90.4109 7.7846 90.4109 8.55925 90.4109 9.23197C88.3928 9.23197 86.4561 9.23197 84.4176 9.23197C84.4176 10.7813 84.4176 12.4121 84.4176 13.9614C86.6396 13.9614 88.8616 13.9614 91.0836 13.9614C91.0836 14.7361 91.0836 15.5107 91.0836 16.2854C87.985 16.2854 84.9068 16.2854 81.9102 16.2854C81.9102 12.1267 81.9102 8.06999 81.9102 3.93173C81.9102 2.95322 81.9102 1.97472 81.9102 1.0166Z" fill="white"/>
<path d="M20.7148 23.8916C24.1804 27.1737 27.6663 30.4557 31.0503 33.7378C31.0503 30.5577 31.0503 27.3571 31.0503 24.177C31.9269 24.177 32.7015 24.177 33.5577 24.177C33.5577 29.2938 33.5577 34.3086 33.5577 39.4254C30.0922 36.1433 26.6063 32.7593 23.2223 29.4772C23.2223 32.7593 23.2223 35.9395 23.2223 39.2215C22.3457 39.2215 21.571 39.2215 20.7148 39.2215C20.7148 34.0436 20.7148 28.9268 20.7148 23.8916Z" fill="white"/>
<path d="M42.3218 24.3843C43.2799 23.895 44.3399 23.8135 45.4204 23.8135C46.8677 23.9154 48.3151 24.3027 49.4771 25.0774C49.4771 25.954 49.4771 26.8101 49.4771 27.6867C48.9063 27.1975 48.2132 26.8102 47.5405 26.5248C46.5823 26.1374 45.6038 25.954 44.5438 26.0355C44.0545 26.0355 43.5857 26.219 43.1983 26.4228C42.9129 26.6063 42.6275 26.9121 42.5256 27.1975C42.3421 27.7683 42.4237 28.4614 42.9129 28.9302C43.3003 29.3176 43.6876 29.501 44.1768 29.603C45.0534 29.8884 46.0115 30.2757 46.8881 30.5611C47.5608 30.8465 48.3355 31.1319 48.9063 31.6211C49.4771 32.1104 49.8644 32.7831 50.0683 33.4558C50.2517 34.2305 50.2517 35.0051 50.1702 35.7798C49.9867 36.5544 49.5994 37.1252 49.1101 37.7164C48.5393 38.2872 47.8462 38.593 47.092 38.8784C46.1338 39.1638 45.1553 39.1638 44.1972 39.1638C43.2391 39.0619 42.1791 38.8784 41.3025 38.4911C40.9151 38.3076 40.5278 38.1037 40.1405 37.9203C40.1405 37.0437 40.1405 36.1875 40.1405 35.209C41.4859 36.269 43.1372 36.9418 44.768 36.9418C45.5427 36.9418 46.2154 36.8398 46.8881 36.5544C47.2754 36.371 47.5608 35.9836 47.6628 35.5963C47.7647 35.209 47.7647 34.7197 47.6628 34.3324C47.4793 33.9451 47.1735 33.5578 46.7862 33.3743C46.1135 32.987 45.4407 32.8035 44.6661 32.4977C43.8914 32.2123 43.0149 31.9269 42.2606 31.5396C41.5879 31.1523 40.9152 30.663 40.5278 29.9903C40.1405 29.3176 39.957 28.5429 39.957 27.7683C39.957 26.9936 40.1405 26.3209 40.5278 25.6482C41.0782 25.1589 41.649 24.7716 42.3218 24.3843Z" fill="white"/>
<path d="M10.8477 24.1025C11.7242 24.1025 12.5804 24.1025 13.457 24.1025C13.457 29.1174 13.457 34.0507 13.457 39.0655C12.5804 39.0655 11.7242 39.0655 10.8477 39.0655C10.8477 34.1322 10.8477 29.1174 10.8477 24.1025Z" fill="white"/>
<path d="M56.8984 24.1025C57.775 24.1025 58.6312 24.1025 59.5078 24.1025C59.5078 29.1174 59.5078 34.0507 59.5078 39.0655C58.6312 39.0655 57.775 39.0655 56.8984 39.0655C56.8984 34.1322 56.8984 29.1174 56.8984 24.1025Z" fill="white"/>
<path d="M66.9457 24.1025C68.9638 24.1025 70.9005 24.1025 72.939 24.1025C74.4883 24.1025 76.0376 24.4899 77.2811 25.448C78.3412 26.2226 79.1158 27.2827 79.6051 28.5466C79.9924 29.6066 80.0943 30.6667 80.0943 31.7267C80.0943 33.276 79.707 34.8253 78.8304 36.1708C78.1577 37.2308 77.0977 38.1074 75.8338 38.5763C74.8756 38.9636 73.8971 39.1471 72.8371 39.1471C70.8189 39.1471 68.8823 39.1471 66.8438 39.1471C66.9457 34.1322 66.9457 29.1174 66.9457 24.1025ZM69.555 26.4061C69.555 29.8716 69.555 33.3576 69.555 36.8231C70.3297 36.8231 71.2062 36.8231 71.9605 36.8231C72.4498 36.8231 72.9186 36.8231 73.4079 36.8231C74.366 36.7212 75.2426 36.3339 76.0172 35.6611C76.588 35.0903 77.0773 34.3157 77.2811 33.541C77.4646 32.7664 77.5665 31.8898 77.4646 31.1355C77.3627 30.3609 77.2811 29.6882 76.9754 29.0155C76.69 28.3427 76.2007 27.7516 75.6299 27.3642C74.9572 26.875 74.1825 26.5896 73.306 26.5896C72.8167 26.4876 72.3478 26.5896 71.8586 26.5896C71.0839 26.4061 70.3297 26.4061 69.555 26.4061Z" fill="white"/>
<path d="M85.4766 24.1025C88.5752 24.1025 91.5515 24.1025 94.6501 24.1025C94.6501 24.8772 94.6501 25.6518 94.6501 26.3246C92.428 26.3246 90.206 26.3246 87.984 26.3246C87.984 27.4865 87.984 28.7301 87.984 29.892C90.0021 29.892 91.9388 29.892 93.9773 29.892C93.9773 30.6667 93.9773 31.3394 93.9773 32.1141C91.9592 32.1141 90.0225 32.1141 87.984 32.1141C87.984 33.6634 87.984 35.2127 87.984 36.7416C90.206 36.7416 92.428 36.7416 94.6501 36.7416C94.6501 37.5162 94.6501 38.2909 94.6501 39.0655C91.5515 39.0655 88.5752 39.0655 85.4766 39.0655C85.4766 34.1322 85.4766 29.1174 85.4766 24.1025Z" fill="white"/>
<path d="M102.273 24.1025C104.108 24.1025 106.045 24.1025 107.879 24.1025C108.838 24.1025 109.714 24.286 110.591 24.6733C111.263 24.9587 111.855 25.448 112.242 26.1207C112.731 26.8954 112.915 27.7719 112.915 28.6281C112.915 29.5047 112.813 30.4628 112.344 31.2375C111.957 31.8083 111.467 32.2975 110.897 32.5829C110.407 32.7664 109.938 32.8683 109.449 32.9702C111.284 34.9884 113.017 37.1289 114.851 39.1471C113.893 39.1471 112.915 39.1471 111.957 39.1471C110.224 37.1289 108.491 35.0903 106.738 33.0722C106.167 33.0722 105.576 33.0722 104.903 33.0722C104.903 35.0903 104.903 37.1289 104.903 39.1471C104.027 39.1471 103.17 39.1471 102.396 39.1471C102.273 34.1322 102.273 29.1174 102.273 24.1025ZM104.781 26.3246C104.781 27.8739 104.781 29.4232 104.781 30.8705C105.739 30.8705 106.717 30.8705 107.778 30.8705C108.45 30.8705 109.123 30.6871 109.612 30.1978C110 29.9124 110.183 29.4232 110.183 29.0358C110.285 28.465 110.183 27.8739 109.898 27.3031C109.612 26.8138 109.123 26.5284 108.552 26.4265C107.981 26.243 107.492 26.3246 106.901 26.3246C106.228 26.3246 105.556 26.3246 104.781 26.3246Z" fill="white"/>
</svg>
