<svg xmlns:xlink="http://www.w3.org/1999/xlink" xmlns="http://www.w3.org/2000/svg" width="16" height="16" viewBox="0 0 16 16" fill="none"><script xmlns=""/>
<path d="M13.8437 15.63C14.3369 16.1233 15.1367 16.1233 15.63 15.63C16.1233 15.1367 16.1233 14.3369 15.63 13.8437L9.78638 8L15.63 2.15635C16.1233 1.66305 16.1233 0.863265 15.63 0.369971C15.1367 -0.123323 14.3369 -0.123323 13.8437 0.369971L8 6.21362L2.15635 0.36997C1.66305 -0.123323 0.863265 -0.123323 0.369973 0.36997C-0.123322 0.863264 -0.123322 1.66305 0.369973 2.15635L6.21362 8L0.36997 13.8437C-0.123323 14.3369 -0.123323 15.1367 0.36997 15.63C0.863264 16.1233 1.66305 16.1233 2.15635 15.63L8 9.78637L13.8437 15.63Z" fill="#1D1D1D"/>
</svg>