<svg width="203" height="27" viewBox="0 0 203 27" fill="none" xmlns="http://www.w3.org/2000/svg">
<path fill-rule="evenodd" clip-rule="evenodd" d="M62.2572 3.44389C62.2572 3.88102 61.9545 4.6544 61.551 5.15878C61.013 5.83128 60.5759 6.03303 59.5671 6.03303C58.0876 6.03303 56.8771 4.85615 56.8771 3.44389C56.8771 2.30064 58.2894 0.989258 59.5671 0.989258C60.8449 0.989258 62.2572 2.30064 62.2572 3.44389ZM108.727 15.1118C108.727 17.2302 107.752 18.8106 105.701 20.0211C104.423 20.7609 103.65 20.9626 101.599 21.0299C99.1103 21.1307 97.1264 20.8281 95.8487 20.1556C95.3107 19.853 95.2098 19.4158 95.2098 17.2975C95.2098 14.6074 95.546 14.1367 96.2186 15.7843C97.4291 18.7097 99.9173 20.7609 101.733 20.2901C103.448 19.853 104.221 17.8691 103.313 16.1878C103.078 15.7507 101.498 14.4057 99.7828 13.1279C96.1849 10.4716 95.3779 9.1938 95.6469 6.77279C95.9159 4.35177 97.8326 2.40151 100.724 1.62814C102.237 1.22463 105.936 1.39276 107.416 1.96439C108.29 2.30064 108.324 2.43514 108.324 4.5199C108.324 5.73041 108.189 6.70554 108.021 6.70554C107.853 6.70554 107.248 5.86491 106.676 4.85615C105.499 2.80502 104.86 2.33426 103.145 2.33426C101.632 2.33426 100.59 3.30939 100.59 4.72165C100.59 6.26841 100.993 6.77279 104.289 9.22742C108.055 12.0183 108.727 12.9262 108.727 15.1118ZM88.2494 26.2081C90.973 25.4011 93.1923 22.4085 92.6879 20.1892C92.2172 18.0036 89.897 17.1293 84.5843 17.1293C82.0287 17.1293 81.7597 17.0621 81.7597 16.4905C81.7597 15.8852 81.9615 15.8516 84.3825 16.0197C87.6105 16.2551 89.7289 15.4817 90.8385 13.6996C91.6792 12.3882 91.5783 10.0681 90.6704 9.0593C89.9306 8.25229 90.1997 7.84879 91.1075 8.35317C91.511 8.55492 92.1163 8.72305 92.4862 8.72305C93.0578 8.72305 93.1923 8.52129 93.1923 7.68067C93.1923 6.84004 93.0914 6.67191 92.6207 6.84004C91.3429 7.34441 89.1909 7.44529 87.3751 7.04179C83.5755 6.26841 79.7086 7.94967 79.2042 10.5724C78.9352 12.0856 79.5741 13.9349 80.6501 14.7083L81.5244 15.3472L80.4147 16.356C79.5069 17.163 79.2715 17.6337 79.2715 18.5752C79.2715 20.8954 81.02 21.8369 85.4585 21.8369C88.5856 21.8369 89.6616 22.3076 89.6616 23.6862C89.6616 24.4932 89.4263 24.7959 88.4848 25.2666C86.7699 26.1409 83.4746 26.0736 82.2977 25.1658C81.3899 24.426 81.1545 23.2491 81.827 22.5766C82.4659 21.9377 80.0449 22.0722 79.137 22.7111C77.6238 23.7535 78.6326 25.771 81.0872 26.5108C82.4659 26.9143 86.4336 26.7461 88.2494 26.2081ZM36.9374 20.4582C38.3833 19.7521 40.0646 17.8018 40.0646 16.8267C40.0646 16.4905 39.8292 16.5577 39.2576 17.0957C38.1479 18.1381 35.6933 18.4407 34.4828 17.6673C33.5749 17.0621 32.667 15.28 32.667 14.1031C32.667 13.4642 32.8688 13.4306 36.3658 13.4306H40.0646V12.0856C40.0646 10.3371 39.3584 8.99205 37.8453 7.84879C36.8365 7.07541 36.2985 6.90729 34.5837 6.90729C31.0194 6.94091 28.7665 8.58854 27.7578 11.9847C27.0516 14.2712 27.1861 15.7843 28.2285 17.8018C28.9346 19.2141 29.4726 19.8193 30.6159 20.391C32.5325 21.3997 34.9535 21.3997 36.9374 20.4582ZM114.679 20.8281C115.755 20.5255 117.402 19.315 117.402 18.8106C117.402 18.6761 117.033 18.6425 116.562 18.7433C114.881 19.046 114.712 18.508 114.712 13.0607V8.05054H116.057C117.033 8.05054 117.402 7.91604 117.402 7.54616C117.402 7.17629 117.033 7.04179 116.057 7.04179H114.712V5.69678C114.712 4.15002 114.612 4.08277 113.603 5.0579C113.199 5.4614 111.888 6.23478 110.677 6.80641C108.962 7.64704 108.626 7.88242 109.198 8.05054C109.87 8.21867 109.904 8.48767 109.971 13.7332C110.005 16.7595 110.139 19.4495 110.24 19.7185C110.442 20.2565 112.157 21.1307 113.031 21.1644C113.3 21.1644 114.04 21.0299 114.679 20.8281ZM124.934 19.6512L123.825 20.391C121.135 22.2067 117.772 20.66 117.739 17.5665C117.739 15.8516 119.084 14.5738 121.774 13.7668C124.329 12.9934 124.766 12.6572 125.035 11.0096C125.271 9.42917 124.127 8.11779 122.278 7.81517L120.933 7.61342L121.908 8.45404C124.396 10.6061 121.639 14.2039 119.05 12.1528C118.176 11.4467 118.041 9.76543 118.747 8.89117C119.79 7.64704 121.875 6.94091 124.464 6.90729C127.154 6.90729 128.869 7.51254 129.507 8.68942C129.676 9.0593 129.844 11.3794 129.844 13.9013C129.844 16.3896 129.945 18.6425 130.045 18.9451C130.146 19.2477 130.651 19.4831 131.155 19.4831C131.996 19.5167 131.962 19.5503 130.684 20.3237C128.902 21.4334 126.75 21.467 125.708 20.391L124.934 19.6512ZM153.482 20.8617C153.953 20.66 154.659 20.1892 155.029 19.7857L155.735 19.0123V20.8281H158.862C161.115 20.7945 161.788 20.7272 161.384 20.4582C160.846 20.1556 160.779 19.315 160.779 10.9087V1.66176L157.349 1.69539C155.399 1.72901 154.256 1.82989 154.726 1.96439C155.533 2.16614 155.567 2.33426 155.668 4.9234L155.769 7.64704L154.39 7.17629C152.305 6.43653 150.557 6.87366 148.842 8.52129C147.06 10.2026 146.522 11.9847 146.724 15.3136C146.959 19.1132 148.607 21.1307 151.431 21.1644C152.104 21.1644 153.045 21.0299 153.482 20.8617ZM168.95 19.7521C168.849 19.9875 168.344 20.391 167.84 20.66C166.764 21.198 165.049 21.2989 163.94 20.8281C162.83 20.391 162.124 19.1468 162.124 17.6001C162.124 15.7507 163.2 14.7083 165.991 13.7668C168.412 12.9598 169.219 12.2201 169.252 10.8414C169.32 8.95842 168.042 7.71429 166.092 7.71429C165.419 7.71429 165.453 7.74792 166.293 8.55492C167.47 9.63093 167.47 11.1104 166.293 12.0519C165.116 12.9598 164.108 12.9598 163.2 11.9847C162.258 11.0096 162.258 10.0681 163.166 8.9248C165.083 6.50378 171.236 6.10028 173.254 8.25229C174.027 9.0593 174.061 9.42917 174.229 14.2039L174.397 19.2813L176.078 19.6848L175.137 20.3237C174.599 20.66 173.388 20.9962 172.413 21.0971C170.766 21.2316 170.564 21.1644 169.858 20.2901C169.353 19.6512 169.051 19.4495 168.95 19.7521ZM195.177 20.2229C196.152 19.315 196.421 19.2813 196.421 20.1556C196.421 20.7945 196.657 20.8281 199.549 20.8281C201.801 20.7945 202.474 20.7272 202.07 20.4582C201.533 20.1556 201.465 19.315 201.465 10.9087V1.66176L198.035 1.69539C196.085 1.72901 194.942 1.82989 195.413 1.96439C196.22 2.16614 196.253 2.33426 196.354 4.9234L196.455 7.64704L195.177 7.17629C193.631 6.63829 193.227 6.60466 191.68 7.04179C188.957 7.81517 187.343 10.5388 187.343 14.4393C187.343 19.046 189.158 21.3325 192.655 21.0635C193.866 20.9962 194.639 20.7272 195.177 20.2229ZM16.2916 15.1118C16.5606 15.1118 16.3252 19.0123 15.989 20.2565C15.8208 20.7945 15.1483 20.8281 7.85167 20.8281C0.85764 20.7945 0.0170115 20.7609 0.92489 20.3574C1.53014 20.0884 2.06815 19.5503 2.16902 19.1132C2.5389 17.7682 2.43802 4.01552 2.06815 3.34302C1.86639 2.97314 1.29477 2.46877 0.79039 2.19976C-0.0166136 1.72901 0.622264 1.69539 7.71717 1.66176H15.5182V3.9819C15.5182 5.29328 15.4173 6.40291 15.2492 6.50378C15.1147 6.57104 14.5094 5.83128 13.8706 4.85615C12.5928 2.83864 11.7522 2.33426 9.6338 2.33426H8.12067V10.7406H9.43205C10.8107 10.7406 11.8531 9.8663 12.3238 8.35317C12.8282 6.80641 13.1644 7.98329 13.1644 11.2449C13.1644 13.1952 13.0299 14.7756 12.8618 14.7756C12.6937 14.7756 12.3911 14.3048 12.1557 13.7668C11.5841 12.4218 10.6089 11.7493 9.12943 11.7493H7.95255L8.05342 15.6835C8.12067 18.2726 8.2888 19.7185 8.5578 19.8866C9.19668 20.2901 11.0797 20.1892 12.3238 19.6848C13.1308 19.315 13.8706 18.5752 14.7448 17.163C15.451 16.0533 16.1571 15.1455 16.2916 15.1118ZM25.7066 14.7419C27.1861 10.1689 27.8923 8.45404 28.5311 7.84879L29.4054 7.04179H27.4888C26.4464 7.04179 25.6057 7.20991 25.6057 7.37804C25.6057 7.57979 25.7739 7.71429 25.942 7.71429C26.1437 7.71429 26.2782 8.11779 26.2782 8.62217C26.2782 9.63093 24.1935 17.4656 23.9245 17.4656C23.6891 17.4656 21.2345 9.36192 21.2345 8.62217C21.2345 8.31954 21.638 7.84879 22.176 7.57979C23.0166 7.10904 22.7812 7.07541 18.7798 7.04179H14.4758L15.1483 7.98329C15.5182 8.48767 16.6615 11.5812 17.7375 14.8765L19.6877 20.8281H23.79L25.7066 14.7419ZM46.5206 14.4393C46.4197 19.5167 46.5206 20.391 47.3948 20.5927C47.6975 20.6936 46.2516 20.7609 44.1668 20.7945C40.7034 20.8281 40.4008 20.7945 40.8716 20.2901C41.6786 19.4831 41.6449 8.55492 40.8379 7.64704C40.3336 7.07541 40.4008 7.04179 43.3598 7.04179H46.4533V9.56367L47.3276 8.58855C49.3115 6.47016 52.136 6.26841 53.6827 8.11779C54.4897 9.09292 54.5234 9.26105 54.5234 14.4393C54.5234 18.8442 54.6242 19.853 55.0614 20.2901C55.5321 20.7945 55.2631 20.8281 51.9342 20.8281C49.3115 20.7945 48.4708 20.7272 48.908 20.4582C49.4123 20.1556 49.4796 19.5503 49.4796 15.3136C49.4796 10.0344 49.3451 9.5973 47.563 9.79905L46.6215 9.89993L46.5206 14.4393ZM62.7279 20.3574C62.1563 19.9202 62.089 19.3486 61.9882 13.4642L61.8873 7.04179H56.171L56.6754 7.78154C57.1125 8.38679 57.2134 9.5973 57.2134 14.0022C57.2134 19.046 57.1461 19.5503 56.5409 20.1556L55.8684 20.8281H59.6344C62.9633 20.8281 63.3332 20.7609 62.7279 20.3574ZM69.7219 14.9437C69.6547 19.3822 69.6883 20.0211 70.2263 20.391C70.6971 20.7609 70.1591 20.8281 67.1664 20.8281C63.8712 20.8281 63.6022 20.7945 64.0729 20.2901C64.8799 19.4831 64.8463 8.55492 64.0393 7.64704C63.5349 7.07541 63.6022 7.04179 66.5612 7.04179H69.6547V9.29467L70.7979 8.21867C72.6809 6.47016 75.2701 6.33566 76.7832 7.94967C77.523 8.72305 77.5566 9.0593 77.6575 14.3721C77.7247 19.1132 77.8592 20.0547 78.2963 20.4246C78.7671 20.7609 78.1955 20.8281 75.1692 20.8281C72.5128 20.7945 71.6722 20.7272 72.1093 20.4582C72.6137 20.1556 72.6809 19.5503 72.6809 15.3136C72.6809 10.0344 72.5464 9.5973 70.7643 9.79905L69.8228 9.89993L69.7219 14.9437ZM138.149 20.391C137.611 20.0211 137.577 19.3822 137.645 14.9437L137.746 9.89993L138.687 9.79905C140.436 9.5973 140.604 10.0344 140.604 15.1455C140.604 18.9115 140.503 19.8866 140.066 20.2901C139.595 20.7945 139.864 20.8281 143.193 20.8281C145.816 20.7945 146.656 20.7272 146.253 20.4582C145.715 20.1556 145.648 19.5167 145.648 14.8092C145.648 9.8663 145.58 9.42917 144.908 8.38679C143.529 6.36928 140.772 6.30203 138.721 8.21867L137.577 9.29467V7.04179H134.316C131.256 7.04179 131.088 7.07541 131.794 7.57979C132.5 8.08417 132.534 8.28592 132.534 13.8341C132.534 18.7097 132.433 19.6848 131.962 20.2229C131.458 20.7945 131.559 20.8281 135.056 20.8281C138.082 20.8281 138.62 20.7609 138.149 20.391ZM181.694 12.7917C181.559 18.7433 181.795 20.3237 182.904 20.5927C183.24 20.6936 181.694 20.7609 179.542 20.7945L175.574 20.8281L176.28 20.122C176.919 19.4831 176.953 19.1132 176.852 13.7668C176.751 8.55492 176.684 8.05054 176.078 7.57979C175.473 7.10904 175.675 7.07541 178.6 7.04179H181.795L181.694 12.7917ZM186.704 11.1104C187.881 9.89993 187.948 9.0593 186.872 7.84879C185.325 5.99941 182.299 6.97454 182.299 9.29467C182.299 11.8502 184.888 12.9262 186.704 11.1104ZM84.4497 14.8237C84.0798 14.1175 83.9789 9.74627 84.3152 8.50214C84.5842 7.52701 85.492 7.22438 86.03 7.93051C86.6017 8.70389 86.6353 14.4874 86.0637 15.059C85.4584 15.6643 84.8532 15.5634 84.4497 14.8237ZM123.791 14.088C122.581 15.5003 122.312 17.316 123.152 18.3584C123.354 18.5938 123.825 18.7955 124.161 18.7955C124.733 18.7955 124.8 18.5265 124.8 15.8701L124.766 12.9111L123.791 14.088ZM152.608 18.5573C151.801 17.6495 151.768 9.04141 152.575 8.26803C153.281 7.5619 154.491 7.59553 155.164 8.33528C155.971 9.24316 156.005 17.8512 155.198 18.6246C154.491 19.3307 153.281 19.2971 152.608 18.5573ZM166.831 16.6763C166.831 17.0126 167.067 17.6514 167.369 18.0549C167.638 18.4584 168.176 18.7947 168.546 18.7947C169.118 18.7947 169.185 18.5257 169.185 15.8693V12.9775L168.479 13.6164C167.605 14.3898 166.831 15.8693 166.831 16.6763ZM193.261 18.6599C192.521 17.8865 192.319 16.3061 192.454 12.2711C192.555 9.17756 192.655 8.60594 193.193 8.20244C194.169 7.49631 195.312 7.63081 195.883 8.47144C196.321 9.04306 196.421 10.1863 196.421 13.448C196.421 16.7096 196.321 17.8529 195.883 18.4245C195.278 19.2987 194 19.3996 193.261 18.6599ZM34.3481 7.72363C33.5074 7.72363 33.003 8.66514 32.7677 10.7499L32.5659 12.4312H34.1463H35.6931V10.7163C35.6931 8.73239 35.2559 7.72363 34.3481 7.72363Z" fill="white"/>
</svg>
