<svg xmlns="http://www.w3.org/2000/svg" xmlns:xlink="http://www.w3.org/1999/xlink" width="120" height="98" viewBox="0 0 120 98" version="1.1"><script xmlns=""/>
    <title>illustration</title>
    <g id="Features-template" stroke="none" stroke-width="1" fill="none" fill-rule="evenodd">
        <g id="Feature-page-Mobile-banking-LG-Desktop" transform="translate(-266.000000, -1006.000000)">
            <g id="Group-24" transform="translate(188.000000, 846.000000)">
                <g id="Group-16" transform="translate(0.000000, 162.000000)">
                    <g id="illustration" transform="translate(80.000000, 0.000000)">
                        <path d="M32.6854424,2.24522882 L6.71168842,12.8623809 C4.56467601,13.7395252 3.48048406,16.1485834 4.24410371,18.3426796 L27.6927343,86.1998792 C28.827889,89.4572553 32.5802289,90.9504597 35.6363515,89.3600694 L59.338152,77.0331037 C60.6968853,76.3264466 61.3314541,74.7278202 60.8284022,73.2790909 L37.0370058,4.21530312 C36.4172327,2.43054099 34.4313284,1.53198286 32.6854424,2.24522882" id="Fill-3" fill="#F5B884"/>
                        <path d="M26.3406746,8.97246909 L16.7040251,12.804199 C15.3345551,13.3482342 13.7677061,12.7196583 13.2031856,11.4006665 C12.6386651,10.0816747 13.2909096,8.57168345 14.658755,8.02686546 L24.2962169,4.19591831 C25.6648745,3.65188311 27.2325358,4.27967624 27.7970563,5.59866806 C28.3607646,6.91765988 27.7101445,8.42843389 26.3406746,8.97246909" id="Fill-5" fill="#F8EDDE"/>
                        <line x1="18" y1="10" x2="24" y2="8" id="Stroke-7" stroke="#3A3A3A" stroke-width="2.5" stroke-linecap="round" stroke-linejoin="round"/>
                        <path d="M32.0280099,0.271972835 L3.02797542,12.0327688 C0.630639232,13.0043839 -0.580369302,15.673872 0.272766465,18.1037277 L24.8738454,88.1458923 C26.6352376,93.1634502 32.460748,95.4632665 37.2060587,93.015418 L61.1448673,80.661675 C62.661096,79.8789851 63.37026,78.1083228 62.8083586,76.5036857 L36.8868526,2.45401759 C36.1941426,0.477255157 33.9769768,-0.518895712 32.0280099,0.271972835 Z" id="Stroke-9" stroke="#3A3A3A" stroke-width="2.5" stroke-linecap="round" stroke-linejoin="round"/>
                        <g id="Group-215" opacity="0.496117001" transform="translate(5.000000, 2.000000)" fill="#000000">
                            <path d="M26.1674084,82.4699647 C26.1706909,81.8523176 26.6452364,81.3903176 27.2752364,81.3927784 C27.9036,81.3952588 28.3724182,81.8630235 28.3699732,82.4839647 C28.3666909,83.1254941 27.8856,83.6154941 27.2605091,83.6113765 C26.6264182,83.6072588 26.1649636,83.1246706 26.1674084,82.4699647" id="Fill-11"/>
                            <path d="M50.4060545,67.7063059 C50.3995091,68.3461882 49.9118727,68.8345412 49.2876,68.8238353 C48.6526909,68.8139529 48.1977818,68.3297176 48.2043273,67.6725412 C48.2108727,67.0573647 48.6886909,66.6011294 49.3219636,66.6060706 C49.9462364,66.6110118 50.4134182,67.0845412 50.4060545,67.7063059" id="Fill-13"/>
                            <path d="M40.858763,67.6825882 C40.8612273,67.0657647 41.3365909,66.6037647 41.9665909,66.6062254 C42.5941364,66.6087059 43.0637727,67.0756471 43.060517,67.6965882 C43.0580455,68.3389412 42.5761364,68.8289412 41.9510455,68.824 C41.3177727,68.8198824 40.8563182,68.3381176 40.858763,67.6825882" id="Fill-15"/>
                            <path d="M35.7147818,67.7196471 C35.7025091,68.3578824 35.2066909,68.8412941 34.5824182,68.824 C33.9491455,68.8067059 33.5007818,68.3183529 33.5138727,67.6595294 C33.5253273,67.0468235 34.0088727,66.5963529 34.6437818,66.6062353 C35.2664182,66.6161176 35.7278727,67.0954118 35.7147818,67.7196471" id="Fill-17"/>
                            <path d="M13.6790182,8.5582 C13.6716545,9.19808235 13.1840182,9.68643529 12.5597455,9.67572941 C11.9248364,9.66584706 11.4699273,9.18161176 11.4772909,8.52525882 C11.4830182,7.90925882 11.9608364,7.45302353 12.5949273,7.45796471 C13.2192,7.46290588 13.6855636,7.93643529 13.6790182,8.5582" id="Fill-19"/>
                            <path d="M19.9072636,7.45804706 C20.5397182,7.45228235 21.0175364,7.90934118 21.0240818,8.52534118 C21.0314455,9.17181176 20.5618091,9.6684 19.9375364,9.67581176 C19.3034455,9.68404706 18.8297182,9.20887059 18.8223545,8.55745882 C18.8158091,7.93651765 19.2821727,7.46381176 19.9072636,7.45804706" id="Fill-21"/>
                            <path d="M28.3694727,8.57145882 C28.3572,9.20969412 27.8613818,9.69310588 27.2371091,9.67581176 C26.6038364,9.65851765 26.1554727,9.17016471 26.1685636,8.51134118 C26.1800182,7.89863529 26.6635636,7.44816471 27.2984727,7.45804706 C27.9202909,7.46792941 28.3817455,7.94722353 28.3694727,8.57145882" id="Fill-23"/>
                            <path d="M28.3702909,67.6737765 C28.3768364,68.3194235 27.9072,68.8168353 27.2829273,68.8242471 C26.6488364,68.8324824 26.1742909,68.3573059 26.1685636,67.7058941 C26.1612,67.0841294 26.6275636,66.6114235 27.2534727,66.6064824 C27.8851091,66.6007176 28.3637455,67.0577765 28.3702909,67.6737765" id="Fill-25"/>
                            <path d="M21.0242455,67.6737765 C21.0307909,68.3194235 20.5619727,68.8168353 19.9377,68.8242471 C19.3027909,68.8324824 18.8290636,68.3573059 18.8225182,67.7058941 C18.8159727,67.0841294 19.2823364,66.6114235 19.9074273,66.6064824 C20.5398818,66.6007176 21.0177,67.0577765 21.0242455,67.6737765" id="Fill-27"/>
                            <path d="M41.9526,51.8191783 C42.5834182,51.8167176 43.0579636,52.2770706 43.060435,52.8947176 C43.0636909,53.5395412 42.5899636,54.0336588 41.9656909,54.0369699 C41.3307818,54.0402471 40.8619636,53.5634235 40.8586739,52.9103647 C40.8554182,52.2902471 41.3242364,51.8216588 41.9526,51.8191783" id="Fill-29"/>
                            <path d="M35.7155278,52.9085529 C35.7130636,53.5509059 35.2311545,54.0417294 34.6068818,54.0376118 C33.9719727,54.0326706 33.5113364,53.5517294 33.5137811,52.8970235 C33.5154273,52.2793765 33.9899727,51.8173765 34.6199727,51.8190191 C35.2483364,51.8214941 35.7179727,52.2884353 35.7155278,52.9085529" id="Fill-31"/>
                            <path d="M28.3702951,52.8968588 C28.3719273,53.5416824 27.8965636,54.0349765 27.2722909,54.0374513 C26.6382,54.0390941 26.1710182,53.5614471 26.1685541,52.9083882 C26.1661091,52.2882706 26.6357455,51.8205059 27.2632909,51.8188544 C27.8941091,51.8172118 28.3678364,52.2792118 28.3702951,52.8968588" id="Fill-33"/>
                            <path d="M18.8221813,52.9089647 C18.8197364,52.2888471 19.2893727,51.8210824 19.9169182,51.8194254 C20.5477364,51.8169647 21.0214636,52.2781412 21.0239277,52.8957882 C21.0263727,53.5406118 20.5518273,54.0347294 19.9283727,54.0372095 C19.2926455,54.0396706 18.8254636,53.5620235 18.8221813,52.9089647" id="Fill-35"/>
                            <path d="M43.0608315,38.1115412 C43.0624636,38.7555412 42.5862818,39.2488353 41.9620091,39.2504834 C41.3279182,39.2513059 40.8615545,38.7736588 40.8590957,38.1197765 C40.8574636,37.4996588 41.3279182,37.0335412 41.9554636,37.031893 C42.5862818,37.0310706 43.0591909,37.4930706 43.0608315,38.1115412" id="Fill-37"/>
                            <path d="M33.5134593,38.1119529 C33.5142818,37.4934824 33.9880091,37.0306588 34.6180091,37.0323015 C35.2463727,37.0331294 35.7168273,37.4992471 35.7151952,38.1193647 C35.7135545,38.7617176 35.2332818,39.2533647 34.6090091,39.250087 C33.9741,39.2467765 33.5118273,38.7666588 33.5134593,38.1119529" id="Fill-39"/>
                            <path d="M28.3702909,38.0978706 C28.3776545,38.7443412 27.9088364,39.2417529 27.2845636,39.2499882 C26.6496545,39.2590471 26.1751091,38.7838706 26.1685636,38.1332824 C26.1612,37.5115176 26.6267455,37.0379882 27.2518364,37.0322235 C27.8842909,37.0264588 28.3629273,37.4818706 28.3702909,38.0978706" id="Fill-41"/>
                            <path d="M21.0242455,38.1027294 C21.0299727,38.7483765 20.5587,39.2441412 19.9344273,39.2507294 C19.2995182,39.2564941 18.8274273,38.7804941 18.8225182,38.1282588 C18.8176091,37.5073176 19.2847909,37.0362588 19.9115182,37.0321412 C20.5423364,37.0280235 21.0193364,37.4859059 21.0242455,38.1027294" id="Fill-43"/>
                            <path d="M13.6790182,38.1063529 C13.6831091,38.7511765 13.2102,39.2461176 12.5851091,39.2502353 C11.9510182,39.2543529 11.4805636,38.7775294 11.4772909,38.1244706 C11.4732,37.5043529 11.9420182,37.0349412 12.5687455,37.032453 C13.1995636,37.0291765 13.6757455,37.4895294 13.6790182,38.1063529" id="Fill-45"/>
                            <path d="M35.7147818,23.3832941 C35.6926909,24.0165882 35.1813273,24.4934118 34.5578727,24.4621176 C33.9246,24.43 33.4893273,23.9358824 33.5146909,23.2737647 C33.5359636,22.6651765 34.0293273,22.2262353 34.6691455,22.246 C35.2852364,22.2641176 35.7368727,22.7565882 35.7147818,23.3832941" id="Fill-47"/>
                            <path d="M28.3702909,23.3165882 C28.3752,23.9622353 27.9039273,24.458 27.2788364,24.4637647 C26.6447455,24.4687059 26.1726545,23.9927059 26.1685636,23.3404706 C26.1628364,22.7195294 26.6308364,22.2492941 27.2575636,22.2451765 C27.8883818,22.2410588 28.3653818,22.6997647 28.3702909,23.3165882" id="Fill-49"/>
                            <path d="M21.024255,23.3330588 C21.0226091,23.9754118 20.5415182,24.4662353 19.9164273,24.463774 C19.2823364,24.4596471 18.8208818,23.9787059 18.8225138,23.324 C18.8241545,22.7055294 19.2978818,22.2435294 19.9278818,22.2451721 C20.5562455,22.2468235 21.0267,22.7137647 21.024255,23.3330588" id="Fill-51"/>
                            <path d="M13.6790182,23.3451647 C13.6716545,23.9858706 13.1840182,24.4734 12.5597455,24.4635176 C11.9248364,24.4528118 11.4699273,23.9694 11.4772909,23.3122235 C11.4830182,22.6962235 11.9608364,22.2399882 12.5949273,22.2449294 C13.2192,22.2498706 13.6855636,22.7234 13.6790182,23.3451647" id="Fill-53"/>
                            <path d="M6.33289091,23.3451647 C6.32634545,23.9858706 5.83870909,24.4734 5.21443636,24.4635176 C4.57952727,24.4528118 4.12461818,23.9694 4.13198182,23.3122235 C4.13770909,22.6962235 4.61552727,22.2399882 5.2488,22.2449294 C5.87307273,22.2498706 6.34025455,22.7234 6.33289091,23.3451647" id="Fill-55"/>
                            <path d="M29.8404723,19.6256118 C29.8429364,19.0079647 30.3174818,18.5459647 30.9474818,18.5484254 C31.5750273,18.5500824 32.0446636,19.0162 32.0422187,19.6363176 C32.0405727,20.2786706 31.5603,20.7694941 30.9368455,20.7662165 C30.3125727,20.7637294 29.8380273,20.2696118 29.8404723,19.6256118" id="Fill-57"/>
                            <path d="M23.6137909,18.5482706 C24.2388818,18.5540353 24.7036091,19.0275647 24.6970636,19.6485059 C24.6897,20.2883882 24.2020636,20.7759176 23.5786091,20.7660353 C22.9551545,20.7569765 22.4871545,20.2587412 22.4953364,19.6130941 C22.5027,18.9979176 22.9813364,18.5425059 23.6137909,18.5482706" id="Fill-59"/>
                            <path d="M15.1491178,19.6256118 C15.1515818,19.0079647 15.6261273,18.5459647 16.2561273,18.5484254 C16.8836727,18.5500824 17.3533091,19.0162 17.351677,19.6363176 C17.3492182,20.2786706 16.8697636,20.7694941 16.2454909,20.7662165 C15.6212182,20.7637294 15.1466727,20.2696118 15.1491178,19.6256118" id="Fill-61"/>
                            <path d="M7.8039,19.6464471 C7.79817273,19.0255059 8.26453636,18.5536235 8.88962727,18.5486824 C9.52208182,18.5429176 9.9999,18.9991529 10.0056273,19.6151529 C10.0129909,20.2599765 9.54417273,20.7582118 8.92071818,20.7664471 C8.29726364,20.7755059 7.81044545,20.2871529 7.8039,19.6464471" id="Fill-63"/>
                            <path d="M7.80389051,27.0184353 C7.80717273,26.4016118 8.28171818,25.9396118 8.91171818,25.9420725 C9.53844545,25.9437294 10.0080818,26.4106706 10.0056368,27.0307882 C10.0039909,27.6723176 9.52371818,28.1631412 8.89944545,28.1598635 C8.27517273,28.1565529 7.80144545,27.6624353 7.80389051,27.0184353" id="Fill-65"/>
                            <path d="M15.1491104,27.0156353 C15.1532182,26.3996353 15.6294,25.9384588 16.2594,25.9417354 C16.8861273,25.9450471 17.3541273,26.4128118 17.3516823,27.0329294 C17.3484,27.6752824 16.8673091,28.1644588 16.2422182,28.1603412 C15.6179455,28.1554 15.1458545,27.6604588 15.1491104,27.0156353" id="Fill-67"/>
                            <path d="M24.6972273,27.0393529 C24.6906818,27.6800588 24.2046818,28.1684118 23.5812273,28.1601765 C22.9577727,28.1519412 22.4889545,27.6545294 22.4955,27.0088824 C22.5012273,26.3937059 22.9790455,25.9366471 23.6115,25.9415882 C24.2365909,25.9465294 24.7029545,26.4184118 24.6972273,27.0393529" id="Fill-69"/>
                            <path d="M29.8404723,27.0188471 C29.8429364,26.4012 30.3174818,25.9400235 30.9474818,25.9416662 C31.5750273,25.9433176 32.0446636,26.4102588 32.0422187,27.0295529 C32.0405727,27.6719059 31.5603,28.1627294 30.9368455,28.1602681 C30.3125727,28.1569647 29.8380273,27.6628471 29.8404723,27.0188471" id="Fill-71"/>
                            <path d="M37.1865103,27.0312824 C37.1832545,26.4119882 37.6528909,25.9442235 38.2804364,25.9417431 C38.9104364,25.9392824 39.3858,26.4004588 39.3882714,27.0172824 C39.3915273,27.6621059 38.9178,28.1562235 38.2943455,28.1603577 C37.6700727,28.1636353 37.1889818,27.6728118 37.1865103,27.0312824" id="Fill-73"/>
                            <path d="M32.0425364,41.7985647 C32.0482636,42.4442118 31.5786273,42.9399765 30.9543545,42.9473882 C30.3300818,42.9539765 29.8457182,42.4656235 29.8408091,41.8240941 C29.8359,41.2031529 30.3030818,40.7337412 30.9289909,40.7288 C31.5606273,40.7246824 32.0368091,41.1825647 32.0425364,41.7985647" id="Fill-75"/>
                            <path d="M13.6790224,30.7174824 C13.6806545,31.3614824 13.2052909,31.8547765 12.5818364,31.8564328 C11.9575636,31.8588941 11.4781091,31.3672471 11.4772867,30.7248941 C11.4756545,30.1056 11.9469273,29.6394824 12.5736545,29.6386544 C13.2044727,29.6370118 13.6773818,30.0990118 13.6790224,30.7174824" id="Fill-77"/>
                            <path d="M21.0242455,30.7126235 C21.0283364,31.3574471 20.5562455,31.8523882 19.9319727,31.8565059 C19.3077,31.8614471 18.8249727,31.3714471 18.8225012,30.7299176 C18.8192455,30.1098 19.2880636,29.6412118 19.9156091,29.6387236 C20.5447909,29.6354471 21.0209727,30.0958 21.0242455,30.7126235" id="Fill-79"/>
                            <path d="M26.1674087,30.7146824 C26.1706909,30.0978588 26.6452364,29.6366824 27.2752364,29.638325 C27.9027818,29.6408 28.3716,30.1077412 28.3699679,30.7278588 C28.3675091,31.3693882 27.8872364,31.8602118 27.2629636,31.8569341 C26.6386909,31.8536235 26.1649636,31.3586824 26.1674087,30.7146824" id="Fill-81"/>
                            <path d="M35.7155352,30.7299176 C35.7122455,31.3714471 35.2295182,31.8614471 34.6060636,31.8565059 C33.9817909,31.8523882 33.5097,31.3574471 33.5137909,30.7126235 C33.5162455,30.0958 33.9932455,29.6354471 34.6232455,29.6387236 C35.2499727,29.6412118 35.7187909,30.1098 35.7155352,30.7299176" id="Fill-83"/>
                            <path d="M10.0059545,34.4052471 C10.0116818,35.0500706 9.54204545,35.5466588 8.91777273,35.5540706 C8.2935,35.5606588 7.80913636,35.0714824 7.80422727,34.4307765 C7.79931818,33.8098353 8.2665,33.3396 8.89240909,33.3354824 C9.52404545,33.3305412 10.0010455,33.7892471 10.0059545,34.4052471" id="Fill-85"/>
                            <path d="M17.3511818,34.4346471 C17.3446364,35.0753529 16.857,35.5628824 16.2343636,35.5538235 C15.6109091,35.5447647 15.1420909,35.0465294 15.1502727,34.4008824 C15.156,33.7857059 15.6346364,33.3294706 16.2679091,33.3352353 C16.8913636,33.341 17.3577273,33.8137059 17.3511818,34.4346471" id="Fill-87"/>
                            <path d="M24.6972273,34.4342353 C24.6906818,35.0749412 24.2030455,35.5624706 23.5804091,35.5534118 C22.9569545,35.5443529 22.4881364,35.0469412 22.4955,34.4012941 C22.5020455,33.7861176 22.9798636,33.3298824 23.6123182,33.3356471 C24.2374091,33.3405882 24.7037727,33.8132941 24.6972273,34.4342353" id="Fill-89"/>
                            <path d="M32.0425364,34.4012118 C32.0499,35.0468588 31.5819,35.5442706 30.9584455,35.5533294 C30.3341727,35.5623882 29.8473545,35.0740353 29.8408091,34.4341529 C29.8342636,33.8132118 30.3006273,33.3405059 30.9257182,33.3355647 C31.5573545,33.3298 32.0359909,33.7860353 32.0425364,34.4012118" id="Fill-91"/>
                            <path d="M39.3877732,34.4253412 C39.3861273,35.0668706 38.9034,35.5576941 38.2799455,35.5535765 C37.6564909,35.5494588 37.1827636,35.0545176 37.1860195,34.4105176 C37.1884909,33.7936941 37.6654909,33.3325176 38.2946727,33.3349784 C38.9222182,33.3374588 39.3902182,33.8052235 39.3877732,34.4253412" id="Fill-93"/>
                            <path d="M30.9591,77.6964588 C31.5841909,77.7022235 32.0497364,78.1757529 32.0423727,78.7966941 C32.0350091,79.4365765 31.5481909,79.9249294 30.9239182,79.9142235 C30.3004636,79.9051647 29.8324636,79.4069294 29.8406455,78.7612824 C29.8488273,78.1461059 30.3274636,77.6906941 30.9591,77.6964588" id="Fill-95"/>
                            <path d="M33.5134636,15.9518471 C33.5061,15.3309059 33.9724636,14.8573765 34.5967364,14.8516118 C35.2300091,14.8458471 35.7086455,15.3004353 35.7151909,15.9164353 C35.7233727,16.5620824 35.2553727,17.0603176 34.6319182,17.0693765 C34.0084636,17.0792588 33.5208273,16.5917294 33.5134636,15.9518471" id="Fill-97"/>
                            <path d="M27.2637,14.8516897 C27.8945182,14.8500471 28.3682455,15.3112235 28.3707042,15.9288706 C28.3723364,16.5728706 27.8977909,17.0669882 27.2743364,17.0694753 C26.6500636,17.0727529 26.1697909,16.5819294 26.168145,15.9395765 C26.1657,15.3202824 26.6353364,14.8533412 27.2637,14.8516897" id="Fill-99"/>
                            <path d="M18.8221909,15.9462471 C18.8181,15.3253059 19.2852818,14.8558941 19.9111909,14.8517765 C20.5428273,14.8476588 21.0198273,15.3063647 21.0239182,15.9223647 C21.0296455,16.5671882 20.5591909,17.0629529 19.9349182,17.0695412 C19.3114636,17.0761294 18.8271,16.5869529 18.8221909,15.9462471" id="Fill-101"/>
                            <path d="M13.6790225,15.9394118 C13.6765636,16.5817647 13.1962909,17.0725882 12.5720182,17.0701269 C11.9493818,17.0668235 11.4748364,16.5727059 11.4772814,15.9287059 C11.4797455,15.3110588 11.9542909,14.8498824 12.5834727,14.851525 C13.2118364,14.854 13.6806545,15.3201176 13.6790225,15.9394118" id="Fill-103"/>
                            <path d="M24.6972369,78.7869765 C24.6939545,79.4285059 24.2120455,79.9193294 23.5885909,79.9143882 C22.9643182,79.9102706 22.4914091,79.4153294 22.4955,78.7705059 C22.4979545,78.1545059 22.9749545,77.6933294 23.6041364,77.696606 C24.2316818,77.6990941 24.6996818,78.1668588 24.6972369,78.7869765" id="Fill-105"/>
                            <path d="M17.3520095,41.8061412 C17.3544545,42.4501412 16.8799091,42.9442588 16.2556364,42.9467459 C15.6321818,42.9500235 15.1519091,42.4583765 15.1502632,41.8168471 C15.1478182,41.1967294 15.6174545,40.7306118 16.245,40.7289548 C16.8758182,40.7264941 17.3495455,41.1884941 17.3520095,41.8061412" id="Fill-107"/>
                            <path d="M22.4951727,41.8267294 C22.4894455,41.2057882 22.9549909,40.7339059 23.5809,40.7289647 C24.2133545,40.7240235 24.6911727,41.1802588 24.6969,41.7962588 C24.7034455,42.4419059 24.2346273,42.9384941 23.6111727,42.9467294 C22.9885364,42.9557882 22.5017182,42.4674353 22.4951727,41.8267294" id="Fill-109"/>
                            <path d="M43.0608273,75.0742588 C43.0649182,75.7190824 42.5920091,76.2132 41.9677364,76.2181412 C41.3434636,76.2222588 40.8615545,75.7322588 40.8590904,75.0907294 C40.8566455,74.4706118 41.3254636,74.0020235 41.9521909,73.999543 C42.5821909,73.9970824 43.0575545,74.4574353 43.0608273,75.0742588" id="Fill-111"/>
                            <path d="M38.2923818,40.728878 C38.9207455,40.7305294 39.3903818,41.1966471 39.3879368,41.8159412 C39.3862909,42.4582941 38.9060182,42.9499412 38.2825636,42.9466635 C37.6582909,42.9441765 37.1837455,42.4508824 37.1853776,41.8068824 C37.1878364,41.1892353 37.6615636,40.7272353 38.2923818,40.728878" id="Fill-113"/>
                            <path d="M13.6790225,45.5136706 C13.6765636,46.1560235 13.1962909,46.6468471 12.5720182,46.6435694 C11.9493818,46.6410824 11.4740182,46.1469647 11.4772741,45.5029647 C11.4797455,44.8853176 11.9542909,44.4233176 12.5834727,44.4257784 C13.2118364,44.4274353 13.6806545,44.8943765 13.6790225,45.5136706" id="Fill-115"/>
                            <path d="M18.8221909,45.5256941 C18.8156455,44.9047529 19.2820091,44.4312235 19.9054636,44.4254588 C20.5387364,44.4196941 21.0173727,44.8751059 21.0239182,45.4902824 C21.0321,46.1367529 20.5649182,46.6341647 19.9406455,46.6432235 C19.3171909,46.6539294 18.8295545,46.1655765 18.8221909,45.5256941" id="Fill-117"/>
                            <path d="M28.3702909,45.4923412 C28.3768364,46.1379882 27.9088364,46.6354 27.2853818,46.6436353 C26.6611091,46.6526941 26.1742909,46.1643412 26.1685636,45.5244588 C26.1620182,44.9035176 26.6283818,44.4308118 27.2534727,44.4258706 C27.8851091,44.4201059 28.3629273,44.8763412 28.3702909,45.4923412" id="Fill-119"/>
                            <path d="M35.7155224,45.5136706 C35.7130636,46.1560235 35.2327909,46.6468471 34.6085182,46.6435694 C33.9850636,46.6410824 33.5105182,46.1469647 33.5137741,45.5021412 C33.5162455,44.8853176 33.9907909,44.4233176 34.6199727,44.4257784 C35.2475182,44.4274353 35.7171545,44.8943765 35.7155224,45.5136706" id="Fill-121"/>
                            <path d="M40.8587727,45.5200941 C40.8546818,44.8991529 41.3210455,44.4297412 41.9477727,44.4256235 C42.5794091,44.4215059 43.0564091,44.8802118 43.0605,45.4962118 C43.0662273,46.1410353 42.5957727,46.6368 41.9715,46.6433882 C41.3480455,46.6508 40.8636818,46.1616235 40.8587727,45.5200941" id="Fill-123"/>
                            <path d="M15.1499455,49.2203765 C15.1434,48.5994353 15.6097636,48.1275529 16.2356727,48.1226118 C16.8681273,48.1168471 17.3451273,48.5739059 17.3516727,49.1890824 C17.3582182,49.8355529 16.8894,50.3321412 16.2659455,50.3403765 C15.6424909,50.3494353 15.1556727,49.8610824 15.1499455,49.2203765" id="Fill-125"/>
                            <path d="M24.6972273,49.2179059 C24.6915,49.8594353 24.2071364,50.3477882 23.5836818,50.3403765 C22.9602273,50.3329647 22.4897727,49.8363765 22.4955,49.1915529 C22.5004091,48.5763765 22.9774091,48.1176706 23.6090455,48.1217882 C24.2357727,48.1267294 24.7021364,48.5969647 24.6972273,49.2179059" id="Fill-127"/>
                            <path d="M32.0425459,49.1994588 C32.0449909,49.8434588 31.5712636,50.3375765 30.9469909,50.3408799 C30.3227182,50.3433412 29.8432636,49.8525176 29.8408048,49.2101647 C29.8391727,48.5908706 30.3088091,48.1239294 30.9363545,48.122278 C31.5663545,48.1206353 32.0400818,48.5818118 32.0425459,49.1994588" id="Fill-129"/>
                            <path d="M37.1857091,49.2050588 C37.1865273,48.5865882 37.6578,48.1229412 38.2869818,48.1221176 C38.9161636,48.1221176 39.3874364,48.5857647 39.3882545,49.2050588 C39.3882545,49.8474118 38.9112545,50.3398824 38.2878,50.3407059 C37.6635273,50.3407059 37.1857091,49.8482353 37.1857091,49.2050588" id="Fill-131"/>
                            <path d="M44.5317377,49.1982235 C44.5342091,48.5814 45.0095727,48.1202235 45.6395727,48.1218662 C46.2663,48.1243412 46.7359364,48.5912824 46.7334914,49.2114 C46.7310273,49.8537529 46.2507545,50.3445765 45.6264818,50.3404588 C45.0022091,50.3371647 44.5284818,49.8422235 44.5317377,49.1982235" id="Fill-133"/>
                            <path d="M35.7155182,75.0943529 C35.7106091,75.7358824 35.2262455,76.2250588 34.6027909,76.2176471 C33.9793364,76.2110588 33.5080636,75.7144706 33.5137909,75.0696471 C33.5178818,74.4544706 33.9948818,73.9957647 34.6265182,73.9998824 C35.2532455,74.004 35.7204273,74.4734118 35.7155182,75.0943529" id="Fill-135"/>
                            <path d="M6.33370909,15.9217059 C6.33861818,16.5665294 5.86816364,17.0631176 5.24470909,17.0697059 C4.62043636,17.0762941 4.13607273,16.5879412 4.13198182,15.9464118 C4.12707273,15.3254706 4.59425455,14.8560588 5.22016364,14.8519412 C5.85098182,14.847 6.32798182,15.3057059 6.33370909,15.9217059" id="Fill-137"/>
                            <path d="M28.3694727,75.1382471 C28.3465636,75.7707176 27.8360182,76.2475412 27.2133818,76.2170706 C26.5923818,76.1866 26.1432,75.6751882 26.1685636,75.0262471 C26.1914727,74.4193059 26.6856545,73.9803647 27.3246545,74.0001294 C27.9399273,74.0190706 28.3915636,74.5115412 28.3694727,75.1382471" id="Fill-139"/>
                            <path d="M29.840465,12.2307294 C29.8437545,11.6139059 30.3183,11.1527294 30.9483,11.1543721 C31.5758455,11.1568471 32.0446636,11.6237882 32.0422187,12.2439059 C32.0397545,12.8862588 31.5603,13.3770824 30.9352091,13.3729647 C30.3109364,13.3696706 29.8372091,12.8747294 29.840465,12.2307294" id="Fill-141"/>
                            <path d="M23.6034,11.1546136 C24.2309455,11.1570941 24.6997636,11.6248588 24.6973187,12.2449765 C24.6940364,12.8873294 24.2129455,13.3773294 23.5886727,13.3732118 C22.9652182,13.3690941 22.4914909,12.8741529 22.4955818,12.2293294 C22.4980364,11.6133294 22.9734,11.1521529 23.6034,11.1546136" id="Fill-143"/>
                            <path d="M44.5317545,71.3973647 C44.5268455,70.7764235 44.9940273,70.3070118 45.6207545,70.3028941 C46.2523909,70.2987765 46.7285727,70.7574824 46.7334818,71.3734824 C46.7392091,72.0183059 46.2679364,72.5140706 45.6444818,72.5214824 C45.0210273,72.5280706 44.5366636,72.0388941 44.5317545,71.3973647" id="Fill-145"/>
                            <path d="M16.263,55.5158471 C16.8897273,55.5199647 17.3560909,55.9893765 17.3511818,56.6111412 C17.3470909,57.2518471 16.8627273,57.7410235 16.2392727,57.7336118 C15.6158182,57.7278471 15.1445455,57.2304353 15.1502727,56.5864353 C15.1551818,55.9704353 15.6321818,55.5117294 16.263,55.5158471" id="Fill-147"/>
                            <path d="M24.6964909,56.6542118 C24.6744,57.2866824 24.1638545,57.7635059 23.5412182,57.7330353 C22.9194,57.7025647 22.4710364,57.1911529 22.4964,56.5422118 C22.5184909,55.9360941 23.0134909,55.4971529 23.6516727,55.5160941 C24.2669455,55.5350353 24.7185818,56.0275059 24.6964909,56.6542118" id="Fill-149"/>
                            <path d="M32.0425364,56.6116353 C32.0376273,57.2523412 31.5524455,57.7415176 30.9289909,57.7341059 C30.3055364,57.7266941 29.8350818,57.2301059 29.8408091,56.5852824 C29.8457182,55.9692824 30.3227182,55.5114 30.9551727,55.5155176 C31.5810818,55.5204588 32.0474455,55.9906941 32.0425364,56.6116353" id="Fill-151"/>
                            <path d="M39.3877636,56.6421882 C39.3705818,57.2779529 38.8674,57.7572471 38.2439455,57.7333647 C37.6221273,57.7094824 37.1672182,57.2021882 37.1868545,56.5548941 C37.2048545,55.9454824 37.6941273,55.5007765 38.3306727,55.5164235 C38.9492182,55.5304235 39.4049455,56.0171294 39.3877636,56.6421882" id="Fill-153"/>
                            <path d="M44.5317545,56.6116353 C44.5268455,55.9906941 44.9932091,55.5204588 45.6191182,55.5155176 C46.2515727,55.5114 46.7285727,55.9692824 46.7334818,56.5852824 C46.7392091,57.2301059 46.2695727,57.7266941 45.6453,57.7341059 C45.0226636,57.7415176 44.5366636,57.2523412 44.5317545,56.6116353" id="Fill-155"/>
                            <path d="M21.0242497,60.3002235 C21.0226091,60.9425765 20.5423364,61.4334 19.9180636,61.4309387 C19.2954273,61.4284588 18.8200636,60.9343412 18.8225087,60.2903412 C18.8249727,59.6726941 19.2987,59.2106941 19.9278818,59.2123368 C20.5562455,59.2139882 21.0258818,59.6809294 21.0242497,60.3002235" id="Fill-157"/>
                            <path d="M26.167414,60.2905882 C26.1698727,59.6729412 26.6436,59.2109412 27.2736,59.2125838 C27.9011455,59.2142353 28.3707818,59.6803529 28.3699647,60.2996471 C28.3683273,60.942 27.8888727,61.4336471 27.2646,61.4311857 C26.6411455,61.4287059 26.1657818,60.9345882 26.167414,60.2905882" id="Fill-159"/>
                            <path d="M35.7155224,60.2913294 C35.7171545,60.9353294 35.2417909,61.4286235 34.6183364,61.4310982 C33.9940636,61.4327412 33.5146091,60.9410941 33.5137867,60.2987412 C33.5121545,59.6794471 33.9826091,59.2133294 34.6101545,59.2125015 C35.2409727,59.2108588 35.7138818,59.6736824 35.7155224,60.2913294" id="Fill-161"/>
                            <path d="M43.0600091,60.3508706 C43.0379182,60.9841647 42.5273727,61.4601647 41.9047364,61.4296941 C41.2837364,61.3992235 40.8345545,60.8878118 40.8599182,60.2388706 C40.8828273,59.6327529 41.3770091,59.1938118 42.0160091,59.2135765 C42.6312818,59.2325176 43.0829182,59.7249882 43.0600091,60.3508706" id="Fill-163"/>
                            <path d="M49.3234364,59.2125059 C49.9485273,59.2190941 50.4132545,59.6918 50.4058909,60.3135647 C50.3985273,60.9534471 49.9108909,61.4409765 49.2874364,61.4310941 C48.6639818,61.4212118 48.1968,60.9229765 48.2049818,60.2765059 C48.2123455,59.6621529 48.6909818,59.2067412 49.3234364,59.2125059" id="Fill-165"/>
                            <path d="M39.3885818,71.3728235 C39.3943091,72.0176471 38.9238545,72.5142353 38.2995818,72.5216471 C37.6753091,72.5282353 37.1909455,72.0390588 37.1868545,71.3983529 C37.1811273,70.7774118 37.6483091,70.3071765 38.2750364,70.3030588 C38.9058545,70.2989412 39.3828545,70.7568235 39.3885818,71.3728235" id="Fill-167"/>
                            <path d="M24.6972273,64.0048706 C24.6923182,64.6464 24.2071364,65.1347529 23.5836818,65.1273412 C22.9602273,65.1207529 22.4897727,64.6233412 22.4955,63.9793412 C22.5004091,63.3633412 22.9774091,62.9054588 23.6090455,62.9095765 C24.2349545,62.9136941 24.7021364,63.3839294 24.6972273,64.0048706" id="Fill-169"/>
                            <path d="M32.0425459,63.9980353 C32.0400818,64.6403882 31.5598091,65.1303882 30.9355364,65.1279269 C30.3120818,65.1246235 29.8375364,64.6296824 29.8407923,63.9856824 C29.8432636,63.3688588 30.3186273,62.9076824 30.9478091,62.909325 C31.5753545,62.9118 32.0449909,63.3779176 32.0425459,63.9980353" id="Fill-171"/>
                            <path d="M37.1865273,64.0076706 C37.1799818,63.3867294 37.6463455,62.9148471 38.2714364,62.9099059 C38.9038909,62.9041412 39.3817091,63.3603765 39.3874364,63.9755529 C39.3948,64.6212 38.9259818,65.1194353 38.3025273,65.1276706 C37.6798909,65.1359059 37.1930727,64.6483765 37.1865273,64.0076706" id="Fill-173"/>
                            <path d="M46.7338091,64.0048706 C46.7289,64.6455765 46.2437182,65.1347529 45.6202636,65.1273412 C44.9968091,65.1207529 44.5263545,64.6233412 44.5320818,63.9793412 C44.5369909,63.3633412 45.0139909,62.9054588 45.6456273,62.9095765 C46.2715364,62.9136941 46.7387182,63.3839294 46.7338091,64.0048706" id="Fill-175"/>
                            <path d="M29.8404722,71.3925059 C29.8380273,70.7732118 30.3068455,70.3054471 30.9343909,70.3029666 C31.5643909,70.3005059 32.0397545,70.7608588 32.042226,71.3776824 C32.0454818,72.0225059 31.5725727,72.5174471 30.9483,72.5215812 C30.3256636,72.5248588 29.8437545,72.0348588 29.8404722,71.3925059" id="Fill-177"/>
                            <path d="M15.1499359,12.2427529 C15.1474909,11.6234588 15.6171273,11.1565176 16.2454909,11.1548662 C16.8754909,11.1532235 17.3492182,11.6144 17.3516822,12.2320471 C17.3541273,12.8760471 16.8795818,13.3701647 16.2561273,13.3734681 C15.6326727,13.3759294 15.1515818,12.8851059 15.1499359,12.2427529" id="Fill-179"/>
                            <path d="M10.0059588,12.2346824 C10.0075909,12.8786824 9.53140909,13.3711529 8.90795455,13.3728041 C8.2845,13.3744471 7.80504545,12.8828 7.80422621,12.2396235 C7.80340909,11.6203294 8.27468182,11.1558588 8.90222727,11.1542118 C9.53222727,11.1542118 10.0051364,11.6162118 10.0059588,12.2346824" id="Fill-181"/>
                            <path d="M22.4951727,71.3772706 C22.4984455,70.7604471 22.9746273,70.3000941 23.6038091,70.3025548 C24.2313545,70.3058588 24.7001727,70.7736235 24.696917,71.3937412 C24.6944455,72.0352706 24.2125364,72.5260941 23.5882636,72.5211529 C22.9639909,72.5162118 22.4910818,72.0212706 22.4951727,71.3772706" id="Fill-183"/>
                            <path d="M32.0425364,4.83543529 C32.0466273,5.48025882 31.5745364,5.9752 30.9502636,5.97931765 C30.3259909,5.98425882 29.8432636,5.49425882 29.8407921,4.85272941 C29.8375364,4.23261176 30.3063545,3.76402353 30.9339,3.76153537 C31.5630818,3.75825882 32.0392636,4.21861176 32.0425364,4.83543529" id="Fill-185"/>
                            <path d="M22.4951559,4.83782353 C22.4976273,4.221 22.9721727,3.759 23.6021727,3.76146073 C24.2297182,3.76311765 24.6993545,4.23005882 24.6969096,4.85017647 C24.6944455,5.49170588 24.2141727,5.98252941 23.5907182,5.97925178 C22.9664455,5.97594118 22.4919,5.48182353 22.4951559,4.83782353" id="Fill-187"/>
                            <path d="M37.1865273,78.7705059 C37.1889818,78.2286235 37.5939818,77.7633294 38.1143455,77.7032118 C38.7083455,77.6340353 39.2221636,77.9618 39.3596182,78.4987412 C39.4357091,78.7943882 39.3858,79.0225059 39.0667091,79.1559176 C38.7631636,79.2843882 38.4645273,79.4350941 38.1830727,79.6055647 C37.6938,79.9003882 37.5088909,79.6607412 37.3051636,79.3049765 C37.2110727,79.1419176 37.1783455,78.9590941 37.1865273,78.7705059" id="Fill-189"/>
                            <path d="M2.66629091,12.1165059 C2.65565455,12.6929765 2.4642,13.0561529 2.03629091,13.2612118 C1.61001818,13.4662706 1.20583636,13.3970941 0.839290909,13.1063882 C0.612654545,12.9276824 0.566018182,12.7234471 0.743563636,12.4698 C0.992290909,12.1165059 1.28929091,11.8109765 1.60510909,11.5219176 C1.98556364,11.1727412 2.19992727,11.2040353 2.48301818,11.6355647 C2.60001818,11.8126235 2.67529091,12.0045059 2.66629091,12.1165059" id="Fill-191"/>
                            <path d="M28.3694727,1.16331765 C28.3645636,1.70437647 28.0209273,2.14084706 27.5079273,2.25778824 C27.0039273,2.37143529 26.4811091,2.10708235 26.2642909,1.63602353 C26.1513818,1.39225882 26.1702,1.21849412 26.4524727,1.11555294 C26.8771091,0.960729412 27.2755636,0.740023529 27.7198364,0.636258824 C28.2115636,0.522611765 28.3743818,0.653552941 28.3694727,1.16331765" id="Fill-193"/>
                            <path d="M51.8754273,71.3800706 C51.8827909,70.9477176 52.0783364,70.6207765 52.4555182,70.4256 C52.8425182,70.2246588 53.2336091,70.2485412 53.6058818,70.4840706 C53.8308818,70.6248941 53.8840636,70.7854824 53.7269727,71.0341882 C53.4496091,71.4731294 53.0797909,71.7984235 52.6396091,72.0545412 C52.2517909,72.2801882 52.1151545,72.2324235 51.9507,71.8148941 C51.8950636,71.6748941 51.8729727,71.5307765 51.8754273,71.3800706" id="Fill-195"/>
                            <path d="M2.65827273,19.8294353 C2.65336364,20.0147294 2.51672727,20.3144941 2.22709091,20.5426118 C2.03154545,20.6957882 1.88345455,20.7081412 1.79181818,20.4306118 C1.61918182,19.9060235 1.43836364,19.3830824 1.25754545,18.8617882 C1.18636364,18.6559059 1.25427273,18.5694353 1.46863636,18.5480235 C2.11336364,18.4821412 2.66809091,18.9886118 2.65827273,19.8294353" id="Fill-197"/>
                            <path d="M6.33289091,30.7094118 C6.34598182,31.0347059 6.23143636,31.3130588 6.00807273,31.5395294 C5.83625455,31.7132941 5.67425455,31.7470588 5.57852727,31.4555294 C5.40589091,30.9317647 5.23161818,30.4088235 5.0508,29.8883529 C4.98616364,29.7055294 5.04834545,29.6495294 5.22670909,29.6363529 C5.80107273,29.5927059 6.3288,30.0991765 6.33289091,30.7094118" id="Fill-199"/>
                            <path d="M10.0059545,41.8114118 C10.0174091,42.1095294 9.91268182,42.3664706 9.72040909,42.5871765 C9.59277273,42.7345882 9.46922727,42.7387059 9.39640909,42.5336471 C9.21640909,42.0247059 9.04213636,41.5141176 8.86295455,41.0051765 C8.78195455,40.7754118 8.88422727,40.7177647 9.09122727,40.7342353 C9.57886364,40.7729412 10.0059545,41.2736471 10.0059545,41.8114118" id="Fill-201"/>
                            <path d="M13.6790182,52.8980941 C13.6872,53.1533882 13.6143818,53.3831529 13.4622,53.5865647 C13.3582909,53.7257412 13.2552,53.7208 13.1954727,53.5569176 C13.0154727,53.0611529 12.8428364,52.5629176 12.6734727,52.0630353 C12.5973818,51.8357412 12.7209273,51.8069176 12.9050182,51.8513882 C13.3378364,51.9576235 13.6773818,52.4163294 13.6790182,52.8980941" id="Fill-203"/>
                            <path d="M16.2597273,5.97618824 C16.2237273,5.97618824 16.1860909,5.98030588 16.1500909,5.97536471 C15.9185455,5.9416 15.6117273,5.90371765 15.5659091,5.68465882 C15.5266364,5.49607059 15.8506364,5.48454118 16.0142727,5.40795294 C16.3669091,5.2416 16.7342727,5.10818824 17.0950909,4.96324706 C17.3102727,4.8776 17.361,4.96489412 17.3151818,5.16912941 C17.2129091,5.6196 16.7539091,5.97536471 16.2597273,5.97618824" id="Fill-205"/>
                            <path d="M52.1455091,63.3024 C52.2526909,63.3007529 52.2649636,63.3855765 52.2878727,63.4506353 C52.4506909,63.9151059 52.6126909,64.3804 52.7714182,64.8465176 C52.8131455,64.9733412 52.8368727,65.1232235 52.6257818,65.0622824 C52.2706909,64.9593412 52.0399636,64.7089882 51.9311455,64.3581647 C51.8231455,64.0122824 51.8526,63.6762824 52.0686,63.3724 C52.0890545,63.3435765 52.1226,63.3238118 52.1455091,63.3024" id="Fill-207"/>
                            <path d="M17.352,64.0185412 C17.3503636,64.0506588 17.3560909,64.1140706 17.3413636,64.1725412 C17.2988182,64.3586588 17.2930909,64.6230118 17.0828182,64.6477176 C16.9339091,64.6641882 16.9314545,64.4014824 16.8782727,64.2606588 C16.74,63.8958353 16.6180909,63.5236 16.4912727,63.1546588 C16.4691818,63.0879529 16.4331818,63.0006588 16.515,62.9594824 C16.5575455,62.9380706 16.6311818,62.9652471 16.686,62.9850118 C17.0738182,63.1258353 17.3503636,63.5458353 17.352,64.0185412" id="Fill-209"/>
                            <path d="M48.2016273,52.9021294 C48.2073545,52.8346 48.2040818,52.7588353 48.2196273,52.6880118 C48.2499,52.5587176 48.2638091,52.3742471 48.4061727,52.3586 C48.5509909,52.3437765 48.5436273,52.5331882 48.5829,52.6410706 C48.7105364,52.9869529 48.8308091,53.3353059 48.9494455,53.6844824 C48.9731727,53.7520118 49.0099909,53.8318941 48.9494455,53.8936588 C48.8684455,53.9760118 48.7899,53.9060118 48.7195364,53.8648353 C48.3529909,53.6540118 48.2147182,53.3155412 48.2016273,52.9021294" id="Fill-211"/>
                            <path d="M21.0194182,75.0831529 C21.0194182,75.1317412 21.0267818,75.1819765 21.0177818,75.2289176 C20.9924182,75.3697412 21.0063273,75.5797412 20.8525091,75.6011529 C20.6937818,75.6250353 20.7052364,75.4092706 20.6626909,75.2939765 C20.5522364,74.9966824 20.4573273,74.6936235 20.3591455,74.3913882 C20.3346,74.3131529 20.2724182,74.2168 20.3550545,74.1533882 C20.4532364,74.0776235 20.5391455,74.1665647 20.6111455,74.2250353 C20.8795091,74.4457412 21.0325091,74.7257412 21.0194182,75.0831529" id="Fill-213"/>
                        </g>
                        <path d="M40.5150208,32.9326514 C42.2093257,38.1877114 39.3223408,43.8208039 34.0670688,45.5150404 C28.8117968,47.2092769 23.178477,44.3224085 21.4849851,39.0673486 C19.7906802,33.8122886 22.6776652,28.1791961 27.9321241,26.4849596 C33.1873961,24.7907231 38.821529,27.6775915 40.5150208,32.9326514" id="Fill-216" fill="#FFFFFF"/>
                        <path d="M32.7863671,40.042621 L33.3594014,41.7243577 L32.5547658,42 L31.9817315,40.3174666 C29.9204,40.9181438 28.6453988,40.3485361 28.3747993,39.5550687 C28.2355201,39.1463852 28.443245,38.7241585 28.8865507,38.5727943 C30.0763927,38.1665007 29.9466641,40.2688707 32.1401118,39.5200159 C33.0967607,39.1933878 33.6252256,38.4142601 33.355422,37.6590321 C33.0720884,36.8297152 32.0931548,36.6687911 30.7059344,36.7253535 C29.1308861,36.8066122 27.6680571,36.6018721 27.1236745,35.0021908 C26.6620636,33.6478789 27.5335532,32.4242183 29.0568692,31.7351125 L28.5586478,30.2748456 L29.3640792,30 L29.8575254,31.4483171 C31.2813563,31.0404302 32.6558426,31.2881896 32.9415639,32.1286596 C33.0776595,32.5253933 32.9240545,32.8783111 32.5157676,33.0177256 C31.5471806,33.348337 31.5702611,31.6203943 29.7620197,32.2378012 C28.8984889,32.5325632 28.4281233,33.2917745 28.6477864,33.9346744 C28.9104271,34.7050388 29.7994261,34.8317068 31.1285472,34.7560247 C32.7720413,34.651663 34.3057037,34.7926708 34.8548616,36.4043019 C35.3721842,37.9227246 34.4656758,39.3128859 32.7863671,40.042621" id="Fill-218" fill="#3A3A3A"/>
                        <path d="M5,18 L28.5625067,86.1814062 C29.7032142,89.4543454 33.4747351,90.9546839 36.5458071,89.3575227 L51,81.8401068" id="Stroke-220" stroke="#3A3A3A" stroke-width="2.5" stroke-linecap="round" stroke-linejoin="round"/>
                        <path d="M73.75432,24.4109036 C74.4733557,23.841451 75.3899958,23.8667392 75.8017439,24.4689728 C76.2126214,25.0702698 75.964528,26.0190454 75.2454922,26.5894346 C74.5273269,27.1588872 73.6106869,27.1326624 73.1980683,26.5313654 C72.7871907,25.9300684 73.0361547,24.9803563 73.75432,24.4109036 Z" id="Stroke-222" stroke="#3A3A3A" stroke-width="2.5" stroke-linecap="round" stroke-linejoin="round"/>
                        <path d="M54,17 C50.3183255,19.7479881 46.2919154,22.0985558 42,24" id="Stroke-224" stroke="#3A3A3A" stroke-width="2.5" stroke-linecap="round" stroke-linejoin="round"/>
                        <path d="M61,11 L60.1515152,11.8571429 C59.425147,12.5902481 59.7625509,12.3019675 59,13" id="Stroke-226" stroke="#3A3A3A" stroke-width="2.5" stroke-linecap="round" stroke-linejoin="round"/>
                        <path d="M67,47 C65.4536453,48.0183911 64.134175,49.4048856 63.161468,51.0710375 L63.161468,51.0710375 C61.0253744,54.7318546 57.7902587,57.5107399 54,59" id="Stroke-228" stroke="#3A3A3A" stroke-width="2.5" stroke-linecap="round" stroke-linejoin="round"/>
                        <line x1="76" y1="44.263" x2="74" y2="44.737" id="Stroke-230" stroke="#3A3A3A" stroke-width="2.5" stroke-linecap="round" stroke-linejoin="round"/>
                        <path d="M59.3768233,22 L57.0226904,25.6863161 C54.8557536,29.5375572 51.5615883,32.6213259 47.5907618,34.5155127 L45,35.7508165 L49.1458671,47 L54.1580227,44.2003592 C58.5494327,41.7542456 61.6531605,39.661659 64.0267423,35.9606466 L67,31.6048334 L59.3768233,22 Z" id="Fill-232" fill="#F5B884"/>
                        <path d="M58.525917,34.0075038 C59.3348935,35.5709793 59.0831373,37.2822298 57.9645008,37.8300586 C56.8458642,38.3787038 55.2832976,37.5549195 54.4743212,35.9922605 C53.6653447,34.428785 53.9162617,32.7175345 55.0357374,32.1697057 C56.154374,31.621877 57.7169406,32.4440283 58.525917,34.0075038 Z" id="Stroke-234" stroke="#FFFFFF" stroke-width="2.5" stroke-linecap="round"/>
                        <path d="M82.0506316,39 L79,50.4364595 L79.8166786,50.5779689 C86.0625449,51.6584351 91.8852829,54.4877913 96.6243196,58.7488901 L98.0169457,60 L103,49.5 L100.757009,47.4764151 C95.5324022,42.7649834 88.998973,39.804939 82.0506316,39" id="Fill-236" fill="#F5B884"/>
                        <line x1="100" y1="29.1875" x2="101" y2="29.8125" id="Stroke-238" stroke="#3A3A3A" stroke-width="2.5" stroke-linecap="round" stroke-linejoin="round"/>
                        <path d="M84,25 L84,25 C88.8394134,25 93.6137339,26.0259705 98,28" id="Stroke-240" stroke="#3A3A3A" stroke-width="2.5" stroke-linecap="round" stroke-linejoin="round"/>
                        <path d="M64,3.29042387 L64.9636428,15 C72.2005584,12.3615709 79.9739435,11.4895197 87.6246831,12.4580988 L90,12.7584078 L88.5090652,1.92913305 L85.9552033,1.54302148 C78.7383115,0.453163795 71.3637326,1.00840544 64.3971376,3.16749519 L64,3.29042387 Z" id="Fill-242" fill="#F5B884"/>
                        <path d="M79.9889492,5.82517996 C80.1175692,7.47962331 79.1086537,8.89828277 77.7339229,8.99481175 C76.3591921,9.09134072 75.1398075,7.82934304 75.0111875,6.17489969 C74.8817323,4.52045634 75.8906477,3.10179687 77.2653786,3.0052679 C78.6401094,2.9079477 79.859494,4.1707366 79.9889492,5.82517996 Z" id="Stroke-244" stroke="#FFFFFF" stroke-width="2.5" stroke-linecap="round"/>
                        <path d="M92.8031498,47.7575775 C92.267968,49.3605325 90.8021057,50.3206944 89.5295261,49.9018318 C88.2569465,49.4837747 87.6608562,47.844572 88.1968502,46.2424225 C88.732032,44.6394675 90.1987064,43.6793056 91.4704739,44.0981682 C92.7430535,44.5162253 93.3391438,46.1546225 92.8031498,47.7575775 Z" id="Stroke-246" stroke="#FFFFFF" stroke-width="2.5" stroke-linecap="round"/>
                        <path d="M96,8 C96,8 103.967397,8.58392756 110,15" id="Stroke-248" stroke="#3A3A3A" stroke-width="2.5" stroke-linecap="round" stroke-linejoin="round"/>
                        <path d="M115.361041,19.5201908 C116.039641,20.1477898 116.203503,21.0942127 115.727948,21.6350258 C115.253284,22.1767524 114.317315,22.1073237 113.638714,21.4806383 C112.961005,20.8530393 112.796252,19.9057029 113.271807,19.3648898 C113.747362,18.8231632 114.682441,18.8925919 115.361041,19.5201908 Z" id="Stroke-250" stroke="#3A3A3A" stroke-width="2.5" stroke-linecap="round" stroke-linejoin="round"/>
                    </g>
                </g>
            </g>
        </g>
    </g>
</svg>