<svg xmlns="http://www.w3.org/2000/svg" viewBox="0 0 103 26" fill="currentColor"><g clip-path="url(#clip0_443_7804)"><path d="M0 9.46873V25.5504H15.2921V17.0005H6.33579V14.2774H11.9354V11.8416H6.33579V9.31683H15.2921V0.569886H0V9.46873ZM81.5004 0.708097H75.1646V25.6407H81.5004V0.708097ZM17.1244 12.9596V13.1142C17.1244 20.1287 19.0402 25.8131 26.2655 25.8131C29.2021 25.8131 32.4165 24.6623 33.8137 23.2159V15.0245C31.4833 16.6146 29.9465 17.6286 27.4875 17.6286C25.4184 17.6286 23.3672 16.4819 23.3672 13.1238V12.95C23.3672 9.59188 25.4266 8.44652 27.4861 8.44652C29.9465 8.44652 31.4833 9.45915 33.8137 11.0493V2.85652C32.4179 1.4101 29.2021 0.257886 26.2655 0.257886C19.0402 0.257886 17.1244 5.94504 17.1244 12.9596ZM66.0687 12.1262C65.4146 11.9209 64.9959 11.7841 63.6521 11.3366C62.7257 11.0287 61.9484 10.6976 61.9005 9.93673C61.8349 8.93778 63.0349 8.73662 64.4431 8.77083C67.6698 8.8461 71.9694 10.6976 72.0296 10.7044V1.70294C72.0296 1.70294 68.6099 0.175781 63.9956 0.175781C57.1863 0.175781 55.5866 4.02515 55.5866 6.95631C55.5866 10.4458 58.3987 12.2931 62.7791 13.8805C63.451 14.0954 63.8519 14.2199 65.1957 14.6687C66.1221 14.9766 66.8994 15.3078 66.9473 16.0686C67.013 17.0676 65.8128 17.2687 64.4047 17.2345C61.178 17.1593 56.03 14.6988 55.9712 14.692V23.6948C55.9712 23.6948 60.2379 25.8296 64.8522 25.8296C71.6615 25.8296 73.6648 21.9788 73.5636 19.049C73.4733 16.4682 71.8188 13.8627 66.0687 12.1248V12.1262ZM98.1815 0.708097H87.7021L83.2479 25.6407H90.0353L90.7277 21.363H95.1504L95.8429 25.6394H102.63L98.1829 0.708097H98.1815ZM91.1259 18.93L92.9404 7.54473L94.7577 18.9272L91.1259 18.93ZM44.9937 0.248308C37.726 0.248308 35.8526 5.97515 35.8526 13.0389C35.8526 20.1027 37.726 25.8296 44.9937 25.8296C52.2641 25.8296 54.1347 20.1027 54.1347 13.0389C54.1347 5.97652 52.2641 0.248308 44.9937 0.248308ZM48.3285 13.0458C48.3285 15.7142 47.3474 17.879 44.9992 17.879C42.6496 17.879 41.8203 15.7156 41.819 13.0458V13.0321C41.819 10.3637 42.6496 8.19883 44.9992 8.19883C47.3474 8.19883 48.3272 10.3623 48.3285 13.0321V13.0458Z" fill="currentColor"/></g><defs><clipPath id="clip0_443_7804"><rect width="102.632" height="26" fill="currentColor"/></clipPath></defs></svg>