<svg xmlns:xlink="http://www.w3.org/1999/xlink" xmlns="http://www.w3.org/2000/svg" viewBox="0 0 87.58 66.9" width="87.58"  height="66.9" ><script xmlns=""/><defs><style>.d,.e{fill:#f5b884;}.e{stroke:#f5b884;}.e,.f{stroke-linecap:round;stroke-linejoin:round;stroke-width:2px;}.f{fill:none;stroke:#3a3a3a;}</style></defs><g id="a"/><g id="b"><g id="c"><path class="f" d="M20.84,28.56H12.32c-4.53,0-8.77-2.24-11.32-5.98H23.8c2.74,0,5.37,1.09,7.3,3.03l1.71,1.71"/><path class="f" d="M29.58,45.07c-4.53,0-7.47-1.55-10.02-5.29h0"/><path class="f" d="M24.97,37.16h-2.9c-4.53,0-8.77-2.24-11.32-5.98h0"/><path class="f" d="M66.74,28.56h8.51c4.53,0,8.77-2.24,11.32-5.98h-22.8c-2.74,0-5.37,1.09-7.3,3.03l-1.71,1.71"/><path class="f" d="M58,45.07c4.53,0,7.47-1.55,10.02-5.29h0"/><path class="f" d="M62.61,37.16h2.9c4.53,0,8.77-2.24,11.32-5.98h0"/><g><path class="f" d="M21.68,6.67c3.13,0,5.67,2.54,5.67,5.67"/><path class="f" d="M27.34,12.34c0-3.13,2.54-5.67,5.67-5.67"/><path class="f" d="M27.34,1c0,3.13-2.54,5.67-5.67,5.67"/><path class="f" d="M33.01,6.67c-3.13,0-5.67-2.54-5.67-5.67"/></g><path class="d" d="M29.94,53.37l2.23-11.34c.11-.49-.05-1.01-.42-1.36l-8.24-8.13c-.67-.49-.82-1.43-.33-2.1,.28-.38,.71-.61,1.18-.62l11.79-1.58c.48-.06,.9-.35,1.12-.78l6.18-10.09c.36-.74,1.25-1.04,1.99-.67,.29,.14,.53,.38,.67,.67l4.33,10.14c.23,.44,.65,.75,1.14,.83l11.61,1.81c.81,.11,1.38,.86,1.27,1.67-.05,.35-.22,.66-.47,.9l-8.6,7.99c-.37,.34-.55,.84-.47,1.34l1.81,11.45c.13,.82-.43,1.59-1.26,1.72-.32,.05-.65,0-.94-.16l-10.41-5.43c-.43-.22-.94-.22-1.38,0l-10.61,5.32c-.71,.41-1.62,.16-2.03-.55-.18-.32-.24-.69-.16-1.04Z"/><path class="f" d="M31.03,42.54l-8.24-8.13c-.67-.49-.82-1.43-.33-2.1,.28-.38,.71-.61,1.18-.62l11.79-1.58"/><path class="f" d="M42.73,19.25c.36-.74,1.25-1.04,1.99-.67,.29,.14,.53,.38,.67,.67l4.33,10.14c.23,.44,.65,.75,1.14,.83l11.61,1.81c.81,.11,1.38,.86,1.27,1.67-.05,.35-.22,.66-.47,.9l-8.6,7.99c-.37,.34-.55,.84-.47,1.34l1.81,11.45c.13,.82-.43,1.59-1.26,1.72-.32,.05-.65,0-.94-.16l-10.41-5.43c-.43-.22-.94-.22-1.38,0l-10.61,5.32c-.71,.41-1.62,.16-2.03-.55-.18-.32-.24-.69-.16-1.04"/><path class="e" d="M19.86,55.73c0,2.81-1.56,5.09-3.49,5.09,1.93,0,3.49,2.28,3.49,5.09,0-2.81,1.56-5.09,3.49-5.09-1.93,0-3.49-2.28-3.49-5.09Z"/><path class="e" d="M58.88,6.02c0,2.81-1.56,5.09-3.49,5.09,1.93,0,3.49,2.28,3.49,5.09,0-2.81,1.56-5.09,3.49-5.09-1.93,0-3.49-2.28-3.49-5.09Z"/></g></g></svg>