<svg xmlns="http://www.w3.org/2000/svg" xmlns:xlink="http://www.w3.org/1999/xlink" viewBox="0 0 104 101" version="1.1"><script xmlns=""/><title>Stay-alert-illustration</title><defs><polygon id="path-1" points="0.470476923 0.734693548 52.1862462 0.734693548 52.1862462 100.185321 0.470476923 100.185321"/><polygon id="path-3" points="0.749759594 0.125112543 9.41083333 0.125112543 9.41083333 30.2499272 0.749759594 30.2499272"/></defs><g id="Features-template" stroke="none" stroke-width="1" fill="none" fill-rule="evenodd"><g id="Feature-page-Mobile-banking-LG-Desktop-hover-benefits" transform="translate(-558.000000, -1008.000000)"><g id="Group-24" transform="translate(188.000000, 846.000000)"><g id="Group-21" transform="translate(290.000000, 162.000000)"><g id="Stay-alert-illustration" transform="translate(80.000000, 0.000000)"><g id="Group-3" transform="translate(24.000000, 0.000000)"><mask id="mask-2" fill="white"><use xlink:href="#path-1"/></mask><g id="Clip-2"/><path d="M44.7466769,100.185321 L7.91004615,100.185321 C3.80132308,100.185321 0.470476923,96.8588371 0.470476923,92.7536758 L0.470476923,8.16617581 C0.470476923,4.06182903 3.80132308,0.734530645 7.91004615,0.734530645 L44.7466769,0.734530645 C48.8554,0.734530645 52.1862462,4.06182903 52.1862462,8.16617581 L52.1862462,92.7536758 C52.1862462,96.8588371 48.8554,100.185321 44.7466769,100.185321" id="Fill-1" fill="#F5B884" mask="url(#mask-2)"/></g><path d="M67.1918576,96 L33.8097499,96 C31.1532955,96 29,93.8108225 29,91.1109185 L29,9.88908146 C29,7.18917754 31.1532955,5 33.8097499,5 L67.1918576,5 C69.8483121,5 72,7.18917754 72,9.88908146 L72,91.1109185 C72,93.8108225 69.8483121,96 67.1918576,96" id="Fill-4" fill="#FFFFFF"/><path d="M29,10 C29,7.23884339 31.2392177,5 34,5" id="Stroke-6" stroke="#3A3A3A" stroke-width="3" stroke-linecap="round" stroke-linejoin="round"/><path d="M34,96 C31.2383818,96 29,93.8110423 29,91.1114094 L29,19" id="Stroke-8" stroke="#3A3A3A" stroke-width="3" stroke-linecap="round" stroke-linejoin="round"/><path d="M73,64 L73,91.1166658 C73,93.8133959 70.8185223,96 68.1281147,96 L43,96" id="Stroke-10" stroke="#3A3A3A" stroke-width="3" stroke-linecap="round" stroke-linejoin="round"/><path d="M68,6 C70.7619923,6 73,8.16996288 73,10.8461694 L73,54" id="Stroke-12" stroke="#3A3A3A" stroke-width="3" stroke-linecap="round" stroke-linejoin="round"/><path d="M56.3311776,10 L44.6696526,10 C42.6430413,10 41,8.44336654 41,6.52412166 L41,4 L60,4 L60,6.52412166 C60,8.44336654 58.3569587,10 56.3311776,10" id="Fill-14" fill="#F5B884"/><path d="M39.3521478,52.8524166 L48.3729267,36.4274999 C49.4056031,34.5479108 52.0526331,34.5187196 53.1259473,36.3739827 L62.6176457,52.7997103 C63.6917566,54.657406 62.375413,57 60.2558765,57 L41.7433992,57 C39.6517514,57 38.3314237,54.7109232 39.3521478,52.8524166" id="Fill-16" fill="#F5B884"/><line x1="50.5" y1="42" x2="50.5" y2="49" id="Stroke-18" stroke="#3A3A3A" stroke-width="3" stroke-linecap="round" stroke-linejoin="round"/><line x1="50.5" y1="52.449" x2="50.5" y2="52.551" id="Stroke-20" stroke="#3A3A3A" stroke-width="3" stroke-linecap="round" stroke-linejoin="round"/><path d="M13.3220713,43.7044434 L13.4383509,43.6033639 C13.9616091,43.1472934 13.9430717,42.3645341 13.4164431,41.9108895 C11.0327113,39.8585722 9.52781738,36.8860276 9.52781738,33.5770905 C9.52781738,30.1921417 11.0992772,27.1532889 13.579066,25.0961198 C14.120019,24.6457098 14.1469823,23.8524382 13.6169833,23.3898986 L13.5074445,23.2952882 C13.0600209,22.9055259 12.3808806,22.9022913 11.9241883,23.2815414 C8.91440036,25.7826515 7,29.4651782 7,33.5770905 C7,37.5984356 8.83013978,41.2089937 11.7244907,43.7060606 C12.1803404,44.0982489 12.8704346,44.0982489 13.3220713,43.7044434" id="Fill-22" fill="#3A3A3A"/><path d="M18.6390803,27.4220492 L18.5268888,27.3129076 C18.1550092,26.9474102 17.5956207,26.8941085 17.1766677,27.1953054 C15.2647045,28.5693048 14,30.9103493 14,33.5686658 C14,36.1237631 15.1650658,38.3895084 16.9530692,39.7829671 C17.3712376,40.1086997 17.9486709,40.0604744 18.3299652,39.6873625 L18.4429413,39.5773748 C18.9764394,39.0545105 18.887,38.1627647 18.305644,37.7042008 C17.1233179,36.7718441 16.3536683,35.2658596 16.3536683,33.5686658 C16.3536683,31.7767134 17.2119727,30.19966 18.5080594,29.2842244 C19.1074603,28.8620411 19.1686557,27.9406832 18.6390803,27.4220492" id="Fill-24" fill="#3A3A3A"/><path d="M7.37622769,47.7050659 L7.48475823,47.6018899 C7.94351141,47.161564 7.96044525,46.4019612 7.51246815,45.9478243 C4.30812339,42.6973741 2.30916029,38.1316329 2.30916029,33.0816958 C2.30916029,27.9521425 4.37124043,23.3214086 7.66487273,20.0620219 C8.12131675,19.6103223 8.10823151,18.8434077 7.64562973,18.3990198 L7.53709919,18.2942189 C7.11298342,17.8888266 6.46949742,17.9066996 6.05307885,18.3210285 C2.32994274,22.0231783 0,27.2697186 0,33.0816958 C0,38.8051204 2.26066793,43.9793562 5.88451015,47.6709447 C6.29938928,48.0933976 6.94903304,48.1137079 7.37622769,47.7050659" id="Fill-26" fill="#3A3A3A"/><path d="M90.6778471,53.2958554 L90.5615815,53.3969334 C90.0383863,53.8529973 90.0569214,54.6349367 90.5834866,55.0885747 C92.9669315,57.141671 94.4724869,60.1141728 94.4724869,63.4222535 C94.4724869,66.8079621 92.9003737,69.846771 90.4208833,71.9039104 C89.8799955,72.3535053 89.8530353,73.1475741 90.3829706,73.610107 L90.4924962,73.704716 C90.939866,74.0944728 91.6189245,74.0977073 92.0755619,73.7184626 C95.0849875,71.2173887 97,67.534915 97,63.4222535 C97,59.4017751 95.169238,55.7904604 92.2752354,53.2942381 C91.8194406,52.9020555 91.1294295,52.9012469 90.6778471,53.2958554" id="Fill-28" fill="#3A3A3A"/><path d="M84.3609197,69.57796 L84.4731112,69.6870992 C84.8449908,70.0525886 85.4043793,70.1058892 85.8233323,69.8046988 C87.7352955,68.4307292 89,66.0897355 89,63.4306306 C89,60.8764347 87.8349342,58.6107386 86.0469308,57.2173101 C85.6295469,56.8915845 85.0513291,56.9389628 84.6700348,57.3129126 L84.5570587,57.4228979 C84.0235606,57.9449048 84.113,58.8374774 84.694356,59.2960313 C85.8766821,60.2283678 86.6463317,61.7343196 86.6463317,63.4306306 C86.6463317,65.2233902 85.7880273,66.8004094 84.4919406,67.7149791 C83.8925397,68.1379993 83.8313443,69.0584912 84.3609197,69.57796" id="Fill-30" fill="#3A3A3A"/><g id="Group-34" transform="translate(94.000000, 48.000000)"><mask id="mask-4" fill="white"><use xlink:href="#path-3"/></mask><g id="Clip-33"/><path d="M1.42508333,0.421273684 L1.30758333,0.524878947 C0.810916667,0.967852632 0.792583333,1.73061579 1.27758333,2.18664211 C4.74675,5.4498 6.91091667,10.0345368 6.91091667,15.1054842 C6.91091667,20.2563789 4.67841667,24.9063789 1.11258333,28.1793263 C0.618416667,28.6329053 0.632583333,29.4038263 1.13341667,29.8492474 L1.25175,29.9544842 C1.71008333,30.3615632 2.40675,30.3436158 2.85758333,29.9275632 C6.88841667,26.2100105 9.41091667,20.9424579 9.41091667,15.1054842 C9.41091667,9.35824737 6.96425,4.1633 3.04008333,0.455536842 C2.59091667,0.0313263158 1.88758333,0.0109315789 1.42508333,0.421273684" id="Fill-32" fill="#3A3A3A" mask="url(#mask-4)"/></g></g></g></g></g></g></svg>