<svg width="109" height="45" viewBox="0 0 109 45" fill="none" xmlns="http://www.w3.org/2000/svg">
<path fill-rule="evenodd" clip-rule="evenodd" d="M28.6562 7.94613V0.129883H52.7391V7.94515H60.7742V0.129883H76.8321V7.94613H60.7742V15.7506L76.8321 15.7496V23.5658H52.7381V7.94613H44.7152V23.5668H36.6802V7.94613H28.6562ZM7.50869 33.8644V44.1094H3.77546V33.8644H0.0117188V30.586H11.2724V33.8644H7.50869ZM19.9799 40.0524H14.0291C14.0242 40.2756 14.0658 40.4974 14.1511 40.7034C14.2365 40.9095 14.3638 41.0952 14.5248 41.2487C14.6858 41.4021 14.877 41.5199 15.0859 41.5945C15.2949 41.669 15.517 41.6986 15.7381 41.6814C16.6567 41.6764 17.5581 41.4291 18.3523 40.9642L19.7052 43.2181C18.4814 43.9769 17.0735 44.3811 15.6363 44.386C12.5847 44.386 10.9266 42.2141 10.9266 39.0996C10.9266 35.5958 12.8898 33.7927 15.5346 33.7927C18.1794 33.7927 20.0308 35.6368 20.0308 39.407C19.9995 39.5957 19.9923 39.7664 19.986 39.9143C19.9841 39.959 19.9823 40.0017 19.9799 40.0421V40.0524ZM15.4024 36.3334C14.6089 36.3334 14.1817 36.8764 14.0596 37.8907H16.9384C16.7655 36.8662 16.4298 36.3334 15.4125 36.3334H15.4024ZM26.4088 44.3553C23.4588 44.3553 21.6888 42.46 21.6888 39.0279C21.6888 35.9544 23.2554 33.7619 26.4902 33.7619C27.2857 33.7354 28.0723 33.937 28.7584 34.3433C29.4446 34.7496 30.002 35.3438 30.3658 36.0568L27.9855 37.9009C27.5074 37.0199 27.1717 36.5896 26.4291 36.5896C25.6865 36.5896 25.1067 37.4809 25.1067 39.0894C25.1067 40.6978 25.5848 41.5277 26.5308 41.5277C27.1819 41.5277 27.6498 41.1589 28.2805 40.1958L30.4675 41.917C29.2875 43.6586 28.1991 44.3451 26.3986 44.3451L26.4088 44.3553ZM38.2086 44.1504V38.3825C38.2086 37.0506 37.7712 36.7125 37.0592 36.7125C36.3471 36.7125 35.8792 37.0608 35.8792 38.3517V44.1607H32.4206V31.4568L35.8792 30.0635V34.6737C36.5952 34.0825 37.4964 33.7666 38.4222 33.7824C40.6296 33.7824 41.6774 35.2782 41.6774 37.9419V44.1607L38.2086 44.1504ZM49.0285 44.3697C45.0667 44.3697 42.98 41.3999 42.98 37.3856C42.98 33.0333 45.5002 30.4014 49.0285 30.4014C52.3048 30.4014 53.5952 31.8351 54.5126 34.3953L51.1657 35.7266C50.6818 34.467 50.2282 33.6784 49.0084 33.6784C47.466 33.6784 46.7906 35.2453 46.7906 37.3958C46.7906 39.5464 47.4357 41.1029 49.0386 41.1029C50.1979 41.1029 50.6919 40.468 51.4177 39.1879L54.5428 40.8776C54.08 41.9615 53.3039 42.8769 52.3173 43.5024C51.3307 44.1278 50.1802 44.4339 49.0185 44.38L49.0285 44.3697ZM63.0007 37.8157C62.8115 37.5654 62.5711 37.3598 62.2962 37.2131C62.0212 37.0663 61.7181 36.9819 61.4079 36.9657C60.5712 36.9657 60.0571 37.3753 60.0571 38.6042V44.1342H56.6296V33.9959H60.0571V34.7332C60.5304 34.2257 61.1599 33.8974 61.8417 33.8024C62.5236 33.7075 63.2169 33.8516 63.8072 34.211L63.0007 37.8157ZM71.1662 44.1444V43.4685C70.4655 44.0614 69.5779 44.3777 68.6662 44.3595C66.4786 44.3595 65.4403 42.8643 65.4403 40.1915V34.0164H68.8678V39.7512C68.8678 41.062 69.3113 41.4102 70.017 41.4102C70.7227 41.4102 71.1562 41.062 71.1562 39.7921V34.0164H74.6038V44.1751L71.1662 44.1444ZM82.8198 44.1444V38.3789C82.8198 37.0476 82.3762 36.7097 81.6806 36.7097C80.9851 36.7097 80.5113 37.0579 80.5113 38.3482V44.1547H77.0837V34.0164H80.5113V34.6923C81.2208 34.1012 82.114 33.7855 83.0315 33.8013C85.219 33.8013 86.2574 35.2965 86.2574 37.959V44.1751L82.8198 44.1444ZM92.9511 44.3492C90.0276 44.3492 88.2635 42.4547 88.2635 39.0241C88.2635 35.9519 89.826 33.7604 93.0217 33.7604C93.8111 33.7356 94.5913 33.9377 95.2726 34.3435C95.9538 34.7494 96.5085 35.3424 96.8726 36.0543L94.5136 37.8669C94.0298 36.9862 93.7072 36.5561 92.9713 36.5561C92.2354 36.5561 91.6608 37.447 91.6608 39.0548C91.6608 40.6626 92.1346 41.4921 93.0721 41.4921C93.7173 41.4921 94.181 41.1234 94.806 40.1608L96.9734 41.8812C95.8141 43.6631 94.7253 44.339 92.9612 44.339L92.9511 44.3492ZM104.645 44.1444V38.3789C104.645 37.0476 104.211 36.7097 103.506 36.7097C102.8 36.7097 102.347 37.0579 102.347 38.3482V44.1547H98.919V31.4562L102.347 30.0635V34.6718C103.051 34.0791 103.942 33.7629 104.857 33.7808C107.054 33.7808 108.083 35.276 108.083 37.9386V44.1547L104.645 44.1444Z" fill="white"/>
</svg>
