<svg width="196" height="40" viewBox="0 0 196 40" fill="none" xmlns="http://www.w3.org/2000/svg">
<path d="M74.4868 18.1274H74.1757V17.1629C74.3935 17.1318 74.5491 17.194 74.7046 17.3185C74.8913 17.5363 74.798 18.003 74.4868 18.1274ZM75.2336 17.0696C74.6735 16.8207 73.8957 16.8829 73.2734 16.8829C73.2734 16.9451 73.2423 17.0073 73.3045 17.0696C73.3667 17.0696 73.5223 17.1007 73.5223 17.1007V18.0963C73.4601 18.0963 73.3356 18.0963 73.3045 18.1274C73.3045 18.1897 73.2734 18.2519 73.3356 18.3141C73.9579 18.283 74.5491 18.5008 75.1091 18.283C75.358 18.1274 75.5136 17.8785 75.5136 17.5674C75.4825 17.4118 75.4514 17.194 75.2336 17.0696Z" fill="white"/>
<path d="M76.323 9.23735L76.5097 9.29958C76.5097 9.29958 76.4475 9.45515 76.4786 9.51738C76.5408 9.61072 76.6341 9.70406 76.7275 9.67295C76.8519 9.61072 76.9453 9.42404 76.9142 9.29958H77.0386L77.0697 9.42404C77.0386 9.64183 76.9764 9.82852 76.6652 9.7974C76.3852 9.76629 76.2608 9.48626 76.323 9.23735ZM76.9142 10.0774L77.1631 10.1397L77.2253 10.233L77.3498 8.8951L77.2253 8.80176C77.2253 8.80176 77.0386 9.05067 76.6652 9.05067C76.4474 9.05067 76.2297 9.01956 76.043 8.98844C76.1052 9.20624 76.0119 9.48626 76.1674 9.73517C76.2919 10.0463 76.603 10.0774 76.9142 10.0774Z" fill="white"/>
<path d="M78.4672 9.2022H78.5917C78.5295 9.32665 78.6228 9.48222 78.7784 9.57556C78.8717 9.63779 78.9651 9.51333 79.0273 9.41999C79.0584 9.35777 78.9962 9.2022 78.9962 9.2022L79.1829 9.13997C79.214 9.38888 79.1206 9.70002 78.8406 9.70002C78.5295 9.73113 78.4673 9.54445 78.4361 9.32665L78.4672 9.2022ZM78.934 9.8867C79.3696 9.82447 79.4007 9.2022 79.4007 8.79772C79.1206 8.92217 78.9962 8.9844 78.7162 9.01551C78.4361 9.01551 78.2183 8.7666 78.2183 8.7666L78.125 8.82883L78.3739 10.1978C78.3739 10.1978 78.5295 9.94893 78.934 9.8867Z" fill="white"/>
<path d="M93.4029 19.4031C93.3718 19.1542 93.3096 18.9053 93.0295 18.7808C92.874 18.7186 92.6873 18.6875 92.5628 18.8119C92.345 18.9364 92.345 19.1853 92.3762 19.372C92.4384 19.4653 92.5006 19.5586 92.6251 19.5275C92.8429 19.4031 92.4384 19.1231 92.7806 19.0297C92.9362 18.9986 93.0295 19.2164 93.0918 19.3097C93.1229 19.5586 92.9984 19.8076 92.7806 19.932C92.5317 19.9631 92.2828 20.0254 92.0961 19.8698C91.8783 19.6831 91.6917 19.4653 91.6917 19.1542C91.6605 18.7497 91.9094 18.3763 92.2828 18.1896C93.0918 17.8163 93.6518 18.5319 94.243 19.0297C93.9007 19.0608 93.5896 19.1231 93.4029 19.4031ZM90.1671 17.2873C90.0115 17.0384 90.0737 16.6962 90.1982 16.4784C90.3537 16.2295 90.6027 15.9806 90.9138 15.9183C91.3183 15.825 91.6917 16.0117 92.0028 16.2606C92.4695 16.7273 92.7495 17.3496 93.1229 17.8785C92.6873 17.7229 92.065 17.7852 91.6917 18.1896C91.5672 18.4074 91.4427 18.5941 91.4116 18.843C91.0694 18.283 90.6027 17.7852 90.1671 17.2873ZM86.3089 18.9053C85.2511 18.8119 84.2865 18.9675 83.3842 19.2786C83.4776 18.6875 83.4776 18.0341 83.4465 17.4429C83.9443 16.7895 84.8155 16.8829 85.6244 16.8206C87.0246 16.7584 88.1758 17.0695 89.5448 17.3184C89.8248 18.1274 90.7271 18.6563 91.0383 19.4342C89.4203 19.5586 87.9269 18.9986 86.3089 18.9053ZM85.8422 19.8076C85.0644 19.8698 84.2554 19.8387 83.5709 19.5898C84.1932 19.2475 84.971 19.2164 85.6867 19.1853L85.8733 19.2164C85.8422 19.4031 85.8733 19.6209 85.8422 19.8076ZM80.5218 19.8076L74.579 18.7497C73.77 18.5941 72.8055 18.6563 72.0277 18.7808C72.1521 18.2519 72.2143 17.6607 72.1521 17.1318C72.2455 16.8206 72.5877 16.8517 72.8055 16.7273C73.77 16.4784 74.7968 16.7273 75.7613 16.8206C78.1882 17.2873 80.5529 17.8163 83.1042 17.9718C83.1976 18.5319 83.042 19.1231 83.0731 19.652C83.2598 19.932 83.5709 19.9009 83.8198 19.9942C82.6997 20.0254 81.5796 19.9631 80.5218 19.8076ZM74.3301 19.5898C73.5522 19.5586 72.7122 19.5275 72.0277 19.2786L71.9343 19.1853C72.5877 18.843 73.5834 18.9053 74.3301 19.0608V19.5898ZM64.3114 19.5898C65.0582 19.2786 65.836 19.0919 66.5516 18.6875C65.8049 18.3141 64.9959 18.0341 64.3114 17.5051C66.7072 17.6918 69.2896 17.8474 71.841 17.7229C71.8721 18.283 71.6232 18.8119 71.6854 19.3097C71.9654 19.652 72.3699 19.6209 72.7433 19.7453C69.943 19.9942 67.0183 19.9009 64.3114 19.5898ZM69.4452 15.545C70.2542 15.545 70.9076 15.2338 71.6543 15.0782C72.3388 14.9849 73.0544 15.1094 73.6767 14.8916C73.7078 15.2338 73.8945 15.5761 73.77 15.9494L72.8055 16.0428C72.401 16.1672 71.9343 16.3539 71.7476 16.7273C71.6543 16.6028 71.8099 16.3228 71.561 16.3228C71.4987 16.3228 71.4054 16.3539 71.3743 16.4473C71.4054 16.5095 71.4365 16.6028 71.4054 16.6651C71.1876 16.7273 71.0942 16.914 71.2187 17.1007C71.1876 17.1318 71.1254 17.1318 71.0631 17.1318C70.8765 17.0073 70.9698 16.7584 70.752 16.6651C70.6898 16.5406 70.8765 16.4473 70.752 16.3228C70.6587 16.2606 70.5031 16.2606 70.4409 16.3228C70.3475 16.5095 70.5031 16.7895 70.192 16.8517L70.2542 17.1629C70.0364 17.2562 70.0053 16.9762 69.943 16.8829C69.9119 16.6962 69.6941 16.6028 69.8497 16.4161C69.9119 16.3228 69.7875 16.2606 69.6941 16.2606C69.6008 16.2295 69.5074 16.3228 69.4763 16.385C69.6008 16.6028 69.3519 16.6962 69.2274 16.7273L69.2585 17.1318C69.0719 17.1318 69.0407 16.9451 68.9785 16.8206C69.0096 16.6339 68.7918 16.6962 68.7607 16.5095C68.9474 16.1983 68.9785 15.6694 69.4452 15.545ZM72.8989 11.3446C73.0855 10.1623 74.299 9.57109 75.0146 8.73101C75.0457 9.22884 74.6412 9.57109 74.299 9.91334L72.8989 11.3446ZM74.4857 7.98428C74.4545 8.66879 73.7078 9.04215 73.2411 9.44663C73.4589 8.85547 73.8945 8.26431 74.4857 7.98428ZM74.859 7.39312C75.388 7.33089 75.9169 7.48646 76.2903 7.85983C76.3214 7.7976 76.4147 7.76648 76.477 7.67314C76.477 7.64203 76.477 7.61091 76.4458 7.61091C76.7881 7.51757 77.1303 7.42423 77.5037 7.39312C77.9393 7.362 78.406 7.42423 78.8416 7.48646C78.8727 7.54869 78.935 7.67314 79.0283 7.67314C79.2461 7.54869 79.3705 7.29978 79.6195 7.17532C79.8373 7.11309 80.1173 7.05086 80.304 7.08198C80.2417 7.39312 80.2106 7.73537 79.9306 7.98428C79.8373 8.10874 79.5883 8.04651 79.5572 8.20208C79.9617 8.76213 79.8995 9.63332 79.775 10.2867C79.6817 10.4423 79.6195 10.5667 79.3394 10.6601C79.2461 10.6912 79.0905 10.6912 79.0905 10.6912L79.0594 10.7845L79.4017 11.0023L79.3705 11.189L79.0283 11.0334L78.9661 11.2201L79.3083 11.4379L79.2772 11.5935L78.935 11.469L78.8727 11.6868L79.215 11.9046L79.1527 12.2158L78.0949 11.8113V11.3446C78.2816 11.2512 78.4371 11.0957 78.4994 10.909C78.5305 10.8156 78.5616 10.629 78.4371 10.5356C78.2193 10.6912 78.0638 10.7534 77.7837 10.7534C77.4415 10.7845 77.2548 10.6912 77.1303 10.5978C77.037 10.7845 77.0681 10.9401 77.1926 11.0957C77.2859 11.2201 77.5659 11.3135 77.5659 11.3135V11.8113L76.5703 12.278L76.477 11.998L76.7881 11.8113L76.7259 11.5624L76.3836 11.7491L76.3214 11.5935L76.6948 11.3757L76.6014 11.1579L76.228 11.3446L76.1969 11.2201L76.5703 10.9401C76.5703 10.9401 76.5392 10.8156 76.5392 10.7845C76.228 10.7534 75.8858 10.6912 75.7613 10.3178C75.5747 9.78889 75.5747 9.10438 75.6058 8.54433C75.6369 8.45099 75.8236 8.41988 75.6991 8.32653C75.2013 8.35765 74.9835 7.76648 74.8279 7.42423V7.39312H74.859ZM75.6058 6.05522C75.4502 5.99299 75.4502 5.83742 75.4502 5.83742C75.668 5.65074 75.9791 5.49517 76.2592 5.37071C76.2903 5.37071 76.228 5.71297 76.2592 5.71297C76.228 5.80631 76.1658 5.74408 76.0414 5.86854C75.948 5.99299 76.0725 6.2419 76.228 6.21079C76.3525 6.21079 76.4147 6.17968 76.4147 6.21079C76.477 6.42859 76.3214 6.52193 76.1658 6.58416C75.948 6.70861 75.8236 6.39747 75.8236 6.39747L76.0102 6.30413L75.7925 5.86854C75.7613 5.89965 75.668 6.08633 75.6058 6.05522ZM79.1839 6.83307C79.1527 6.8953 79.1216 6.92641 79.0905 6.95752C78.126 6.77084 77.0059 6.86418 76.1036 7.14421C76.0414 7.11309 76.0102 7.08198 75.948 7.05086C76.8192 6.64638 78.1571 6.61527 79.1839 6.83307ZM78.5305 5.18403C78.5305 5.18403 78.3438 5.49517 78.3438 5.52628C78.2504 5.5574 78.0638 5.49517 78.0326 5.65074C77.9393 5.89965 78.126 6.08633 78.3127 5.99299C78.3127 6.08633 78.2504 6.2419 78.0949 6.30413C77.9393 6.36636 77.7526 6.27302 77.7215 6.14856V6.02411H77.9082V5.46406H77.7215L77.7526 5.24626C77.7526 5.24626 77.5659 5.18403 77.4726 5.21515C77.3793 5.21515 77.2548 5.24626 77.2548 5.24626V5.49517H77.0992V6.02411H77.317C77.317 6.02411 77.317 6.30413 77.1615 6.33525C76.8814 6.39747 76.8192 6.36636 76.757 6.17968V6.05522C76.757 6.05522 77.0059 6.05522 77.0059 5.86854C77.0059 5.74408 76.9748 5.58851 76.8503 5.58851C76.757 5.58851 76.7259 5.61963 76.6325 5.61963L76.5392 5.24626C77.0681 5.05958 77.846 4.96623 78.5305 5.18403ZM78.686 6.02411C78.8727 6.11745 79.0283 5.99299 79.0594 5.83742C79.0594 5.68185 78.9038 5.58851 78.7794 5.58851L78.7483 5.24626L79.495 5.58851L79.4328 5.80631L79.215 5.71297L79.0905 6.11745L79.2461 6.17968C79.2461 6.17968 79.1527 6.4597 78.8105 6.39747C78.6549 6.36636 78.6238 6.17968 78.686 6.02411ZM82.5442 10.4734C81.7974 9.72666 80.4595 9.44663 80.3662 8.29542C80.9885 9.13549 82.2952 9.32218 82.5442 10.4734ZM82.2641 8.94881C81.7663 8.60656 80.8018 8.38876 80.7707 7.5798C81.4863 7.73537 81.8908 8.38876 82.2641 8.94881ZM81.2063 14.5182C80.7707 14.3937 80.1484 14.3937 79.8684 13.8959C79.6506 13.5226 79.5261 12.9936 79.7439 12.558C79.7439 13.3981 80.6462 13.9581 81.2063 14.5182ZM81.8285 14.456C81.2063 13.5226 79.775 12.9003 79.9306 11.5624C80.2417 12.6825 82.0463 13.1181 81.8285 14.456ZM80.4284 9.47775C81.0818 10.3178 82.4819 10.7845 82.4197 12.0291C81.8285 11.1268 80.4284 10.6601 80.4284 9.47775ZM82.2019 13.2736C81.5796 12.3091 80.0239 11.8113 80.2728 10.5045C80.7084 11.5313 82.233 11.998 82.2019 13.2736ZM77.2548 13.647L77.4726 13.6159C77.2548 13.8026 77.1615 14.0826 77.1303 14.3626L76.6948 14.3937C76.8192 14.1448 76.9125 13.7404 77.2548 13.647ZM78.406 14.2382L77.6593 14.3004C77.6904 14.0515 77.7526 13.7092 77.9704 13.5537C78.3127 13.6781 78.3749 13.9893 78.406 14.2382ZM79.4639 14.2071L78.9661 14.1448C78.9038 13.927 78.7794 13.7092 78.5927 13.5537C79.0283 13.4914 79.2772 13.927 79.4639 14.2071ZM78.7483 13.0558L77.1926 13.1492C77.0681 13.1181 77.0059 12.9625 77.0992 12.8692C77.3481 12.6514 77.6282 12.4336 77.9704 12.4025C78.3127 12.4647 78.6549 12.558 78.9038 12.8069C78.935 12.9314 78.8727 13.0558 78.7483 13.0558ZM75.2013 15.545L75.1702 16.105L74.859 16.0739C74.8901 15.8561 75.0146 15.6694 75.2013 15.545ZM74.8901 15.1405C75.1079 14.3626 76.2903 13.8026 76.1969 12.8069C76.4147 13.1181 76.4458 13.5537 76.3214 13.8648C76.1036 14.5182 75.3569 14.736 74.8901 15.1405ZM74.4857 16.0117L74.1434 15.9806C74.1745 15.9183 74.2368 15.825 74.3301 15.7628C74.4545 15.7939 74.4545 15.9494 74.4857 16.0117ZM74.299 14.9227C74.019 13.9893 75.0457 13.367 75.4502 12.5891C75.6369 12.3402 75.6991 12.0602 75.7925 11.7491C76.228 13.087 74.7968 13.8337 74.299 14.9227ZM73.3345 12.7136C73.1478 11.4379 74.5479 10.7223 75.0768 9.82C75.0146 11.0023 73.8012 11.7179 73.3345 12.7136ZM75.3257 10.8468C75.668 12.1847 73.9878 12.8692 73.77 14.0826C73.5523 12.7136 74.859 11.9669 75.3257 10.8468ZM83.2909 13.4914C83.4154 13.3048 83.2909 13.0558 83.2598 12.838L83.0109 11.9669C84.7844 12.3091 86.3712 13.3048 88.2069 13.5848C88.3002 13.8959 88.6114 14.0826 88.8603 14.1759L89.4826 14.2382C89.5137 14.8293 89.7315 15.296 90.0737 15.7316C89.8248 16.0117 89.6381 16.3539 89.4826 16.6339C87.958 16.4161 86.4334 16.0428 84.7844 16.2295C85.0644 15.825 84.9088 15.296 84.7844 14.8293C84.5355 14.6427 84.4421 14.2071 84.0376 14.1759C83.7887 14.4871 84.3177 14.7049 84.3177 15.016C84.4421 15.4827 84.3799 15.9806 84.0999 16.3228C83.7265 16.5095 83.042 16.7273 83.042 17.3184C82.2019 17.3184 81.4241 17.1629 80.6151 17.0695C80.2417 16.7584 79.9928 16.2295 79.4639 16.3228C79.3705 16.2606 79.2461 16.2295 79.1216 16.2917C79.1839 16.6028 78.6549 16.5095 78.8727 16.8517C78.5616 16.9762 78.686 16.4784 78.4682 16.385C78.4994 16.2295 78.686 15.9806 78.4371 15.9183C78.3127 15.8872 78.2193 16.0117 78.2193 16.105C78.406 16.4473 77.7837 16.385 78.0326 16.7273C77.9393 16.7895 77.7837 16.6339 77.7837 16.5406C77.8149 16.3539 77.5348 16.2295 77.6904 16.0428C77.7526 16.0117 77.7526 15.8872 77.6904 15.825C77.6282 15.7005 77.5037 15.7939 77.4415 15.825C77.2859 15.9806 77.5659 16.3539 77.1926 16.3228L77.1615 16.5406C76.8192 16.6339 76.9748 16.1672 76.7259 16.0739C76.757 15.8872 77.037 15.7005 76.757 15.5761C76.6636 15.5761 76.5392 15.6383 76.5081 15.7628C76.5081 15.9183 76.4458 16.105 76.2592 16.105L76.228 16.385C75.8858 16.4473 76.0725 15.9806 75.8236 15.8872C75.8547 15.5138 76.0414 15.1405 76.3525 14.9849C77.7837 15.1094 79.3083 14.3315 80.584 15.2027C81.144 14.8916 82.0775 15.5761 82.3886 14.7049L82.5131 14.1759C82.6997 14.3315 82.8864 14.5182 83.0731 14.6427C83.2287 14.5182 83.0731 14.3315 83.042 14.2071C82.8864 13.7715 82.762 13.367 82.6997 12.9003C82.9175 12.9625 83.042 13.3359 83.2909 13.4914ZM88.7358 12.5269C88.9847 12.2158 89.2959 12.0913 89.6381 12.0602C89.9804 12.0913 90.2604 12.1847 90.4782 12.4647C90.976 13.1803 90.1982 14.4249 91.2249 15.3583C90.976 15.296 90.7893 15.4205 90.5715 15.4205C89.9493 14.8605 90.0115 13.9581 90.1048 13.1803C90.0426 13.0247 89.9804 12.838 89.7937 12.7447C89.5759 12.6825 89.2959 12.7447 89.1714 12.9625C89.1403 13.087 89.2025 13.3359 89.3581 13.367C89.4203 13.367 89.4826 13.3048 89.5137 13.2425C89.4826 13.1803 89.4514 13.1181 89.4514 13.0247C89.5137 12.9625 89.6381 12.9625 89.7004 12.9936C89.8248 13.1181 89.7937 13.2736 89.7315 13.4292C89.5448 13.6159 89.2959 13.6781 89.0781 13.6159C88.9225 13.5226 88.7047 13.3981 88.6736 13.2114C88.5803 12.9936 88.6425 12.7136 88.7358 12.5269ZM88.7981 10.4112C87.429 10.5978 85.5 11.8735 84.4732 10.2867C84.1932 9.75777 84.2554 9.01104 84.6288 8.57544C85.8733 7.26866 87.5224 8.6999 88.9536 8.32653C89.1714 8.13985 89.3892 7.95317 89.3581 7.64203L89.327 7.29978C89.5137 7.54869 89.5137 7.95317 89.3892 8.23319C89.327 8.45099 89.0781 8.63767 88.8603 8.73101C87.6157 8.9177 86.4956 7.98428 85.2822 8.54433C84.9399 8.79324 84.7844 9.13549 84.7844 9.50886C84.7844 9.78889 84.8466 10.0378 85.0333 10.2245C86.06 11.0957 87.2735 10.1311 88.3625 10.0067C88.9536 9.91334 89.5759 10.0689 89.887 10.5356C89.8248 10.629 89.7315 10.7223 89.6692 10.7845C89.3892 10.5667 89.1092 10.3801 88.7981 10.4112ZM87.7713 9.88223C87.0868 9.97557 86.4334 10.3801 85.7489 10.1934C85.5622 10.1 85.5622 9.85111 85.6555 9.69554C85.8422 9.44663 86.1845 9.6022 86.4645 9.57109L87.7713 9.88223ZM89.4203 9.1355C89.1092 9.38441 88.6736 9.41552 88.2691 9.35329C87.2424 9.38441 86.2156 8.4821 85.2822 9.22884L85.1888 9.38441C85.1266 9.22884 85.22 8.88658 85.4689 8.79324C86.8379 8.13985 89.2648 10.3178 89.7004 7.89094C89.8248 8.32653 89.7937 8.82436 89.4203 9.1355ZM91.0071 10.1311C91.1938 10.0378 91.4427 10.0067 91.6294 10.0689C91.8783 10.1934 92.1272 10.4112 92.1272 10.6912C92.0961 11.7491 91.6605 12.558 91.7228 13.7404C91.7539 14.4871 91.8472 15.0471 92.065 15.6383C91.0694 14.9227 91.0071 14.1759 91.0383 12.8692C91.0383 12.4647 90.696 12.1535 90.3537 11.9046C90.0737 11.7179 89.7937 11.8113 89.5448 11.7802C90.0737 11.2824 90.5715 10.6912 91.0071 10.1311ZM92.3762 8.04651C92.5006 8.54433 93.0918 8.82436 93.5274 8.88658C93.1229 9.25995 92.9984 9.94446 92.4073 10.0378C92.0028 10.0689 91.6605 9.78889 91.5361 9.41552C91.3183 8.6999 92.065 8.57545 92.3762 8.04651ZM92.2206 13.5848C92.2206 12.4025 92.5317 11.2201 93.0918 10.2556C93.3718 9.78889 93.6829 9.44663 93.6829 9.44663V8.60656C93.3407 8.57544 93.0295 8.45099 92.7806 8.20208C92.5628 7.95317 92.4695 7.76648 92.4695 7.362C92.4695 6.95752 92.7495 6.52193 93.1851 6.39747C93.5896 6.27302 94.0252 6.36636 94.3052 6.64638C94.523 6.8953 94.5541 7.11309 94.5541 7.39312C94.5541 7.76648 94.3052 8.04651 94.0252 8.04651C93.8385 8.04651 93.6207 8.01539 93.5274 7.7976C93.434 7.64203 93.434 7.33089 93.6207 7.33089C93.8696 7.33089 93.6518 7.51757 93.8074 7.5798C93.9007 7.61091 93.9941 7.61091 94.0563 7.51757C94.1185 7.42423 94.0874 7.29978 93.9941 7.17532C93.8696 7.01975 93.7141 7.01975 93.5274 7.08198C93.2785 7.17532 93.154 7.45535 93.2473 7.73537C93.3407 8.10874 93.5585 8.23319 93.8696 8.26431H94.9275L95.5187 7.85983L96.2654 7.48646C96.2654 7.48646 96.2032 7.11309 96.0787 7.01975L95.1764 7.51757C95.1453 7.01975 94.9275 6.4597 94.5541 6.11745C94.1808 5.80631 93.4963 5.65074 92.9051 5.89965C92.2206 6.21079 91.8783 6.8953 91.9406 7.5798C91.4738 8.17096 90.4782 8.66879 90.9138 9.57109C90.5093 9.6022 90.2915 10.0689 90.0115 10.3178L89.4514 9.85111L89.9182 9.53998C90.3226 9.07327 90.5404 8.38876 90.2915 7.76648C90.1048 7.14421 89.5448 6.49081 88.8603 6.39747C88.5491 6.33524 88.238 6.39747 88.0202 6.58416C87.8646 6.73973 87.8335 6.98864 87.8335 7.17532C87.8957 7.39312 88.0824 7.54869 88.3002 7.54869C88.5803 7.45535 88.2069 7.33089 88.3002 7.14421C88.3313 7.01975 88.518 6.98864 88.6425 7.01975C88.8603 7.11309 88.9847 7.33089 88.9225 7.54869C88.8603 7.73537 88.6736 7.85983 88.4869 7.89094C87.2424 7.82871 85.9356 6.95752 84.7844 7.76648C84.131 8.07762 83.8198 8.73101 83.7265 9.41552C83.6954 10.1 83.9443 10.6912 84.4732 11.1579C85.6867 12.1535 87.3668 11.3757 88.6114 11.0334C88.8292 10.9712 89.1403 10.9712 89.2336 11.2201C88.7047 11.7179 88.1135 12.278 88.0513 12.9936C86.2778 12.6203 84.7844 11.7802 82.9798 11.4068C82.762 11.4379 82.7309 11.1579 82.6686 11.0334L83.322 11.2512L83.3531 11.189C83.0731 10.6601 82.8553 10.1 82.6064 9.57109C82.8242 9.6022 83.0109 9.78889 83.2287 9.75777V9.66443C82.4197 8.79324 82.1086 7.29978 80.7707 7.08198C80.7396 6.83307 80.8951 6.58416 80.864 6.33525H80.7084L79.4328 6.70861L79.3705 6.64638C79.4639 6.27302 79.7128 5.99299 79.8995 5.68185C79.8061 5.52628 80.0551 5.43294 79.9617 5.24626C79.8995 5.02846 79.6195 5.02846 79.4639 5.05958C79.495 4.46841 78.8727 5.1218 78.8105 4.62398C78.686 4.53064 78.4994 4.59287 78.406 4.68621L78.2504 4.46841C78.0949 4.4373 77.9393 4.46841 77.846 4.53064C77.7837 4.2195 77.4104 4.03282 77.5348 3.69056C77.6904 3.65945 77.7837 3.72168 77.9082 3.72168C77.9393 3.59722 77.9393 3.34831 77.9082 3.19274H77.5348V2.69492C77.3481 2.66381 77.1926 2.75715 76.9748 2.72603C76.9748 2.8816 77.0681 3.06829 77.0681 3.25497H76.6014C76.5703 3.44165 76.6325 3.59722 76.6636 3.78391C76.8192 3.81502 76.9748 3.62834 77.1303 3.75279C77.2237 4.12616 76.9437 4.34396 76.9125 4.62398L76.8814 4.56175C76.7259 4.53064 76.6325 4.49953 76.5081 4.62398C76.477 5.09069 76.1347 4.49953 75.948 4.84178C75.9791 5.30849 75.5435 4.77955 75.4191 5.1218C75.5124 5.52628 75.0768 5.21515 74.9524 5.46406C74.7968 5.65074 75.0768 5.83742 75.0146 5.99299C75.3257 6.21079 75.5747 6.58416 75.668 6.92641C75.2013 6.83307 74.6101 6.86418 74.1745 6.70861C74.2056 6.98864 74.3923 7.20643 74.3923 7.48646C73.5834 7.70426 73.0544 8.51322 72.8677 9.29106C72.7433 9.72666 72.3699 10.0378 72.3699 10.5045C72.5566 10.5356 72.6811 10.2867 72.8366 10.3489C72.6811 10.9712 72.3077 11.5002 72.2455 12.1535C72.4321 12.278 72.6499 11.9046 72.8677 11.9046C72.7744 12.5891 72.8677 13.2425 72.6499 13.8648C72.8055 14.1759 73.0233 13.6159 73.2411 13.647C73.21 13.8648 73.3033 14.1448 73.2411 14.3626C71.7476 14.4249 70.4409 14.9227 69.0096 15.1405C68.4807 15.3583 68.4496 16.0117 68.2629 16.4473C68.1695 16.8517 68.7607 16.8206 68.6363 17.194C66.3027 17.2251 64.0936 16.8829 61.8845 16.6651C62.8802 17.4429 63.9381 18.0652 65.027 18.6252V18.6875C63.8447 19.2164 62.6313 19.4964 61.3867 19.8387C64.467 20.2743 67.6406 20.5854 70.9076 20.461C72.121 20.3987 73.3345 20.3676 74.4546 20.1187C74.7035 19.932 74.5168 19.5898 74.6412 19.372C78.2816 19.8387 81.9219 21.1455 85.78 20.3365C86.3089 20.3365 85.9978 19.7142 86.1223 19.4964C87.8957 19.5275 89.5448 20.2743 91.3494 19.9631C91.6605 20.3676 92.0961 20.5854 92.5628 20.4921C93.4029 20.3676 93.8385 19.1231 94.8341 19.5898C95.5809 20.0876 96.981 20.6787 98.2256 20.741L97.7277 20.212C94.1185 19.4964 92.2206 16.4473 92.2206 13.5848Z" fill="white"/>
<path d="M81.5171 18.3188V18.1322L80.5526 17.9766V18.1944H80.6459V19.0345C80.5837 19.19 80.397 19.19 80.2415 19.19C79.8681 19.19 80.0237 17.8832 80.0237 17.8832L79.1836 17.7588V17.9766C79.1836 17.9766 79.2769 18.0077 79.3392 18.0388C79.3703 18.4744 79.2458 18.9722 79.6503 19.2523C79.9303 19.4389 80.3659 19.5012 80.7082 19.3456L80.8326 19.4701L81.486 19.5634V19.3456L81.3616 19.3145V18.3188H81.5171Z" fill="white"/>
<path d="M78.4396 18.7529C78.284 18.784 77.9418 18.7529 77.9418 18.7529V18.3173C77.9418 18.3173 78.0973 18.3485 78.1596 18.4107C78.2218 18.504 78.284 18.5974 78.4396 18.5663C78.4085 18.5663 78.4396 18.0684 78.4396 18.0684C78.3774 18.0373 78.2529 18.0373 78.2218 18.1307C78.1285 18.1929 77.9418 18.1307 77.9418 18.1307V17.7573C77.9418 17.7573 78.4396 17.7573 78.5952 17.9751C78.6574 18.0684 78.6885 18.2551 78.6885 18.2551H78.9374L78.8752 17.7262L77.1328 17.415V17.6017L77.3195 17.6639V18.6907L77.1328 18.6596V18.8774L78.8441 19.1885L79.0308 18.6596L78.813 18.5663C78.6885 18.6596 78.5641 18.7218 78.4396 18.7529Z" fill="white"/>
<path d="M87.0859 17.1299V17.721H87.2104C87.2104 17.721 87.3037 17.5344 87.4282 17.4721C87.4904 17.441 87.7082 17.4721 87.7082 17.4721V18.4989H87.4904V18.6856L88.4861 18.8723V18.7478L88.2994 18.6545V17.6277C88.2994 17.6277 88.4861 17.6588 88.5483 17.721C88.6416 17.8144 88.7661 18.0633 88.7661 18.0633H88.9217V17.4721L87.0859 17.1299Z" fill="white"/>
<path d="M86.4351 18.25C86.1862 18.4056 85.8751 18.2811 85.8751 18.2811V17.9388C85.8751 17.9388 86.1862 17.8766 86.1862 18.0322H86.3418V17.5966H86.1862C86.1862 17.5966 86.124 17.7833 85.844 17.7522V17.3477C85.9995 17.2855 86.1551 17.2543 86.3418 17.3477C86.4663 17.4099 86.5907 17.6588 86.5907 17.6588H86.7774L86.6841 17.1299H85.0039V17.3477L85.1906 17.3788V18.3433L85.0039 18.4056V18.5611H86.6841L86.8085 18.1255L86.5907 18.0944C86.5596 18.0944 86.4974 18.2189 86.4351 18.25Z" fill="white"/>
<path d="M75.7302 17.2855L75.9169 17.3788V18.3744C75.8547 18.4056 75.6991 18.3744 75.6991 18.3744L75.668 18.5611C75.668 18.5611 76.7258 18.7789 76.7258 18.7478V18.5611L76.5703 18.4989V17.4721H76.757V17.3166L75.6991 17.1299V17.2855" fill="white"/>
<path d="M89.4529 15.3103L89.3284 15.0614L86.7148 14.5947L86.8082 14.7503C87.6794 14.9681 88.5506 15.217 89.4529 15.3103Z" fill="white"/>
<path d="M89.4853 15.8448L89.6409 15.627C88.4585 15.4403 87.2762 15.2225 86.125 14.9736L86.2183 15.0981C87.2762 15.4403 88.3652 15.7204 89.4853 15.8448Z" fill="white"/>
<path d="M89.2685 14.7527C89.2374 14.6594 89.2996 14.5349 89.1752 14.5038C88.5218 14.4105 87.8373 14.3482 87.2461 14.2549L87.3394 14.3482C87.9617 14.5349 88.6151 14.6905 89.2685 14.7527Z" fill="white"/>
<path d="M100.87 7.63278C99.6259 7.97503 98.008 7.97503 96.7634 7.63278V7.25941C97.8835 6.7927 99.7193 6.7927 100.87 7.19718V7.63278ZM96.3901 6.88605L96.2656 6.91716C96.5768 7.19718 96.2656 7.66389 96.639 7.88169C97.9458 8.28617 99.5948 8.22394 100.87 7.85058C101.337 7.66389 100.902 7.10384 101.244 6.82382C99.7504 6.29488 97.8835 6.29488 96.3901 6.88605Z" fill="white"/>
<path d="M97.1714 4.3249C96.9536 4.44935 96.9536 4.54269 96.9536 4.63603C96.9225 4.76049 97.1092 4.94717 97.1092 4.94717C97.1092 4.94717 96.8603 4.88495 96.798 4.94717C96.6113 5.10274 96.6736 5.2272 96.7047 5.41388C96.7047 5.50722 96.798 5.56945 96.8603 5.63168C96.9536 5.53834 97.0158 5.50722 97.2336 5.50722C97.2959 5.72502 97.2025 6.00505 96.9225 6.09839C96.6113 6.19173 96.4558 6.03616 96.3624 5.81836C96.4558 5.75613 96.4869 5.72502 96.6736 5.69391L96.3935 5.07163L96.0513 5.35165L95.9268 5.16497L95.8957 4.97829C96.2069 4.76049 96.7669 4.41824 97.1714 4.3249ZM100.438 4.3249C100.065 4.3249 100.003 4.63603 100.065 4.88495C99.9716 4.82272 99.785 4.69826 99.6605 4.82272C99.4738 4.97829 99.5049 5.25831 99.5983 5.445C99.7227 5.32054 99.8783 5.35165 100.003 5.38277C99.9716 5.60057 99.8783 5.84948 99.5049 5.84948C99.0693 5.84948 99.0693 5.47611 99.1005 5.38277C99.1938 5.35165 99.256 5.38277 99.4116 5.445C99.3494 5.2272 99.3494 4.91606 99.4116 4.69826H99.1005L99.1938 4.29378H98.3848L98.4471 4.69826C98.3226 4.69826 98.2293 4.69826 98.1359 4.69826C98.2604 4.94717 98.3226 5.2272 98.1982 5.41388C98.3226 5.38277 98.416 5.41388 98.5093 5.38277C98.5404 5.50722 98.4782 5.84948 98.1359 5.88059C97.8248 5.9117 97.6692 5.72502 97.6381 5.445C97.7626 5.38277 97.8248 5.38277 97.9804 5.445C98.0115 5.41388 98.1048 5.32054 98.0737 5.2272C98.0426 5.04051 98.0426 4.88495 97.8559 4.82272C97.7003 4.76049 97.5448 4.88495 97.5448 4.88495C97.5448 4.88495 97.5759 4.63603 97.5136 4.54269C97.4825 4.44935 97.327 4.35601 97.2025 4.3249C98.1048 4.01376 99.4427 3.92041 100.438 4.3249ZM101.621 4.94717L101.527 5.28943C101.403 5.19608 101.341 5.13386 101.247 5.07163L100.936 5.66279C101.03 5.69391 101.185 5.69391 101.247 5.78725C101.123 6.03616 100.874 6.16061 100.656 6.06727C100.345 5.94282 100.407 5.72502 100.438 5.47611C100.625 5.47611 100.687 5.50722 100.749 5.60056C100.843 5.50722 101.03 5.32054 100.936 5.07163C100.874 4.94717 100.656 4.91606 100.532 4.94717C100.656 4.72938 100.687 4.48046 100.438 4.3249C100.843 4.48046 101.278 4.69826 101.621 4.94717ZM95.3046 5.10274L95.2423 5.16497C95.709 5.56945 95.9891 6.09839 96.2069 6.62732C97.7626 6.03616 99.8783 6.00505 101.434 6.59621C101.558 6.28507 101.652 5.97393 101.87 5.69391C101.994 5.47611 102.336 5.10274 102.336 5.10274L102.243 5.04051C102.243 5.04051 102.367 4.91606 102.399 4.82272C102.43 4.60492 102.461 4.41824 102.336 4.29378C102.15 4.20044 101.932 4.20044 101.776 4.26267C101.776 4.13821 101.745 3.98264 101.652 3.8893C101.465 3.70262 101.185 3.85819 101.03 3.92041C101.03 3.76485 100.967 3.6715 100.843 3.54705C100.656 3.45371 100.438 3.51593 100.314 3.64039C100.252 3.54705 100.221 3.39148 100.096 3.29814C99.9094 3.17368 99.6605 3.26702 99.5361 3.36036L99.4116 3.01811L99.1627 2.5514L99.1005 2.0847L99.7227 2.24026V1.40019L99.1005 1.55576L99.2249 0.68457H98.2915L98.4159 1.55576L97.7626 1.40019V2.24026L98.4159 2.0847L98.3226 2.61363L98.167 3.04923L98.0737 3.39148C97.9492 3.29814 97.8248 3.23591 97.6692 3.26702C97.4514 3.26702 97.3892 3.48482 97.327 3.64039C97.2025 3.54705 97.0469 3.45371 96.8603 3.51593C96.6425 3.57816 96.5802 3.79596 96.518 3.95153L96.3935 3.85819C96.2069 3.82707 95.958 3.82707 95.8646 4.04487C95.7713 4.1071 95.9268 4.41824 95.709 4.35601C95.5224 4.26267 95.2734 4.3249 95.1801 4.51158C95.0245 4.66715 95.1179 4.97829 95.3046 5.10274Z" fill="white"/>
<path d="M97.3242 7.63695L97.8843 7.73029L97.9776 7.66806C98.5377 7.60583 99.0977 7.57472 99.6578 7.66806L99.72 7.7614L100.249 7.66806C99.4089 7.35692 98.1954 7.35692 97.3242 7.63695Z" fill="white"/>
<path d="M81.2656 16.5611C81.8879 16.6233 82.5413 16.4678 83.1636 16.4367C83.6303 16.2189 83.5992 15.5655 83.5058 15.1299C83.4436 15.1299 83.4125 15.161 83.3814 15.1921C83.288 15.5344 83.4436 16.0011 83.0702 16.1878L81.2967 16.4056L81.2656 16.5611Z" fill="white"/>
<path d="M89.2675 16.38C89.3297 16.3178 89.3297 16.1933 89.3609 16.1311C88.2719 15.9444 87.1518 15.7888 86.125 15.5088C86.125 15.571 86.1561 15.6021 86.2183 15.6332C87.1518 15.9755 88.2096 16.1933 89.2675 16.38Z" fill="white"/>
<path d="M112.476 18.3778C112.476 18.3778 112.88 18.3778 113.005 18.3778V18.2222H112.88V17.5377L113.751 18.5023H114V17.2266H114.125V17.0399H113.627V17.2266H113.751V17.6311L113.129 17.0399L112.289 17.0088L112.32 17.1644H112.631V18.1911H112.507L112.476 18.3778Z" fill="white"/>
<path d="M111.355 18.3464C111.137 18.3775 111.044 18.1597 111.013 17.8486C110.982 17.5063 110.826 17.133 111.199 17.1019C111.48 17.0707 111.48 17.413 111.511 17.6619C111.573 18.0042 111.573 18.3153 111.355 18.3464ZM111.324 16.9463C111.044 16.9774 110.764 17.0085 110.577 17.2574C110.391 17.4441 110.328 17.693 110.391 17.9419C110.453 18.1597 110.608 18.3153 110.795 18.4398C111.106 18.5331 111.511 18.5331 111.791 18.3775C112.164 18.1908 112.288 17.7241 112.133 17.3508C111.946 17.0707 111.635 16.9463 111.324 16.9463Z" fill="white"/>
<path d="M115.62 16.165C115.527 16.165 115.434 16.165 115.434 16.2584C115.496 16.5384 115.371 16.974 115.62 17.1918C116.336 17.3163 117.02 17.5029 117.674 17.8452C117.736 17.8763 117.892 17.9385 117.892 17.783C117.332 17.3474 116.647 17.0985 115.963 16.974C115.558 16.8495 115.838 16.3828 115.62 16.165Z" fill="white"/>
<path d="M128.409 19.3747C128.657 19.2814 129.093 19.2503 129.342 18.9391C129.311 18.4102 129.124 17.9124 129.155 17.3834C130.618 17.3523 132.08 17.1968 133.542 17.0723C132.827 17.6012 131.987 17.8813 131.178 18.2546C131.831 18.6591 132.702 18.8769 133.449 19.1569C131.8 19.3436 130.089 19.4992 128.409 19.3747ZM126.697 19.2503C126.666 19.0325 126.511 18.7525 126.666 18.628C127.444 18.5658 128.284 18.5347 128.937 18.7836C128.875 19.0014 128.595 18.9391 128.44 19.0325C127.88 19.1258 127.288 19.2192 126.697 19.2503ZM121.532 19.4059C121.532 18.8147 122.341 19.0947 122.497 18.5969C122.559 18.3169 122.528 17.9746 122.341 17.7568C121.812 17.1968 121.035 17.6946 120.412 17.6946L120.101 17.4768C122.777 17.1656 125.173 16.0144 128.035 16.2322C128.284 16.2945 128.595 16.3878 128.751 16.6367C128.813 17.2279 128.782 17.8502 128.937 18.4102C126.324 17.9124 123.959 18.908 121.532 19.4059ZM121.19 17.819C121.346 17.7257 121.564 17.7879 121.688 17.8813C121.937 18.0991 122.061 18.6902 121.657 18.8458C121.688 18.8458 121.221 17.819 121.19 17.819ZM120.257 16.8545H120.35V16.8856L120.257 16.8545ZM120.723 19.7792C120.257 20.0281 119.79 19.7481 119.323 19.7481C118.701 19.6548 118.017 19.5614 117.425 19.8414C116.959 19.6548 116.523 19.437 116.119 19.1258C116.336 18.7213 116.834 18.7213 117.27 18.6591C117.892 18.8458 118.39 19.3436 119.168 19.1569C119.354 19.1881 119.51 19.1258 119.572 18.9391C119.354 18.5969 118.95 18.628 118.639 18.5347C117.425 18.2857 116.461 17.4768 115.123 17.539C114.718 17.0723 115.03 16.3878 114.967 15.7966C115.061 15.6722 115.341 15.5477 115.185 15.361C115.123 15.2677 114.998 15.2988 114.936 15.3299L114.376 15.7033C114.407 15.89 114.438 16.0767 114.407 16.2322C114.034 16.17 113.567 16.0144 113.101 16.0144C112.976 15.6411 113.505 15.9522 113.474 15.61L113.567 14.2721C113.536 14.0231 113.132 14.0854 113.349 13.7742C113.474 13.8053 113.629 13.8987 113.754 13.7742L114.501 12.5608C114.532 12.4363 114.438 12.3119 114.345 12.2497L114.532 12.063C114.718 12.4052 115.092 12.0941 115.372 12.0941C115.652 11.9074 116.336 12.1252 116.274 11.5651V11.5029L116.585 11.4407C116.554 11.6896 116.554 12.0319 116.367 12.1874C115.901 12.343 115.216 12.2185 114.781 12.4363L114.407 13.0897C115.372 12.8408 116.492 12.8719 117.425 12.5608C118.39 12.9342 119.417 13.2453 120.35 13.8054C120.008 14.2721 120.194 14.8632 120.257 15.4233C120.226 16.0455 119.883 16.5434 119.417 16.979C119.012 16.6056 119.697 16.3256 119.728 15.9211C119.821 15.7033 119.914 15.2988 119.666 15.1121C119.323 15.1432 119.572 15.5788 119.417 15.7344C119.292 16.0455 119.074 16.2633 119.012 16.5434C118.794 16.4811 118.608 16.2633 118.483 16.0767C118.39 15.8589 118.794 15.5788 118.452 15.4233C118.11 15.6722 117.83 16.0767 117.425 16.2011C117.363 16.2633 117.332 16.3256 117.363 16.3878C117.612 16.6678 117.892 16.2633 118.141 16.5745C119.043 17.259 119.914 18.0991 120.91 18.5658C121.221 19.0014 120.879 19.4058 120.723 19.7792ZM115.03 18.2546C115.03 18.068 115.216 18.0368 115.341 18.0057C115.932 17.9124 116.305 18.2235 116.803 18.3791C116.461 18.4413 116.119 18.5969 115.839 18.8458C115.496 18.7836 115.216 18.5658 115.03 18.2546ZM114.594 19.7792C114.718 19.6859 114.936 19.6236 114.998 19.437L114.967 19.0325C115.154 19.1881 115.341 19.3125 115.59 19.3125C115.59 19.4992 115.807 19.6548 115.932 19.7481L114.594 19.7792ZM112.447 19.6236L112.385 19.0636C113.163 19.0014 113.909 19.0947 114.594 19.4059L114.563 19.4681C113.909 19.6859 113.163 19.6859 112.447 19.6236ZM106.909 19.1569C107.127 18.7213 107.531 18.2858 107.873 17.8813C107.905 17.9124 108.029 18.0368 108.029 18.0368V18.7213L107.905 18.7525V18.908H108.433V18.7525L108.278 18.7213V18.3169L108.807 18.8769L109.305 18.1302L109.367 18.628C109.367 18.628 109.274 18.6591 109.211 18.6591C109.18 18.7525 109.211 18.8458 109.211 18.8458L110.176 18.6902L110.145 18.4102C110.145 18.4102 110.02 18.4413 109.989 18.4413L109.865 17.5079L110.02 17.4768L109.989 17.2279L109.367 17.3212L108.993 18.0991L108.34 17.4146H108.185L108.278 17.1656C110.176 16.9479 112.198 16.2945 114.158 16.8545C114.314 16.9167 114.438 17.0412 114.501 17.1656C114.687 17.6012 114.407 18.2857 114.563 18.7525C114.594 18.8458 114.625 18.908 114.594 19.0014C112.012 18.068 109.554 19.6236 106.909 19.1569ZM106.504 18.6902C106.411 18.3791 106.131 17.9435 105.758 17.7879C105.415 17.6324 104.98 17.6946 104.669 17.819C105.229 17.0101 105.695 15.4855 107.033 15.8589C107.344 15.9522 107.624 16.2945 107.656 16.6056C107.873 17.539 106.722 17.9124 106.504 18.6902ZM106.007 19.5614C105.82 19.7792 105.54 19.8726 105.229 19.8103C105.011 19.7481 104.886 19.5614 104.793 19.3436C104.762 19.1569 104.824 19.0014 104.98 18.9391C105.073 18.908 105.198 18.9703 105.229 19.0636C105.26 19.1881 105.042 19.3125 105.26 19.4059C105.384 19.437 105.478 19.2814 105.509 19.1881C105.54 18.9703 105.415 18.7525 105.198 18.6591C105.011 18.5969 104.824 18.628 104.669 18.7836C104.482 18.908 104.513 19.1258 104.482 19.2814C104.233 19.0636 103.891 18.9391 103.58 18.9391C104.14 18.4413 104.731 17.819 105.54 18.0057C105.82 18.1302 106.131 18.4102 106.162 18.7525C106.193 19.0636 106.162 19.3436 106.007 19.5614ZM105.54 10.9118C105.509 10.6628 105.602 10.3206 105.851 10.1028C106.069 9.91611 106.318 9.82277 106.598 9.94723L108.309 11.7207C107.811 11.5963 107.313 11.7518 106.971 12.1874C106.349 12.9653 107.096 14.2098 106.442 14.9566L105.82 15.5477C106.287 14.0543 106.131 12.2185 105.54 10.9118ZM105.322 9.885C104.824 9.69832 104.669 9.32495 104.264 8.82713C104.669 8.7649 105.073 8.48487 105.26 8.08039C105.26 8.01817 105.322 7.98705 105.322 7.89371C105.789 8.36042 106.722 8.88936 106.1 9.63609C105.882 9.79166 105.633 9.97834 105.322 9.885ZM112.603 9.97834C112.945 9.69832 113.132 9.32495 113.038 8.92047C113.069 8.57822 112.696 8.36042 112.509 8.14262C111.296 7.6448 110.145 8.57822 108.869 8.36042C108.62 8.23596 108.402 7.95594 108.402 7.67591V7.61369C108.558 7.8626 108.807 8.08039 109.149 8.08039C110.518 7.98705 112.416 6.86695 113.412 8.36042C113.598 8.70267 113.629 9.16938 113.505 9.57386C113.412 9.94723 113.101 10.2584 112.758 10.4762C111.109 11.2851 109.554 9.38718 107.998 10.5695L107.78 10.3828C109.18 8.88936 110.985 10.7873 112.603 9.97834ZM112.385 9.57386C112.416 9.72943 112.198 9.885 112.074 9.91611C111.327 10.0095 110.611 9.79166 109.896 9.63609C110.643 9.48052 111.389 9.16938 112.167 9.32495C112.323 9.32495 112.354 9.44941 112.385 9.57386ZM107.593 8.67156V8.60933C109.025 9.69832 110.58 8.42265 112.136 8.57822C112.478 8.67156 112.789 9.04492 112.665 9.41829C112.603 9.20049 112.385 9.01381 112.167 8.95158C110.611 8.79601 108.713 10.3517 107.593 8.67156ZM108.713 12.1252C108.9 12.2497 109.056 12.4675 109.118 12.7164C109.149 12.9964 109.056 13.2142 108.869 13.4009C108.713 13.5876 108.496 13.5876 108.247 13.5253C108.122 13.4942 107.998 13.3075 107.936 13.1831C107.905 13.0586 107.998 12.903 108.122 12.8719C108.465 12.7786 108.185 13.4009 108.527 13.152C108.589 13.0275 108.558 12.8408 108.465 12.7164C108.34 12.5919 108.122 12.5297 107.936 12.623C107.376 12.9964 107.873 13.6809 107.749 14.2721C107.718 14.6765 107.531 15.0499 107.189 15.3299C107.002 15.2677 106.722 15.2677 106.536 15.3299C107.096 14.7077 107.064 13.7431 107.033 12.903C107.064 12.5919 107.251 12.343 107.5 12.1563C107.873 11.9385 108.309 11.9385 108.713 12.1252ZM112.758 14.4587L113.101 14.4899L113.038 15.3922L112.696 15.361L112.758 14.4587ZM113.256 13.0897C113.443 12.8719 113.505 12.623 113.661 12.4052L113.941 12.5919C113.816 12.8719 113.692 13.1208 113.505 13.3698C113.443 13.2764 113.132 13.2453 113.256 13.0897ZM115.652 11.2229C115.745 11.254 115.714 11.4407 115.745 11.534C115.496 11.6585 115.185 11.6896 114.905 11.7518C114.843 11.6585 114.843 11.5029 114.843 11.4096L115.652 11.2229ZM118.265 11.7518C118.39 11.8141 118.577 11.7829 118.608 11.6274C118.545 11.0984 119.012 10.694 119.106 10.165C119.479 10.165 119.852 9.91611 120.008 9.54275C120.07 9.32495 120.132 9.01381 120.039 8.7649C119.977 8.70267 119.883 8.60933 119.852 8.73379C119.79 9.04492 119.666 9.41829 119.323 9.51163C118.794 9.69832 118.172 9.51163 117.643 9.41829C117.145 9.54275 116.585 9.51163 116.212 9.94723C116.087 10.0717 115.839 10.0095 115.683 9.91611C115.59 9.85389 115.496 9.69832 115.621 9.63609C115.807 9.51163 116.119 9.6672 116.243 9.41829C116.274 9.23161 116.15 9.07604 115.963 9.01381C115.621 8.79601 115.092 9.60497 115.092 8.85824L115.154 8.36042C115.31 8.45376 115.559 8.5471 115.745 8.45376C115.839 8.42265 115.963 8.29819 115.901 8.20485C115.745 7.89371 115.527 8.23596 115.31 8.20485C115.341 7.98705 115.652 7.95594 115.807 7.8626C116.492 7.76926 117.145 7.52034 117.612 6.96029C118.079 6.83584 118.577 7.17809 119.012 6.86695C119.168 6.49359 119.479 6.15133 119.852 5.96465C119.914 6.40024 120.101 6.96029 119.759 7.33366C119.821 7.427 119.946 7.45812 120.07 7.39589C120.194 7.33366 120.194 7.17809 120.257 7.05364C121.47 7.80037 121.906 9.13827 121.688 10.5073C121.501 11.1607 121.346 11.8141 121.003 12.3741C120.972 12.3741 120.879 12.1874 120.755 12.1874C120.817 12.063 120.817 11.8141 120.692 11.7207C120.443 11.7207 120.35 12.0941 120.039 11.9696C119.946 12.063 119.914 12.1563 119.914 12.2497C119.977 12.3119 120.039 12.2808 120.101 12.3741C120.132 12.5297 119.977 12.623 119.852 12.6541C119.666 12.6852 119.479 12.5608 119.417 12.3741C119.386 12.2808 119.354 12.1252 119.448 12.063C119.572 12.0941 119.79 12.343 119.821 12.063C119.821 11.8763 120.163 11.6896 119.883 11.5651L119.666 11.5029C119.697 11.4096 119.852 11.3474 119.821 11.1918C119.634 11.0984 119.448 10.974 119.23 10.974C119.137 11.0362 119.168 11.1607 119.168 11.254C119.043 11.3162 118.981 11.1296 118.857 11.1607C118.763 11.3474 118.701 11.534 118.639 11.7518L118.95 11.8452C118.825 12.0319 118.608 12.1563 118.421 12.0941C118.328 12.0319 118.172 11.9696 118.11 11.8452C118.11 11.8763 118.172 11.7829 118.265 11.7518ZM119.106 5.34237C119.354 5.00012 119.759 4.72009 120.101 4.59564C120.101 5.24903 119.572 5.71574 119.074 6.05799C118.888 5.87131 119.043 5.56017 119.106 5.34237ZM121.564 4.93789C121.564 5.59128 120.848 5.96465 120.661 6.55581C120.537 6.5247 120.506 6.33802 120.443 6.24467C120.35 5.56017 121.066 5.21792 121.564 4.93789ZM122.777 5.77797C122.621 6.55581 121.719 6.61804 121.346 7.20921C121.19 7.20921 121.221 7.02252 121.159 6.96029C121.283 6.18245 122.186 6.05799 122.777 5.77797ZM123.897 7.11586C123.337 7.61369 122.528 7.70703 121.812 7.8626C121.719 7.80037 121.75 7.6448 121.781 7.55146C122.31 7.02252 123.15 7.17809 123.897 7.11586ZM124.333 8.45376C123.804 8.82713 122.933 8.7649 122.248 8.67156C122.124 8.60933 122.155 8.45376 122.248 8.36042C122.87 7.95594 123.679 8.36042 124.333 8.45376ZM124.426 9.72943C123.773 9.91611 122.808 9.97834 122.341 9.48052C122.31 9.35606 122.435 9.29384 122.528 9.26272C123.213 9.29384 123.835 9.48052 124.426 9.72943ZM124.146 10.9429C123.461 11.1296 122.746 10.974 122.31 10.4139C122.279 10.3206 122.372 10.2273 122.466 10.2273C123.119 10.2895 123.586 10.7251 124.146 10.9429ZM122.155 11.4718C122.124 11.4096 122.155 11.3474 122.124 11.254C122.217 11.1607 122.372 11.1918 122.497 11.2229L123.617 12.063C123.026 12.1252 122.528 11.9074 122.155 11.4718ZM121.812 12.4052C121.781 12.2808 121.719 12.1252 121.781 12.0007C121.875 11.9696 121.937 11.9696 121.999 12.0007L122.839 13.0897C122.466 13.0275 122.092 12.7475 121.812 12.4052ZM121.346 13.2764C121.283 13.152 121.315 12.9653 121.439 12.9653C121.844 13.0897 121.968 13.5876 122.31 13.8365C121.937 13.8676 121.532 13.6187 121.346 13.2764ZM120.661 13.1208C120.599 13.0897 120.506 13.0897 120.443 12.9964C120.412 12.903 120.475 12.7786 120.568 12.7475C120.661 12.7164 120.755 12.7475 120.755 12.8408C120.786 12.9653 120.692 13.0586 120.661 13.1208ZM122.964 15.8589C123.244 15.8589 123.524 15.8589 123.71 16.0455C122.652 16.3567 121.532 16.6056 120.412 16.7923C121.252 16.6056 122.092 16.1389 122.964 15.8589ZM132.671 18.2235C133.76 17.6324 134.849 16.979 135.814 16.17C133.636 16.4811 131.52 16.6989 129.218 16.6989C129.031 16.6367 129.186 16.3567 129.062 16.2322C128.44 15.3299 127.071 15.61 126.075 15.6411C125.391 15.5788 124.55 16.3878 124.053 15.5166C123.741 15.2366 123.275 15.2988 122.87 15.2677C122.124 15.4544 121.439 15.89 120.692 16.0144C120.91 15.5166 120.723 14.9254 120.692 14.3654C120.723 14.2409 120.723 14.1165 120.848 14.0543C121.128 14.5521 121.657 14.8321 122.186 14.801C122.217 14.6143 121.906 14.4587 121.875 14.2721C122.341 14.4899 122.995 14.3032 123.43 14.521C123.399 14.1476 122.901 13.8054 122.684 13.5564C123.088 13.5564 123.461 13.5876 123.804 13.6187C123.679 13.1831 123.337 12.7475 123.026 12.4675L123.835 12.4986C124.084 12.4675 124.364 12.4986 124.613 12.4675C124.457 12.063 124.022 11.6896 123.648 11.5029L124.426 11.4096C124.644 11.3162 125.017 11.4407 125.204 11.3162C124.862 10.8495 124.364 10.5695 123.897 10.3517L125.048 10.0406C125.204 10.0406 125.422 10.0717 125.515 10.0095C125.173 9.54275 124.675 9.35606 124.208 9.16938V9.07604C124.457 9.01381 124.675 8.79601 124.893 8.67156C125.048 8.57822 125.297 8.57822 125.391 8.42265C124.986 8.04928 124.395 7.95594 123.866 7.83148V7.76926C124.208 7.55146 124.488 7.24032 124.83 7.02252V6.96029C124.302 6.61804 123.555 6.61804 122.901 6.61804C123.088 6.40024 123.181 6.18245 123.244 5.93354C123.337 5.71574 123.524 5.52906 123.617 5.31126C123.026 5.21792 122.466 5.37349 121.968 5.56017L122.279 4.37784L122.217 4.34673C121.657 4.37784 121.097 4.65787 120.63 4.96901C120.599 4.56452 120.755 4.22227 120.817 3.91113C120.35 3.94225 119.946 4.12893 119.541 4.31561C119.012 4.59564 118.452 5.06235 118.514 5.71574C118.483 5.74685 118.39 5.74685 118.39 5.80908C118.577 5.93354 118.639 6.21356 118.701 6.40024C118.545 6.3069 118.421 6.12022 118.39 5.93354C118.265 5.71574 118.017 5.52906 117.768 5.65351C117.861 5.77797 118.017 5.99576 118.017 6.18245C117.705 6.02688 117.705 5.68462 117.488 5.46683C117.363 5.4046 117.176 5.34237 117.052 5.43571L117.27 5.80908L117.239 5.87131C116.896 5.71574 116.959 5.34237 116.679 5.1868C116.585 5.09346 116.336 5.09346 116.243 5.1868C116.336 5.34237 116.492 5.49794 116.492 5.68462C116.087 5.52906 115.963 4.65787 115.403 4.96901C115.527 5.09346 115.683 5.21792 115.683 5.37349C115.341 5.28014 115.31 4.90678 115.061 4.72009C114.905 4.65787 114.75 4.59564 114.625 4.68898C114.718 4.78232 114.812 4.90678 114.812 5.03123C114.563 5.00012 114.594 4.72009 114.407 4.59564C114.314 4.40896 114.096 4.34673 113.878 4.40896C113.941 4.5023 114.065 4.62675 114.034 4.75121C113.816 4.65787 113.816 4.2845 113.536 4.25339C113.443 4.2845 113.318 4.37784 113.349 4.5023C113.412 4.62675 113.536 4.72009 113.661 4.78232C114.19 4.68898 114.438 5.28014 114.967 5.15569C115.185 5.4046 115.465 5.52906 115.807 5.49794C116.025 5.68462 116.305 5.84019 116.616 5.80908C116.865 6.21356 117.425 5.84019 117.674 6.3069C117.861 6.49359 118.297 6.27579 118.359 6.55581H118.297C117.643 6.21356 117.176 6.77361 116.679 7.05364C116.087 7.30255 115.31 7.27143 114.874 7.80037C114.781 8.32931 114.532 8.9827 114.843 9.51163C114.905 9.57386 115.061 9.57386 114.998 9.72943L115.59 10.3828C115.776 10.5384 116.087 10.4762 116.336 10.4762C116.959 10.0095 117.83 9.79166 118.577 10.165C118.514 10.4139 118.452 10.694 118.172 10.7873C118.079 10.8495 118.11 11.0984 117.923 11.0051C117.736 11.0051 117.674 11.2229 117.674 11.3785L117.861 11.4407C117.923 11.534 117.923 11.6274 117.861 11.6896C117.768 11.8141 117.581 11.8141 117.456 11.7829C117.301 11.7207 117.145 11.534 117.239 11.3474C117.332 11.3162 117.363 11.4718 117.456 11.4096C117.425 11.1918 117.55 11.0673 117.55 10.8806L117.301 10.8495C117.301 10.7251 117.456 10.6317 117.425 10.5073C117.239 10.445 117.021 10.445 116.803 10.4762L116.741 10.8806L116.243 10.9429C116.15 10.8806 116.181 10.7251 116.056 10.694L114.874 10.9429C114.656 10.974 114.376 11.1296 114.532 11.3785C114.314 11.5652 114.034 12.2185 113.661 11.8141C113.349 12.1563 113.163 12.5919 112.883 12.9653C112.758 13.1208 112.821 13.3698 113.007 13.432C113.007 13.6187 112.914 13.8054 112.821 13.9609C112.665 13.9298 112.54 13.9609 112.478 14.0854L112.385 15.5477C112.447 15.7033 112.603 15.6722 112.727 15.7344C112.696 15.7966 112.758 15.9211 112.696 15.9522C111.171 15.9211 109.865 16.3878 108.402 16.4189C108.278 16.0767 108.153 15.7344 107.811 15.4855C108.247 15.081 108.34 14.5521 108.433 13.992C108.931 14.0231 109.336 13.8676 109.647 13.4631C110.643 13.4942 111.732 13.6187 112.727 13.3698L112.665 13.3075C112.478 13.152 112.696 12.9964 112.727 12.8719C111.763 12.9653 110.767 12.9653 109.802 12.8719C109.927 11.9696 109.025 11.4718 108.527 10.8806C108.62 10.7873 108.745 10.694 108.869 10.6317C110.114 10.5384 111.109 11.254 112.385 11.0984C113.132 11.0051 114.003 10.4762 114.19 9.69832C114.345 9.04492 114.345 8.26708 113.878 7.76926C113.069 6.83584 111.638 6.89807 110.518 7.17809C109.989 7.24032 109.211 7.6448 108.838 7.08475C108.651 6.83584 108.745 6.46247 108.807 6.21356C108.558 6.18245 108.433 6.40024 108.278 6.5247C107.905 7.02252 107.998 7.76926 108.185 8.29819C107.811 8.17374 107.593 7.76926 107.469 7.427H107.438C107.22 7.80037 107.344 8.32931 107.5 8.73379C107.687 9.16938 108.185 9.44941 108.558 9.57386C108.247 9.63609 107.998 9.885 107.749 10.0095C107.624 9.91611 107.531 9.69832 107.376 9.57386C107.251 9.38718 106.847 9.44941 106.94 9.20049C107.189 8.39153 106.442 7.92482 105.913 7.427C105.82 6.7425 105.415 5.87131 104.575 5.65351C103.922 5.46683 103.3 5.56017 102.895 6.08911C102.615 6.43136 102.522 6.77361 102.584 7.20921C102.242 7.08475 101.931 6.83584 101.557 6.80472C101.495 6.92918 101.495 7.11586 101.526 7.30255C102.055 7.48923 102.553 7.80037 102.926 8.08039H103.86C104.046 8.04928 104.233 8.01817 104.358 7.83148C104.513 7.6448 104.575 7.427 104.451 7.17809C104.358 6.96029 104.264 6.83584 103.953 6.83584C103.673 6.83584 103.642 7.02252 103.642 7.20921C103.642 7.36477 103.735 7.39589 103.829 7.39589C103.922 7.36477 103.86 7.24032 103.922 7.17809C103.953 7.11586 104.015 7.05364 104.046 7.08475C104.14 7.14698 104.202 7.20921 104.233 7.33366C104.295 7.55146 104.14 7.70703 103.922 7.80037C103.673 7.92482 103.455 7.83148 103.269 7.6448C103.02 7.427 103.051 7.14698 103.144 6.83584C103.237 6.5247 103.393 6.36913 103.673 6.24467C104.046 6.08911 104.389 6.18245 104.731 6.43136C105.198 6.77361 105.384 7.36477 105.104 7.89371C104.886 8.29819 104.544 8.51599 104.109 8.48487V9.26272C105.353 10.7562 105.695 12.1874 105.695 13.4942C105.695 16.4811 103.735 19.5614 99.9705 20.1526L99.4727 20.6815C100.811 20.6193 102.024 20.1526 103.113 19.437C104.264 18.9703 104.669 20.6815 105.82 20.3393C106.162 20.277 106.442 19.9659 106.66 19.6548C107.313 19.7481 107.998 19.8414 108.713 19.7481C109.927 19.6859 111.016 19.2814 112.198 19.3125C112.229 19.5614 112.167 19.8414 112.323 20.0281C113.754 20.3704 115.434 20.4015 116.959 20.2459C117.332 20.3393 117.768 20.4637 118.141 20.2148C118.95 20.0904 119.666 20.3704 120.475 20.3704C120.848 20.4637 121.128 20.2459 121.315 20.0281C122.964 19.6236 124.613 19.1258 126.324 18.908C126.542 18.9391 126.417 19.2814 126.479 19.4681C126.666 19.7792 127.071 19.7481 127.382 19.8414C130.431 20.1215 133.605 19.8103 136.529 19.3436C135.16 19.0325 133.853 18.7213 132.671 18.2235Z" fill="white"/>
<path d="M108.305 15.279L110.514 14.8123C110.7 14.7189 111.043 14.7811 111.136 14.5322C110.265 14.6878 109.394 14.8745 108.522 14.9678C108.336 14.9989 108.367 15.1856 108.305 15.279Z" fill="white"/>
<path d="M108.308 15.8095C109.335 15.6228 110.299 15.4362 111.264 15.1561C111.388 15.0939 111.575 15.0939 111.575 14.9072C110.486 15.2495 109.241 15.3117 108.152 15.5917L108.308 15.8095Z" fill="white"/>
<path d="M111.541 15.6332L111.603 15.5088C110.576 15.7266 109.456 15.8822 108.398 16.1L108.492 16.3178C109.519 16.1 110.576 15.9444 111.541 15.6332Z" fill="white"/>
<path d="M108.523 14.4996L108.492 14.7174C109.146 14.6241 109.768 14.4996 110.39 14.3129L110.452 14.1885L108.523 14.4996Z" fill="white"/>
<path d="M127.534 16.6644L127.752 16.6955V17.7533L127.597 17.7845V17.94L128.499 18.0334V17.8778L128.312 17.8156L128.281 16.7577C128.281 16.7577 128.406 16.7888 128.468 16.851C128.53 16.9133 128.53 17.0377 128.53 17.0377L128.686 17.1C128.686 17.1 128.686 16.7577 128.686 16.7266C128.312 16.571 127.814 16.5088 127.348 16.5088V17.0066L127.472 16.9755L127.534 16.6644Z" fill="white"/>
<path d="M127.284 17.7182L127.129 17.6871L127.036 16.6914L127.222 16.6603L127.16 16.4736L126.227 16.5981V16.7537H126.382L126.507 17.7804L126.382 17.8115V17.9982L127.284 17.8738V17.7182Z" fill="white"/>
<path d="M123.336 17.847C123.367 17.8781 123.212 17.3803 123.212 17.3803C123.212 17.3803 123.492 17.2248 123.585 17.5048C123.679 17.7537 123.461 17.8159 123.336 17.847ZM124.114 17.3492C124.052 17.0381 123.647 17.0692 123.274 17.1314C123.305 17.1314 122.527 17.3492 122.527 17.3492L122.558 17.5048L122.652 17.4737L122.901 18.4693L122.807 18.5938L122.87 18.7182L123.616 18.5315L123.523 18.3449H123.461L123.399 17.9715C123.399 17.9715 123.585 17.9404 123.647 18.0026C123.772 18.1271 123.896 18.4693 123.896 18.4693L124.456 18.3137L124.021 17.7848C124.021 17.8159 124.207 17.8159 124.114 17.3492Z" fill="white"/>
<path d="M125.454 18.0658C125.236 18.128 125.174 17.9413 125.081 17.5991C124.988 17.2879 124.863 16.9768 125.112 16.8834C125.361 16.8212 125.485 17.1635 125.548 17.4435C125.641 17.7857 125.672 17.9724 125.454 18.0658ZM125.672 16.759C125.361 16.6656 124.988 16.6967 124.739 16.8834C124.427 17.039 124.396 17.3813 124.427 17.6924C124.459 17.9102 124.645 18.0969 124.832 18.1902C125.112 18.2836 125.485 18.2524 125.734 18.128C125.983 18.0035 126.108 17.7235 126.108 17.4435C126.108 17.1323 125.952 16.8834 125.672 16.759Z" fill="white"/>
<path d="M102.148 17.5951L102.023 17.564C102.086 17.4706 102.272 17.4706 102.241 17.3151C101.899 17.035 101.495 17.1595 101.059 17.1284L100.997 17.0662C101.183 16.8795 101.495 16.9728 101.712 16.9728C101.806 17.0039 101.93 16.8795 101.868 16.7861C101.557 16.8484 101.183 16.8172 100.872 16.9728C100.81 17.035 100.841 17.1284 100.903 17.1906C101.277 17.2528 101.775 17.0662 102.055 17.3462L101.961 17.3773C101.495 17.1906 100.997 17.5018 100.561 17.284L100.623 17.1595C100.437 17.035 100.188 16.9728 99.9699 17.0039C99.8766 17.0973 100.032 17.2528 99.9388 17.3773C99.721 17.3773 99.8455 17.1595 99.7833 17.0662L99.5343 17.035C99.4099 17.0973 99.5032 17.2217 99.4721 17.3151C99.6899 17.4084 99.7521 17.6573 99.9388 17.7818C99.8766 17.8751 99.721 18.0307 99.6277 17.8751C99.5343 17.9062 99.3788 17.9373 99.3477 18.0618C99.5655 18.4974 99.9388 18.0929 100.188 18.0307L100.25 18.0618C100.406 17.844 100.686 17.844 100.872 17.7818C101.028 17.9685 100.717 17.9373 100.654 18.0307C100.561 18.124 100.437 17.9373 100.374 18.0929C100.374 18.1551 100.312 18.2174 100.374 18.2796C100.654 18.3729 100.872 18.0618 101.152 18.0929C101.37 18.0618 101.152 17.8751 101.308 17.7818C101.432 17.6884 101.619 17.5951 101.712 17.7818L101.588 17.9062C101.495 17.8751 101.495 17.7507 101.37 17.8129C101.308 17.844 101.308 17.9062 101.308 17.9373C101.277 18.124 101.495 18.0929 101.588 18.1551C101.806 17.9996 102.023 17.8129 102.148 17.5951Z" fill="white"/>
<path d="M99.5302 9.48803H102.673V12.9728H99.5302V9.48803ZM99.2812 13.2528H103.015V9.20801H99.2812V13.2528Z" fill="white"/>
<path d="M99.9689 16.7799C100.124 16.7488 100.249 16.5932 100.342 16.6554C100.404 16.6865 100.404 16.5932 100.436 16.5621C100.778 16.4998 101.058 16.2509 101.462 16.3443C101.431 16.3754 101.462 16.4687 101.4 16.4687C101.245 16.6243 100.871 16.4687 100.84 16.7799C100.902 16.811 100.965 16.9043 101.058 16.8732C101.182 16.6865 101.431 16.7488 101.618 16.7488C101.991 16.8421 101.68 16.4376 101.991 16.4065C102.178 16.4376 102.458 16.3132 102.614 16.4998C102.614 16.5621 102.582 16.5932 102.551 16.5932C102.489 16.6554 102.427 16.6243 102.396 16.5621C102.334 16.4998 102.24 16.531 102.209 16.6243C102.24 16.8421 102.427 16.811 102.551 16.8732C102.769 16.7488 102.862 16.4998 102.925 16.282C102.769 16.2509 102.645 16.282 102.551 16.1887C102.645 16.1887 102.8 16.0954 102.769 15.9709C102.427 15.5664 101.742 15.8465 101.245 15.7842L101.182 15.722C101.4 15.5042 101.898 15.7531 102.022 15.4109C101.991 15.3486 101.929 15.3486 101.898 15.3486C101.649 15.5664 101.151 15.3797 100.996 15.6909C101.369 16.0954 101.929 15.6598 102.427 15.8153C102.489 15.7842 102.614 15.9087 102.582 15.9398C101.991 15.8776 101.276 16.0643 100.653 15.8776C100.685 15.8153 100.716 15.7842 100.747 15.6909C100.529 15.5353 100.218 15.5664 100 15.5042C100 15.6598 100.062 15.7842 99.9689 15.9087C99.9067 15.9709 99.8444 15.8776 99.8133 15.8465C99.7511 15.7531 99.8133 15.722 99.8444 15.6287C99.8133 15.442 99.6578 15.5975 99.5333 15.5353C99.44 15.5664 99.4711 15.722 99.44 15.7842C99.7511 15.8465 99.6889 16.2509 99.9378 16.3132C99.8756 16.3754 99.8133 16.4376 99.72 16.4998C99.6578 16.4687 99.6578 16.3754 99.5955 16.4065C99.5022 16.4687 99.2844 16.4687 99.3155 16.6243C99.44 17.0599 99.6889 16.6865 99.9689 16.7799Z" fill="white"/>
<path d="M99.4401 15.4047C99.5334 15.4669 99.6268 15.3736 99.689 15.3736C99.9379 15.4047 100.125 15.1247 100.342 15.1869C100.716 14.9691 101.12 14.8447 101.587 14.8758L101.494 15.0624C101.307 15.1247 100.965 15.0313 100.902 15.2491C100.902 15.4358 101.089 15.3425 101.182 15.4047C101.369 15.1869 101.743 15.4047 101.929 15.218C101.774 15.0624 102.054 15.0313 102.116 14.9069C102.334 15.0313 102.645 14.7513 102.769 15.0624C102.676 15.2491 102.551 14.938 102.427 15.0936C102.396 15.3114 102.614 15.3114 102.738 15.4047C102.956 15.3114 103.08 15.0624 103.08 14.7824C102.956 14.7513 102.832 14.7824 102.738 14.6891C102.8 14.5957 103.018 14.6269 102.987 14.4713C102.551 14.0357 101.867 14.4402 101.307 14.2535C101.307 14.2224 101.307 14.1913 101.338 14.1913C101.587 14.0046 102.054 14.3468 102.147 13.9735C102.116 13.9112 102.054 13.9423 101.991 13.9423C101.774 14.1601 101.245 13.8801 101.151 14.2846C101.182 14.3779 101.307 14.4091 101.4 14.4091C101.867 14.4402 102.458 14.1913 102.832 14.4713C102.147 14.5335 101.338 14.5957 100.654 14.4402L100.685 14.3157C100.498 14.1601 100.218 14.0979 100 14.1601C99.969 14.2535 100.062 14.3157 100.031 14.4091C100 14.4713 100 14.5957 99.9068 14.5646C99.7512 14.5024 99.8135 14.3779 99.8446 14.2535C99.8135 14.129 99.6579 14.2224 99.5957 14.1601C99.4401 14.1913 99.5023 14.3468 99.4401 14.4402C99.6579 14.5646 99.7512 14.8135 99.9379 14.9691C99.7512 15.2491 99.5334 14.8447 99.3779 15.1869C99.2845 15.2802 99.409 15.3425 99.4401 15.4047Z" fill="white"/>
<path d="M99.0065 19.902V13.8348H103.331C103.425 15.8261 103.362 17.5373 101.589 18.3463C100.718 18.7819 99.691 19.1241 99.0065 19.902ZM99.0065 8.94988H103.269V13.4925H99.0065C99.0065 11.9679 99.0065 8.94988 99.0065 8.94988ZM98.6954 13.4925H94.4639V8.94988H98.6954C98.6954 8.94988 98.6954 11.999 98.6954 13.4925ZM98.6954 19.902C97.7308 18.8441 96.4863 18.813 95.3351 17.7862C94.3394 16.915 94.4639 15.1104 94.4639 13.8348H98.6954V19.902ZM93.9038 16.3239C92.9393 14.7993 92.9704 12.4035 93.9038 10.8789V16.3239ZM103.891 10.8167C104.358 11.6257 104.607 12.5902 104.607 13.5859C104.607 14.5504 104.358 15.546 103.891 16.355V10.8167ZM102.273 18.5952C102.989 18.1596 104.047 17.0706 104.545 15.7638C105.105 14.3015 105.043 13.1191 104.638 11.6879C104.389 10.8167 103.829 10.1011 103.829 10.1011V8.35872H101.9L101.247 7.98535L100.873 8.10981L101.309 8.35872H96.5174L96.9841 8.14092L96.5485 8.01647C96.5485 8.01647 96.0507 8.26538 95.8329 8.35872H93.8727V10.1944C92.9704 11.5634 92.5348 13.7103 93.126 15.3905C93.7483 17.1017 94.4017 17.6929 95.5218 18.6263C96.7663 19.1864 98.0109 19.7153 98.9132 20.9598C99.5354 19.7464 100.811 19.2797 102.273 18.5952Z" fill="white"/>
<path d="M94.8691 10.6034C95.118 10.5412 95.4292 10.5412 95.647 10.2923C95.7092 10.4478 95.7714 10.2612 95.8648 10.2612C96.2381 10.1989 96.5493 9.9189 96.9226 10.0745L96.8915 10.1056C96.8293 10.3545 96.487 10.2923 96.2692 10.3234C96.207 10.5412 96.3626 10.5723 96.5182 10.5723C96.7359 10.3856 97.1404 10.5412 97.3271 10.3545C97.1715 10.23 97.4204 10.23 97.4827 10.0745C97.7005 10.1989 98.0116 9.9189 98.1361 10.23L98.0738 10.2612C98.0116 10.2612 97.9183 10.23 97.856 10.1989C97.8249 10.23 97.7938 10.2612 97.7938 10.2923C97.7316 10.5101 97.9805 10.5101 98.0738 10.5412C98.3228 10.4478 98.385 10.1678 98.4161 9.9189C98.2916 9.85668 98.1672 9.95002 98.0738 9.82556C98.1672 9.79445 98.3539 9.73222 98.2916 9.57665C97.9805 9.2344 97.3582 9.38997 96.9537 9.42108C96.8604 9.4522 96.7359 9.4522 96.7359 9.32774C96.7982 9.2344 96.9537 9.29663 97.0782 9.26551C97.2649 9.29663 97.4827 9.2344 97.4205 9.04772L97.3271 9.0166C97.1404 9.2344 96.7982 9.07883 96.5804 9.2344C96.5493 9.32774 96.5493 9.4522 96.6426 9.48331C97.1093 9.57665 97.6382 9.32774 98.105 9.54554C98.1361 9.57665 98.1361 9.63888 98.0738 9.63888C97.4205 9.57665 96.6115 9.76334 95.9892 9.57665L96.0514 9.4522C95.8336 9.35885 95.5847 9.14106 95.3047 9.29663C95.2736 9.42108 95.4292 9.63888 95.2425 9.70111C94.9936 9.60777 95.2425 9.4522 95.118 9.32774C95.0558 9.35885 94.9002 9.29663 94.8069 9.35885C94.6202 9.73222 95.118 9.85668 95.2425 10.1367L95.1802 10.1989C95.118 10.2612 94.9936 10.2923 94.9936 10.1678C94.8691 10.1056 94.8069 10.2612 94.7135 10.2923C94.5891 10.4478 94.8069 10.5412 94.8691 10.6034Z" fill="white"/>
<path d="M96.3587 16.0217L97.6966 16.8618L97.6344 17.204L96.0787 16.2395L95.9542 15.9906C96.0165 15.8039 96.2343 15.9283 96.3587 16.0217ZM96.4521 15.3994C96.8877 15.6794 97.3544 15.9283 97.7277 16.2395L97.6966 16.5506C97.1988 16.3328 96.7321 16.0217 96.3276 15.6794L96.4521 15.3994ZM96.7632 14.9638L97.79 15.555L97.7589 15.8661C97.3855 15.7105 96.981 15.3994 96.6076 15.1816L96.7632 14.9638ZM97.8522 14.7771L97.8211 15.2438C97.541 15.1505 97.2921 14.9327 97.0743 14.7771H97.8522ZM97.5722 17.8885C97.0743 17.6396 96.3898 17.2662 96.2343 16.6751C96.701 16.924 97.1677 17.2351 97.6033 17.5151C97.5722 17.6396 97.6033 17.7952 97.5722 17.8885ZM97.2299 18.2308C97.5722 18.4174 97.8522 18.7908 98.2256 18.8842C98.4122 17.4218 98.35 14.2171 98.35 14.2171H96.2965C95.8298 14.2482 96.1098 14.8394 95.7987 15.0571C95.7364 15.1194 95.5498 15.1505 95.4875 15.026C95.4564 14.8705 95.5809 14.7771 95.6742 14.6838C95.7364 14.5593 95.7987 14.3415 95.6742 14.2171C95.5186 14.0926 95.332 14.0926 95.1453 14.1237C95.0208 14.186 94.9275 14.3104 94.8964 14.4349C94.8341 14.6527 94.8964 14.9016 95.0831 15.026C95.0831 15.1816 94.9586 15.3061 94.8653 15.3994C94.7719 15.5239 94.8341 15.7105 94.9586 15.7728C95.1764 16.8306 96.1409 17.9819 97.2299 18.2308Z" fill="white"/>
<path d="M102.398 9.95935C102.367 9.80378 102.211 9.77266 102.118 9.80378C101.776 10.1149 101.745 10.6439 101.9 11.0483C101.9 11.2972 102.522 11.5773 102.149 11.7328C101.931 11.5773 101.651 11.4217 101.496 11.2039C101.402 10.955 101.496 10.6439 101.589 10.4261C101.682 10.2083 101.558 10.0216 101.714 9.83489C101.62 9.80378 101.558 9.71043 101.465 9.64821C101.247 9.61709 100.936 9.64821 100.811 9.83489C100.78 10.0216 100.936 9.95935 101.06 9.99046C101.091 10.1149 100.811 10.0216 100.873 10.1771L101.06 10.2705C100.967 10.3638 100.811 10.4883 100.656 10.4883C100.438 10.3949 100.22 10.3016 100.158 10.0527L100.251 9.95935C100.282 9.74155 100.033 9.83489 99.9089 9.74155C99.8778 9.866 99.6911 9.866 99.7222 10.0527C99.9711 10.2705 100.158 10.675 100.469 10.8616C100.407 10.9239 100.376 10.9239 100.282 10.9861C100.189 11.0483 100.033 11.0483 100.033 10.8928C99.8156 10.7994 99.9089 11.0794 99.7222 11.1106C99.7845 11.235 99.6911 11.2972 99.7533 11.4528L99.9089 11.4839C100.158 11.235 100.469 11.3284 100.749 11.1417L100.936 11.4839L100.687 11.5462C100.469 11.7017 100.873 11.8573 100.687 12.0129C100.562 12.1373 100.438 11.9817 100.376 11.8884C100.158 11.8262 100.282 12.1062 100.096 12.1062C99.9711 12.2618 100.251 12.2618 100.158 12.4173C100.22 12.4796 100.251 12.4796 100.313 12.5107C100.438 12.2618 100.718 12.324 100.936 12.2307C101.06 12.1995 101.216 12.0129 101.091 11.9195C101.185 11.9506 101.278 11.8573 101.34 11.9506C101.247 12.324 101.776 12.2307 101.745 12.5418C101.682 12.5107 101.682 12.4485 101.589 12.4796C101.465 12.6351 101.433 12.7907 101.589 12.9463C101.776 12.8529 102.056 12.6974 102.087 12.4485C102.118 12.2307 101.9 12.1995 101.776 12.1062C101.776 12.0129 101.807 11.9195 101.838 11.8573C101.931 11.9195 102.025 12.044 102.18 12.0129C102.367 11.9817 102.398 11.7951 102.367 11.6706C101.994 11.3284 101.776 10.8616 101.962 10.3327C101.994 10.2394 102.025 10.0527 102.18 10.1149C102.367 10.3016 102.087 10.4572 102.087 10.6439C102.087 10.7683 102.211 10.8305 102.305 10.9239C102.367 10.955 102.522 10.9861 102.522 10.8616C102.336 10.5505 102.367 10.2394 102.398 9.95935Z" fill="white"/>
<path d="M97.8564 11.6127C97.7941 11.6127 97.7941 11.7061 97.7941 11.7372C97.8252 11.8927 98.0119 11.8927 98.1053 11.9239C98.3542 11.7994 98.4164 11.5505 98.4475 11.3016C98.3542 11.2394 98.1675 11.3327 98.1053 11.2082C98.1986 11.1771 98.3231 11.1149 98.3231 10.9904C97.9808 10.4926 97.2963 10.8971 96.7674 10.7415C96.9229 10.4926 97.3274 10.7104 97.5141 10.5237C97.5763 10.4615 97.5141 10.3993 97.4519 10.3682C97.203 10.4926 96.8607 10.4615 96.6118 10.586C96.5185 10.6793 96.5496 10.8349 96.674 10.8971C97.1719 10.9904 97.7319 10.6793 98.1364 10.9904L98.0742 11.0527C97.4208 10.866 96.7051 11.146 96.0829 10.9904C95.8962 10.9593 96.114 10.866 96.0829 10.7726H95.9895C95.834 10.5548 95.5228 10.6793 95.3672 10.6171C95.2428 10.7415 95.4606 10.8038 95.3672 10.9593C95.3361 11.0527 95.2428 11.0838 95.1806 11.0216C95.0561 10.9282 95.2117 10.8349 95.1806 10.7415C95.1183 10.586 94.9939 10.7726 94.9005 10.6793C94.8072 10.7104 94.8072 10.8038 94.7761 10.8971C94.745 10.9904 94.8694 11.0216 94.9628 11.0838C95.025 11.2705 95.2739 11.3949 95.2117 11.5505C95.1494 11.5816 95.025 11.7061 94.9939 11.5505C94.8694 11.4883 94.8072 11.6749 94.7139 11.7061C94.6827 11.8305 94.7761 11.8927 94.8694 11.955C95.1494 11.8616 95.4606 11.8927 95.7095 11.7061C95.8028 11.7683 95.8028 11.6438 95.8651 11.6127C96.2384 11.5505 96.5496 11.3327 96.9541 11.3949C96.8918 11.426 96.9852 11.5505 96.8607 11.5505C96.7051 11.5816 96.5807 11.7372 96.4251 11.6438C96.3318 11.6127 96.2695 11.7372 96.2695 11.8305C96.2384 11.9861 96.4251 11.9239 96.5185 11.955C96.7051 11.7683 97.1096 11.8305 97.3585 11.8305C97.1719 12.0172 96.8296 11.8616 96.5807 12.0483C96.5496 12.1417 96.5496 12.235 96.6429 12.2972C97.1096 12.4217 97.6386 12.1417 98.1053 12.3595C98.1364 12.3906 98.1364 12.4528 98.0742 12.4528C97.3585 12.2972 96.674 12.5772 95.9584 12.3595C95.9895 12.3283 96.0518 12.2661 95.9895 12.1728H95.8962C95.7406 11.955 95.4606 12.0794 95.2739 12.0483C95.2428 12.2039 95.3672 12.3595 95.2428 12.4528C95.025 12.4217 95.1494 12.235 95.0561 12.1105C94.9628 12.1417 94.8694 12.0483 94.7761 12.1417C94.745 12.235 94.745 12.3595 94.7761 12.4528C94.9939 12.515 95.025 12.795 95.2428 12.8884L95.1494 12.9817C95.0872 13.0751 94.9628 13.0128 94.9005 12.9195C94.8072 12.9817 94.5894 13.0128 94.6516 13.1995C94.745 13.3862 94.9317 13.2929 95.0561 13.2929C95.305 13.324 95.4606 13.0751 95.6784 13.1373C96.0206 12.9195 96.4251 12.8262 96.8296 12.7639C96.9852 12.7639 96.8607 12.8884 96.8607 12.9506C96.6429 12.9817 96.4562 13.0128 96.2695 13.0128C96.2695 13.0751 96.1762 13.1684 96.2695 13.2306C96.5185 13.3551 96.7985 13.1373 97.1096 13.1995C97.483 13.2306 97.1407 12.8884 97.483 12.795C97.7008 12.8573 97.9186 12.7328 98.1053 12.8884C98.1053 13.1373 97.9186 12.8884 97.8252 12.9506C97.763 12.9817 97.7941 13.0128 97.7941 13.0751C97.763 13.2618 97.9808 13.1995 98.1053 13.2929C98.3231 13.1684 98.3853 12.8884 98.4475 12.6706C98.3231 12.7017 98.1986 12.7017 98.1053 12.6084C98.1986 12.5772 98.3853 12.515 98.3231 12.3595C97.9497 12.0172 97.3274 12.235 96.8607 12.2039L96.7674 12.1417L96.8296 12.0794C97.0163 11.955 97.4208 12.1728 97.483 11.8616C97.483 11.7683 97.3274 11.7994 97.2963 11.7994C97.2963 11.7372 97.3274 11.6749 97.2652 11.6127C97.4208 11.2705 97.7941 11.4883 98.043 11.4883C98.0742 11.5505 98.1364 11.5816 98.0742 11.6438C98.0119 11.7372 97.9808 11.6127 97.8564 11.6127Z" fill="white"/>
<path d="M120.816 11.4709C120.816 11.5332 120.909 11.5643 120.941 11.5643C121.376 11.0353 121.438 10.3197 121.438 9.57298C121.376 9.04404 121.283 8.48399 120.847 8.17285C120.785 8.17285 120.754 8.23508 120.754 8.29731C121.407 9.19961 121.189 10.5064 120.816 11.4709Z" fill="white"/>
<path d="M118.355 7.60748L118.604 7.79417C118.542 7.88751 118.386 7.88751 118.262 7.91862C118.262 7.82528 118.355 7.73194 118.355 7.60748ZM117.764 7.79417C117.795 7.70083 117.826 7.60748 117.92 7.54526L117.951 7.82528L117.764 7.79417ZM117.92 7.26523C117.608 7.26523 117.577 7.57637 117.391 7.73194C117.484 7.91862 117.702 8.01196 117.92 8.04308C118.293 8.13642 118.729 8.07419 118.977 7.79417C118.635 7.60748 118.355 7.203 117.92 7.26523Z" fill="white"/>
<path d="M10.6721 39.0605V38.4694C9.24082 38.4694 8.33852 38.1271 8.33852 36.6025V26.335C11.201 26.335 11.8855 26.8328 12.1344 29.1041H12.8189V24.9971H0V29.1041H0.684505C0.96453 26.8639 1.61792 26.335 4.4804 26.335V36.6025C4.4804 38.1271 3.5781 38.4694 2.14686 38.4694V39.0605H10.6721Z" fill="white"/>
<path d="M23.056 32.3126V36.6063C23.056 37.9753 22.3092 38.4109 21.1269 38.4732V39.0954H28.6253V38.4732C27.2563 38.4732 26.7274 38.1309 26.7274 36.6063V27.4588C26.7274 25.9343 27.2563 25.592 28.6253 25.592V24.9697H21.1269V25.592C22.3092 25.6231 23.056 26.0898 23.056 27.4588V31.1925H18.2333V27.4588C18.2333 26.0898 18.98 25.6542 20.1624 25.592V24.9697H13.224V25.592C14.1574 25.7787 14.5308 25.9343 14.5308 27.4588V36.5752C14.5308 38.0998 14.0018 38.442 12.6328 38.442V39.0643H20.1313V38.442C18.9489 38.4109 18.2022 37.9442 18.2022 36.5752V32.2815H23.056" fill="white"/>
<path d="M41.1008 39.0605V34.8913H40.6029C39.8251 37.8782 38.8606 38.0649 37.5538 38.0649H35.8114C34.9713 38.0649 34.8158 37.7849 34.8158 37.0381V32.2777C36.9315 32.3088 38.3939 32.0599 38.5183 34.0512H39.0472V29.5708H38.5183C38.3939 31.3132 36.8382 31.1576 34.8158 31.1576V25.9927H37.0248C39.265 25.9927 40.2296 26.8639 40.4474 28.9796H40.883V24.9971H29.3086V25.6193C30.6776 25.6193 31.2065 25.9616 31.2065 27.4862V36.6026C31.2065 38.1271 30.6776 38.4694 29.3086 38.4694V39.0917H41.1008" fill="white"/>
<path d="M48.4157 39.125H48.8201C48.9446 38.7828 49.1624 38.4405 49.598 38.4405C50.3758 38.4405 51.0603 39.374 54.0784 39.374C56.0386 39.374 58.4966 37.9116 58.4966 34.6135C58.4966 29.7909 50.7803 30.631 50.7803 27.364C50.7803 26.1506 51.9004 25.5905 53.145 25.5905C54.9807 25.5905 56.2875 26.9906 56.8475 28.7952H57.2831V24.9993H56.6919C56.5986 25.3105 56.5364 25.4972 56.2252 25.4972C55.5407 25.4972 54.9496 24.626 52.9272 24.626C50.4692 24.626 47.8867 25.6838 47.8867 28.7952C47.8867 33.9601 55.6963 33.2445 55.6963 36.4804C55.6963 37.5382 54.4829 38.4094 53.0205 38.4094C51.0603 38.4094 49.1313 36.8226 48.789 34.8313H48.229L48.4157 39.125Z" fill="white"/>
<path d="M151.524 39.0605V38.5005C150.373 38.5005 149.906 37.7538 149.906 36.2603V27.7351C149.906 26.2105 150.217 25.6193 151.338 25.6193V24.9971H144.772V25.6193C145.893 25.6193 146.204 26.2105 146.204 27.7351V36.2292C146.204 37.7538 145.737 38.4694 144.555 38.4694V39.0294H151.524" fill="white"/>
<path d="M161.049 39.0646L165.405 27.7702V36.2332C165.405 37.9134 165.094 38.3179 163.507 38.4734V39.0335H170.912V38.4734C169.138 38.2867 169.014 37.7267 169.014 36.2332V27.8947C169.014 25.9968 169.325 25.9034 170.912 25.6545V25.0322H165.156L161.702 34.1797L158.311 25.0322H152.555V25.6545C153.893 25.6545 154.422 26.4012 154.422 27.8947V36.4821C154.422 38.0067 154.141 38.2867 152.555 38.5045V39.0646H157.595V38.5045C155.759 38.2245 155.697 37.9756 155.697 36.4821V28.3925L159.991 39.0957H161.049" fill="white"/>
<path d="M183.663 39.0605V34.8913H183.165C182.387 37.8782 181.423 38.0649 180.116 38.0649H178.374C177.534 38.0649 177.378 37.7849 177.378 37.0381V32.2777C179.494 32.3088 180.925 32.0599 181.081 34.0512H181.61V29.5708H181.081C180.956 31.3132 179.401 31.1576 177.378 31.1576V25.9927H179.587C181.827 25.9927 182.792 26.8639 183.01 28.9796H183.445V24.9971H171.84V25.6193C173.209 25.6193 173.738 25.9616 173.738 27.4862V36.6648C173.738 38.1894 173.209 38.5316 171.84 38.5316V39.0917H183.663" fill="white"/>
<path d="M185.376 39.125H185.781C185.905 38.7828 186.123 38.4405 186.559 38.4405C186.963 38.4405 188.83 39.374 191.039 39.374C192.999 39.374 195.457 37.9116 195.457 34.6135C195.457 29.7909 187.741 30.631 187.741 27.364C187.741 26.1506 188.861 25.5905 190.075 25.5905C191.91 25.5905 193.217 26.9906 193.777 28.7952H194.213V24.9993H193.622C193.528 25.3105 193.466 25.4972 193.155 25.4972C192.47 25.4972 191.879 24.626 189.857 24.626C187.399 24.626 184.816 25.6838 184.816 28.7952C184.816 33.9601 192.626 33.2445 192.626 36.4804C192.626 37.5382 191.413 38.4094 189.95 38.4094C187.99 38.4094 186.061 36.8226 185.719 34.8313H185.159L185.376 39.125Z" fill="white"/>
<path d="M141.969 39.0605V38.4694C140.538 38.4694 139.635 38.1271 139.635 36.6025V26.335C142.498 26.335 143.182 26.8328 143.431 29.1041H144.116V24.9971H131.297V29.1041H131.981C132.261 26.8639 132.915 26.335 135.777 26.335V36.6025C135.777 38.1271 134.875 38.4694 133.444 38.4694V39.0605H141.969Z" fill="white"/>
<path d="M73.6149 25.6193C74.3927 25.6193 74.6728 25.806 75.3573 26.6461V36.5714C75.3573 38.096 74.6728 38.4383 73.2104 38.4383V39.0605H78.8731V38.4383C77.3174 38.4383 76.6329 38.096 76.6329 36.5714V28.7307H76.6641L84.6292 39.0605H86.2782V27.7973C86.2782 26.2727 86.7761 25.7438 88.1762 25.6193V24.9971H83.3224V25.6193C84.7225 25.8994 85.0337 26.2727 85.0337 27.7973V33.709H85.0026L78.5309 25.0282H68.3878V25.6505C69.6634 25.6816 70.2546 26.2727 70.2546 27.5173V34.3935C70.2546 37.007 69.4145 37.9716 67.2677 37.9716C65.9298 37.9716 64.3118 37.3493 64.3118 35.2335V27.4862C64.3118 25.9616 64.8408 25.6193 66.2098 25.6193V24.9971H58.8047V25.6193C60.1737 25.6193 60.7026 25.9616 60.7026 27.4862V34.9535C60.7026 38.3138 63.0362 39.4339 66.2409 39.4339C69.7568 39.4339 71.5925 38.2205 71.5925 34.9224V27.4862C71.5614 25.9616 72.2148 25.6193 73.6149 25.6193Z" fill="white"/>
<path d="M94.4288 25.9968C98.1313 25.5612 99.6248 28.4548 99.6248 31.6595C99.6248 36.2955 98.4113 37.9756 95.7355 37.9756C94.8644 37.9756 94.4288 37.6645 94.4288 36.5133V25.9968ZM90.7573 36.5755C90.7573 38.1001 90.2284 38.4423 88.8594 38.4423V39.0646H95.86C100.278 39.0646 103.296 37.2289 103.296 32.064C103.296 26.8679 100.309 25.0322 95.86 25.0322H88.8594V25.6545C90.2284 25.6545 90.7573 25.9968 90.7573 27.5213V36.5755Z" fill="white"/>
<path d="M110.049 33.4891H106.595L108.338 28.3864L110.049 33.4891ZM117.019 38.4362C116.147 38.4362 115.556 38.0006 115.183 37.1294L110.702 24.5283L108.151 25.1817L104.169 36.5383C103.608 38.0317 102.831 38.3429 101.617 38.4051V39.0274H107.218V38.4051C106.004 38.4051 105.226 38.0317 105.226 37.5028C105.226 37.1294 105.32 36.8183 105.475 36.3827L106.191 34.6403H110.36L111.262 36.6938C111.356 36.9739 111.48 37.3161 111.48 37.6273C111.48 38.094 111.138 38.3429 110.671 38.3429H109.582V38.9652H124.641V38.3429C123.272 38.3429 122.463 38.0006 122.463 36.476V32.4312L125.793 27.1419C126.633 25.8662 127.162 25.7418 128.313 25.6484V25.0261H123.21V25.6484C123.988 25.6484 124.548 25.8662 124.548 26.4263C124.548 26.893 124.33 27.2975 124.144 27.6708L121.872 31.0622L119.881 27.6397C119.632 27.1419 119.321 26.6129 119.321 26.2707C119.321 25.9284 119.632 25.6484 120.441 25.6484V25.0261H112.974V25.6484C113.752 25.7729 114.623 25.6795 115.307 26.7063L118.885 32.4312V36.6005C118.917 38.094 118.076 38.4362 117.019 38.4362Z" fill="white"/>
</svg>
